  0
SECTION
  2
HEADER
  9
$ACADVER
  1
AC1015
  9
$ACADMAINTVER
 70
     6
  9
$DWGCODEPAGE
  3
ANSI_1252
  9
$INSBASE
 10
0.0
 20
0.0
 30
0.0
  9
$EXTMIN
 10
-96.7123889804
 20
-25.0
 30
0.0
  9
$EXTMAX
 10
96.7123889804
 20
94.9247779608
 30
0.0
  9
$LIMMIN
 10
0.0
 20
0.0
  9
$LIMMAX
 10
420.0
 20
297.0
  9
$ORTHOMODE
 70
     0
  9
$REGENMODE
 70
     1
  9
$FILLMODE
 70
     1
  9
$QTEXTMODE
 70
     0
  9
$MIRRTEXT
 70
     1
  9
$LTSCALE
 40
1.0
  9
$ATTMODE
 70
     1
  9
$TEXTSIZE
 40
3.5
  9
$TRACEWID
 40
1.0
  9
$TEXTSTYLE
  7
Standard
  9
$CLAYER
  8
0
  9
$CELTYPE
  6
ByLayer
  9
$CECOLOR
 62
   256
  9
$CELTSCALE
 40
1.0
  9
$DISPSILH
 70
     0
  9
$DIMSCALE
 40
1.0
  9
$DIMASZ
 40
3.302
  9
$DIMEXO
 40
0.0
  9
$DIMDLI
 40
3.75
  9
$DIMRND
 40
0.0
  9
$DIMDLE
 40
0.0
  9
$DIMEXE
 40
1.0
  9
$DIMTP
 40
0.0
  9
$DIMTM
 40
0.0
  9
$DIMTXT
 40
3.5
  9
$DIMCEN
 40
2.5
  9
$DIMTSZ
 40
0.0
  9
$DIMTOL
 70
     0
  9
$DIMLIM
 70
     0
  9
$DIMTIH
 70
     1
  9
$DIMTOH
 70
     1
  9
$DIMSE1
 70
     0
  9
$DIMSE2
 70
     0
  9
$DIMTAD
 70
     1
  9
$DIMZIN
 70
     1
  9
$DIMBLK
  1

  9
$DIMASO
 70
     1
  9
$DIMSHO
 70
     1
  9
$DIMPOST
  1

  9
$DIMAPOST
  1

  9
$DIMALT
 70
     0
  9
$DIMALTD
 70
     3
  9
$DIMALTF
 40
0.0393700787
  9
$DIMLFAC
 40
1.0
  9
$DIMTOFL
 70
     1
  9
$DIMTVP
 40
0.0
  9
$DIMTIX
 70
     0
  9
$DIMSOXD
 70
     0
  9
$DIMSAH
 70
     0
  9
$DIMBLK1
  1

  9
$DIMBLK2
  1

  9
$DIMSTYLE
  2
ISO-25
  9
$DIMCLRD
 70
     0
  9
$DIMCLRE
 70
     0
  9
$DIMCLRT
 70
     0
  9
$DIMTFAC
 40
1.0
  9
$DIMGAP
 40
1.524
  9
$DIMJUST
 70
     0
  9
$DIMSD1
 70
     0
  9
$DIMSD2
 70
     0
  9
$DIMTOLJ
 70
     0
  9
$DIMTZIN
 70
     1
  9
$DIMALTZ
 70
     0
  9
$DIMALTTZ
 70
     0
  9
$DIMUPT
 70
     0
  9
$DIMDEC
 70
     2
  9
$DIMTDEC
 70
     2
  9
$DIMALTU
 70
     2
  9
$DIMALTTD
 70
     3
  9
$DIMTXSTY
  7
Standard
  9
$DIMAUNIT
 70
     0
  9
$DIMADEC
 70
     2
  9
$DIMALTRND
 40
0.0
  9
$DIMAZIN
 70
     0
  9
$DIMDSEP
 70
    44
  9
$DIMATFIT
 70
     3
  9
$DIMFRAC
 70
     0
  9
$DIMLDRBLK
  1

  9
$DIMLUNIT
 70
     2
  9
$DIMLWD
 70
    -2
  9
$DIMLWE
 70
    -2
  9
$DIMTMOVE
 70
     0
  9
$LUNITS
 70
     2
  9
$LUPREC
 70
     2
  9
$SKETCHINC
 40
1.0
  9
$FILLETRAD
 40
0.0
  9
$AUNITS
 70
     0
  9
$AUPREC
 70
     2
  9
$MENU
  1
.
  9
$ELEVATION
 40
0.0
  9
$PELEVATION
 40
0.0
  9
$THICKNESS
 40
0.0
  9
$LIMCHECK
 70
     0
  9
$CHAMFERA
 40
0.0
  9
$CHAMFERB
 40
0.0
  9
$CHAMFERC
 40
0.0
  9
$CHAMFERD
 40
0.0
  9
$SKPOLY
 70
     0
  9
$TDCREATE
 40
2460827.738378831
  9
$TDUCREATE
 40
2460827.655045498
  9
$TDUPDATE
 40
2460827.73858897
  9
$TDUUPDATE
 40
2460827.655255637
  9
$TDINDWG
 40
0.0000000116
  9
$TDUSRTIMER
 40
0.0000000116
  9
$USRTIMER
 70
     1
  9
$ANGBASE
 50
0.0
  9
$ANGDIR
 70
     0
  9
$PDMODE
 70
     0
  9
$PDSIZE
 40
-1.0
  9
$PLINEWID
 40
0.0
  9
$SPLFRAME
 70
     0
  9
$SPLINETYPE
 70
     6
  9
$SPLINESEGS
 70
     8
  9
$HANDSEED
  5
1DE
  9
$SURFTAB1
 70
     6
  9
$SURFTAB2
 70
     6
  9
$SURFTYPE
 70
     6
  9
$SURFU
 70
     6
  9
$SURFV
 70
     6
  9
$UCSBASE
  2

  9
$UCSNAME
  2

  9
$UCSORG
 10
0.0
 20
0.0
 30
0.0
  9
$UCSXDIR
 10
1.0
 20
0.0
 30
0.0
  9
$UCSYDIR
 10
0.0
 20
1.0
 30
0.0
  9
$UCSORTHOREF
  2

  9
$UCSORTHOVIEW
 70
     0
  9
$UCSORGTOP
 10
0.0
 20
0.0
 30
0.0
  9
$UCSORGBOTTOM
 10
0.0
 20
0.0
 30
0.0
  9
$UCSORGLEFT
 10
0.0
 20
0.0
 30
0.0
  9
$UCSORGRIGHT
 10
0.0
 20
0.0
 30
0.0
  9
$UCSORGFRONT
 10
0.0
 20
0.0
 30
0.0
  9
$UCSORGBACK
 10
0.0
 20
0.0
 30
0.0
  9
$PUCSBASE
  2

  9
$PUCSNAME
  2

  9
$PUCSORG
 10
0.0
 20
0.0
 30
0.0
  9
$PUCSXDIR
 10
1.0
 20
0.0
 30
0.0
  9
$PUCSYDIR
 10
0.0
 20
1.0
 30
0.0
  9
$PUCSORTHOREF
  2

  9
$PUCSORTHOVIEW
 70
     0
  9
$PUCSORGTOP
 10
0.0
 20
0.0
 30
0.0
  9
$PUCSORGBOTTOM
 10
0.0
 20
0.0
 30
0.0
  9
$PUCSORGLEFT
 10
0.0
 20
0.0
 30
0.0
  9
$PUCSORGRIGHT
 10
0.0
 20
0.0
 30
0.0
  9
$PUCSORGFRONT
 10
0.0
 20
0.0
 30
0.0
  9
$PUCSORGBACK
 10
0.0
 20
0.0
 30
0.0
  9
$USERI1
 70
     0
  9
$USERI2
 70
     0
  9
$USERI3
 70
     0
  9
$USERI4
 70
     0
  9
$USERI5
 70
     0
  9
$USERR1
 40
0.0
  9
$USERR2
 40
0.0
  9
$USERR3
 40
0.0
  9
$USERR4
 40
0.0
  9
$USERR5
 40
0.0
  9
$WORLDVIEW
 70
     1
  9
$SHADEDGE
 70
     3
  9
$SHADEDIF
 70
    70
  9
$TILEMODE
 70
     1
  9
$MAXACTVP
 70
    64
  9
$PINSBASE
 10
0.0
 20
0.0
 30
0.0
  9
$PLIMCHECK
 70
     0
  9
$PEXTMIN
 10
1.0000000000E+20
 20
1.0000000000E+20
 30
1.0000000000E+20
  9
$PEXTMAX
 10
-1.0000000000E+20
 20
-1.0000000000E+20
 30
-1.0000000000E+20
  9
$PLIMMIN
 10
0.0
 20
0.0
  9
$PLIMMAX
 10
420.0
 20
297.0
  9
$UNITMODE
 70
     0
  9
$VISRETAIN
 70
     1
  9
$PLINEGEN
 70
     0
  9
$PSLTSCALE
 70
     1
  9
$TREEDEPTH
 70
  3020
  9
$CMLSTYLE
  2
Standard
  9
$CMLJUST
 70
     0
  9
$CMLSCALE
 40
20.0
  9
$PROXYGRAPHICS
 70
     1
  9
$MEASUREMENT
 70
     1
  9
$CELWEIGHT
370
    -1
  9
$ENDCAPS
280
     0
  9
$JOINSTYLE
280
     0
  9
$LWDISPLAY
290
     1
  9
$INSUNITS
 70
     4
  9
$HYPERLINKBASE
  1

  9
$STYLESHEET
  1

  9
$XEDIT
290
     1
  9
$CEPSNTYPE
380
     0
  9
$PSTYLEMODE
290
     1
  9
$FINGERPRINTGUID
  2
{ce1b5d78-1b8b-400a-b1a8-684a6a4288d6}
  9
$VERSIONGUID
  2
{FAEB1C32-E019-11D5-929B-00C0DF256EC4}
  9
$EXTNAMES
290
     1
  9
$PSVPSCALE
 40
0.0
  9
$OLESTARTUP
290
     0
  0
ENDSEC
  0
SECTION
  2
CLASSES
  0
CLASS
  1
ACDBDICTIONARYWDFLT
  2
AcDbDictionaryWithDefault
  3
ObjectDBX Classes
 90
        0
280
     0
281
     0
  0
CLASS
  1
VISUALSTYLE
  2
AcDbVisualStyle
  3
ObjectDBX Classes
 90
     4095
280
     0
281
     0
  0
CLASS
  1
MATERIAL
  2
AcDbMaterial
  3
ObjectDBX Classes
 90
     1153
280
     0
281
     0
  0
CLASS
  1
SCALE
  2
AcDbScale
  3
ObjectDBX Classes
 90
     1153
280
     0
281
     0
  0
CLASS
  1
TABLESTYLE
  2
AcDbTableStyle
  3
ObjectDBX Classes
 90
     4095
280
     0
281
     0
  0
CLASS
  1
MLEADERSTYLE
  2
AcDbMLeaderStyle
  3
ACDB_MLEADERSTYLE_CLASS
 90
     4095
280
     0
281
     0
  0
CLASS
  1
SUN
  2
AcDbSun
  3
SCENEOE
 90
     1153
280
     0
281
     0
  0
CLASS
  1
ACDBPLACEHOLDER
  2
AcDbPlaceHolder
  3
ObjectDBX Classes
 90
        0
280
     0
281
     0
  0
CLASS
  1
LAYOUT
  2
AcDbLayout
  3
ObjectDBX Classes
 90
        0
280
     0
281
     0
  0
ENDSEC
  0
SECTION
  2
TABLES
  0
TABLE
  2
VPORT
  5
8
330
0
100
AcDbSymbolTable
 70
     1
  0
VPORT
  5
29
330
8
100
AcDbSymbolTableRecord
100
AcDbViewportTableRecord
  2
*Active
 70
     0
 10
0.0
 20
0.0
 11
1.0
 21
1.0
 12
0.0
 22
34.9623889804
 13
0.0
 23
0.0
 14
10.0
 24
10.0
 15
10.0
 25
10.0
 16
0.0
 26
0.0
 36
1.0
 17
0.0
 27
0.0
 37
0.0
 40
122.32327352
 41
1.6128841867
 42
50.0
 43
0.0
 44
0.0
 50
0.0
 51
0.0
 71
     0
 72
   100
 73
     1
 74
     3
 75
     0
 76
     0
 77
     0
 78
     0
281
     0
 65
     1
110
0.0
120
0.0
130
0.0
111
1.0
121
0.0
131
0.0
112
0.0
122
1.0
132
0.0
 79
     0
146
0.0
  0
ENDTAB
  0
TABLE
  2
LTYPE
  5
5
330
0
100
AcDbSymbolTable
 70
     6
  0
LTYPE
  5
14
330
5
100
AcDbSymbolTableRecord
100
AcDbLinetypeTableRecord
  2
ByBlock
 70
     0
  3

 72
    65
 73
     0
 40
0.0
  0
LTYPE
  5
15
330
5
100
AcDbSymbolTableRecord
100
AcDbLinetypeTableRecord
  2
ByLayer
 70
     0
  3

 72
    65
 73
     0
 40
0.0
  0
LTYPE
  5
16
330
5
100
AcDbSymbolTableRecord
100
AcDbLinetypeTableRecord
  2
Continuous
 70
     0
  3
Solid line
 72
    65
 73
     0
 40
0.0
  0
LTYPE
  5
5E
330
5
100
AcDbSymbolTableRecord
100
AcDbLinetypeTableRecord
  2
HIDDEN
 70
     0
  3
Hidden __ __ __ __ __ __ __ __ __ __ __ __ __ __
 72
    65
 73
     2
 40
1.905
 49
1.27
 74
     0
 49
-0.635
 74
     0
  0
LTYPE
  5
5F
330
5
100
AcDbSymbolTableRecord
100
AcDbLinetypeTableRecord
  2
PHANTOM
 70
     0
  3
Phantom ______  __  __  ______  __  __  ______
 72
    65
 73
     6
 40
12.7
 49
6.35
 74
     0
 49
-1.27
 74
     0
 49
1.27
 74
     0
 49
-1.27
 74
     0
 49
1.27
 74
     0
 49
-1.27
 74
     0
  0
LTYPE
  5
60
330
5
100
AcDbSymbolTableRecord
100
AcDbLinetypeTableRecord
  2
CENTER
 70
     0
  3
Center ____ _ ____ _ ____ _ ____ _ ____ _ ____
 72
    65
 73
     4
 40
10.16
 49
6.35
 74
     0
 49
-1.27
 74
     0
 49
1.27
 74
     0
 49
-1.27
 74
     0
  0
LTYPE
  5
61
330
5
100
AcDbSymbolTableRecord
100
AcDbLinetypeTableRecord
  2
CENTERX2
 70
     0
  3
Center (2x) ________  __  ________  __  _____
 72
    65
 73
     4
 40
20.32
 49
12.7
 74
     0
 49
-2.54
 74
     0
 49
2.54
 74
     0
 49
-2.54
 74
     0
  0
LTYPE
  5
62
330
5
100
AcDbSymbolTableRecord
100
AcDbLinetypeTableRecord
  2
DOT2
 70
     0
  3
Dot (.5x) ........................................
 72
    65
 73
     2
 40
0.635
 49
0.0
 74
     0
 49
-0.635
 74
     0
  0
ENDTAB
  0
TABLE
  2
LAYER
  5
2
330
0
100
AcDbSymbolTable
 70
     1
  0
LAYER
  5
10
330
2
100
AcDbSymbolTableRecord
100
AcDbLayerTableRecord
  2
0
 70
     0
 62
     7
  6
Continuous
370
    -3
390
F
  0
ENDTAB
  0
TABLE
  2
STYLE
  5
3
330
0
100
AcDbSymbolTable
 70
     1
  0
STYLE
  5
11
330
3
100
AcDbSymbolTableRecord
100
AcDbTextStyleTableRecord
  2
Standard
 70
     0
 40
0.0
 41
1.0
 50
0.0
 71
     0
 42
3.5
  3
txt
  4

  0
ENDTAB
  0
TABLE
  2
VIEW
  5
6
330
0
100
AcDbSymbolTable
 70
     0
  0
ENDTAB
  0
TABLE
  2
UCS
  5
7
330
0
100
AcDbSymbolTable
 70
     0
  0
ENDTAB
  0
TABLE
  2
APPID
  5
9
330
0
100
AcDbSymbolTable
 70
     1
  0
APPID
  5
12
330
9
100
AcDbSymbolTableRecord
100
AcDbRegAppTableRecord
  2
ACAD
 70
     0
  0
ENDTAB
  0
TABLE
  2
DIMSTYLE
  5
A
330
0
100
AcDbSymbolTable
 70
     1
100
AcDbDimStyleTable
  0
DIMSTYLE
105
27
330
A
100
AcDbSymbolTableRecord
100
AcDbDimStyleTableRecord
  2
ISO-25
 70
     0
 41
2.5
 42
0.625
 43
3.75
 44
1.25
 73
     0
 74
     0
 77
     1
 78
     8
140
2.5
141
2.5
143
0.0393700787
147
0.625
171
     3
172
     1
178
     0
271
     2
272
     2
274
     3
278
    44
283
     0
284
     8
340
11
  0
ENDTAB
  0
TABLE
  2
BLOCK_RECORD
  5
1
330
0
100
AcDbSymbolTable
 70
     1
  0
BLOCK_RECORD
  5
1F
330
1
100
AcDbSymbolTableRecord
100
AcDbBlockTableRecord
  2
*Model_Space
340
22
  0
BLOCK_RECORD
  5
1B
330
1
100
AcDbSymbolTableRecord
100
AcDbBlockTableRecord
  2
*Paper_Space
340
1E
  0
BLOCK_RECORD
  5
23
330
1
100
AcDbSymbolTableRecord
100
AcDbBlockTableRecord
  2
*Paper_Space0
340
26
  0
ENDTAB
  0
ENDSEC
  0
SECTION
  2
BLOCKS
  0
BLOCK
  5
20
330
1F
100
AcDbEntity
  8
0
100
AcDbBlockBegin
  2
*Model_Space
 70
     0
 10
0.0
 20
0.0
 30
0.0
  3
*Model_Space
  1

  0
ENDBLK
  5
21
330
1F
100
AcDbEntity
  8
0
100
AcDbBlockEnd
  0
BLOCK
  5
1C
330
1B
100
AcDbEntity
 67
     1
  8
0
100
AcDbBlockBegin
  2
*Paper_Space
 70
     0
 10
0.0
 20
0.0
 30
0.0
  3
*Paper_Space
  1

  0
ENDBLK
  5
1D
330
1B
100
AcDbEntity
 67
     1
  8
0
100
AcDbBlockEnd
  0
BLOCK
  5
24
330
23
100
AcDbEntity
  8
0
100
AcDbBlockBegin
  2
*Paper_Space0
 70
     0
 10
0.0
 20
0.0
 30
0.0
  3
*Paper_Space0
  1

  0
ENDBLK
  5
25
330
23
100
AcDbEntity
  8
0
100
AcDbBlockEnd
  0
ENDSEC
  0
SECTION
  2
ENTITIES
  0
LINE
  5
63
330
1F
100
AcDbEntity
  8
0
  6
Continuous
 62
     7
100
AcDbLine
 10
-48.3561944902
 20
-25.0
 30
0.0
 11
-48.3561944902
 21
25.0
 31
0.0
  0
LINE
  5
64
330
1F
100
AcDbEntity
  8
0
  6
Continuous
 62
     7
100
AcDbLine
 10
48.3561944902
 20
25.0
 30
0.0
 11
48.3561944902
 21
-25.0
 31
0.0
  0
LINE
  5
65
330
1F
100
AcDbEntity
  8
0
  6
Continuous
 62
     7
100
AcDbLine
 10
-35.0
 20
53.3561944902
 30
0.0
 11
-25.0
 21
53.3561944902
 31
0.0
  0
LINE
  5
66
330
1F
100
AcDbEntity
  8
0
  6
Continuous
 62
     7
100
AcDbLine
 10
-35.0
 20
62.0685834706
 30
0.0
 11
-25.0
 21
62.0685834706
 31
0.0
  0
LINE
  5
67
330
1F
100
AcDbEntity
  8
0
  6
Continuous
 62
     7
100
AcDbLine
 10
25.0
 20
62.0685834706
 30
0.0
 11
35.0
 21
62.0685834706
 31
0.0
  0
LINE
  5
68
330
1F
100
AcDbEntity
  8
0
  6
Continuous
 62
     7
100
AcDbLine
 10
25.0
 20
53.3561944902
 30
0.0
 11
35.0
 21
53.3561944902
 31
0.0
  0
LINE
  5
69
330
1F
100
AcDbEntity
  8
0
  6
HIDDEN
 62
     7
100
AcDbLine
 10
29.6438055098
 20
-8.0
 30
0.0
 11
29.6438055098
 21
8.0
 31
0.0
  0
LINE
  5
6A
330
1F
100
AcDbEntity
  8
0
  6
HIDDEN
 62
     7
100
AcDbLine
 10
-29.6438055098
 20
8.0
 30
0.0
 11
-29.6438055098
 21
-8.0
 31
0.0
  0
LINE
  5
6B
330
1F
100
AcDbEntity
  8
0
  6
Continuous
 62
     7
100
AcDbLine
 10
-21.9314165294
 20
8.0
 30
0.0
 11
-21.9314165294
 21
-8.0
 31
0.0
  0
LINE
  5
6C
330
1F
100
AcDbEntity
  8
0
  6
Continuous
 62
     7
100
AcDbLine
 10
21.9314165294
 20
-8.0
 30
0.0
 11
21.9314165294
 21
8.0
 31
0.0
  0
LINE
  5
6D
330
1F
100
AcDbEntity
  8
0
  6
HIDDEN
 62
     7
100
AcDbLine
 10
-7.5
 20
79.0685834706
 30
0.0
 11
7.5
 21
79.0685834706
 31
0.0
  0
LINE
  5
6E
330
1F
100
AcDbEntity
  8
0
  6
Continuous
 62
     7
100
AcDbLine
 10
-7.5
 20
65.3561944902
 30
0.0
 11
7.5
 21
65.3561944902
 31
0.0
  0
LINE
  5
6F
330
1F
100
AcDbEntity
  8
0
  6
CENTERX2
 62
     7
100
AcDbLine
 10
96.7123708385
 20
94.924753602
 30
0.0
 11
-96.7123708385
 21
94.924753602
 31
0.0
  0
LINE
  5
70
330
1F
100
AcDbEntity
  8
0
  6
CENTERX2
 62
     7
100
AcDbLine
 10
96.7123708385
 20
-25.0
 30
0.0
 11
-96.7123708385
 21
-25.0
 31
0.0
  0
LINE
  5
71
330
1F
100
AcDbEntity
  8
0
  6
CENTERX2
 62
     7
100
AcDbLine
 10
96.7123708385
 20
94.924753602
 30
0.0
 11
96.7123708385
 21
-25.0
 31
0.0
  0
LINE
  5
72
330
1F
100
AcDbEntity
  8
0
  6
CENTERX2
 62
     7
100
AcDbLine
 10
-96.7123708385
 20
94.924753602
 30
0.0
 11
-96.7123708385
 21
-25.0
 31
0.0
  0
CIRCLE
  5
7F
330
1F
100
AcDbEntity
  8
0
  6
Continuous
 62
     7
370
    25
100
AcDbCircle
 10
71.7123889804
 20
0.0
 30
0.0
 40
9.999999999999986
  0
SPLINE
  5
89
330
1F
100
AcDbEntity
  8
0
  6
Continuous
 62
     7
370
    25
100
AcDbSpline
210
0.0
220
0.0
230
1.0
 70
     8
 71
     3
 72
    13
 73
     9
 74
     0
 42
0.00000001
 43
0.00000001
 40
0.18316016224486
 40
0.18316016224486
 40
0.18316016224486
 40
0.18316016224486
 40
0.1874999999999999
 40
0.2187499999999999
 40
0.2499999999999999
 40
0.2812499999999999
 40
0.3124999999999999
 40
0.3168398377551401
 40
0.3168398377551401
 40
0.3168398377551401
 40
0.3168398377551401
 10
-85.40891333124414
 20
-6.11594791976737
 30
0.0
 10
-85.46450980945946
 20
-5.991459267751916
 30
0.0
 10
-85.90650884444088
 20
-4.964341865437281
 30
0.0
 10
-86.51900316635347
 20
-2.945218680608277
 30
0.0
 10
-86.8090818874003
 20
-0.0000000000000069
 30
0.0
 10
-86.51900316635347
 20
2.945218680608277
 30
0.0
 10
-85.90650884444089
 20
4.964341865437292
 30
0.0
 10
-85.46450980945947
 20
5.991459267751929
 30
0.0
 10
-85.40891333124414
 20
6.115947919767394
 30
0.0
  0
SPLINE
  5
92
330
1F
100
AcDbEntity
  8
0
  6
Continuous
 62
     7
370
    25
100
AcDbSpline
210
0.0
220
0.0
230
1.0
 70
     8
 71
     3
 72
    13
 73
     9
 74
     0
 42
0.00000001
 43
0.00000001
 40
0.6831601622448594
 40
0.6831601622448594
 40
0.6831601622448594
 40
0.6831601622448594
 40
0.6874999999999999
 40
0.7187499999999999
 40
0.75
 40
0.78125
 40
0.8125
 40
0.8168398377551399
 40
0.8168398377551399
 40
0.8168398377551399
 40
0.8168398377551399
 10
-58.01586462952526
 20
6.115947919767425
 30
0.0
 10
-57.96026815130993
 20
5.99145926775195
 30
0.0
 10
-57.51826911632851
 20
4.964341865437309
 30
0.0
 10
-56.90577479441593
 20
2.945218680608271
 30
0.0
 10
-56.61569607336908
 20
0.0000000000000069
 30
0.0
 10
-56.90577479441593
 20
-2.945218680608277
 30
0.0
 10
-57.5182691163285
 20
-4.964341865437281
 30
0.0
 10
-57.96026815130993
 20
-5.991459267751916
 30
0.0
 10
-58.01586462952525
 20
-6.11594791976737
 30
0.0
  0
SPLINE
  5
97
330
1F
100
AcDbEntity
  8
0
  6
Continuous
 62
     7
370
    25
100
AcDbSpline
210
0.0
220
0.0
230
1.0
 70
     8
 71
     3
 72
    12
 73
     8
 74
     0
 42
0.00000001
 43
0.00000001
 40
0.8498275429717953
 40
0.8498275429717953
 40
0.8498275429717953
 40
0.8498275429717953
 40
0.8749999999999999
 40
0.90625
 40
0.9374999999999999
 40
0.9687499999999999
 40
0.9835061759255677
 40
0.9835061759255677
 40
0.9835061759255677
 40
0.9835061759255677
 10
-59.56760410741581
 20
-8.803607819788603
 30
0.0
 10
-60.03177775143736
 20
-9.443864187093338
 30
0.0
 10
-61.18572011372465
 20
-10.79668474648997
 30
0.0
 10
-63.32511578420864
 20
-12.55244139844685
 30
0.0
 10
-65.93513472136625
 20
-13.94752558540004
 30
0.0
 10
-68.26891860267956
 20
-14.65547118605271
 30
0.0
 10
-69.69957548980732
 20
-14.8715118219741
 30
0.0
 10
-70.16066918280775
 20
-14.91946439711044
 30
0.0
  0
SPLINE
  5
9C
330
1F
100
AcDbEntity
  8
0
  6
Continuous
 62
     7
370
    25
100
AcDbSpline
210
0.0
220
0.0
230
1.0
 70
     8
 71
     3
 72
    12
 73
     8
 74
     0
 42
0.00000001
 43
0.00000001
 40
0.3498275429717952
 40
0.3498275429717952
 40
0.3498275429717952
 40
0.3498275429717952
 40
0.3749999999999999
 40
0.4062499999999999
 40
0.4374999999999999
 40
0.4687499999999998
 40
0.4835061759255677
 40
0.4835061759255677
 40
0.4835061759255677
 40
0.4835061759255677
 10
-83.85717385335357
 20
8.803607819788603
 30
0.0
 10
-83.39300020933204
 20
9.443864187093334
 30
0.0
 10
-82.23905784704472
 20
10.79668474648997
 30
0.0
 10
-80.09966217656073
 20
12.55244139844686
 30
0.0
 10
-77.48964323940314
 20
13.94752558540004
 30
0.0
 10
-75.15585935808983
 20
14.65547118605271
 30
0.0
 10
-73.72520247096206
 20
14.8715118219741
 30
0.0
 10
-73.26410877796164
 20
14.91946439711045
 30
0.0
  0
SPLINE
  5
A1
330
1F
100
AcDbEntity
  8
0
  6
Continuous
 62
     7
370
    25
100
AcDbSpline
210
0.0
220
0.0
230
1.0
 70
     8
 71
     3
 72
    12
 73
     8
 74
     0
 42
0.00000001
 43
0.00000001
 40
0.516493824074432
 40
0.516493824074432
 40
0.516493824074432
 40
0.516493824074432
 40
0.5312499999999999
 40
0.5624999999999999
 40
0.5937499999999999
 40
0.6249999999999999
 40
0.6501724570282041
 40
0.6501724570282041
 40
0.6501724570282041
 40
0.6501724570282041
 10
-70.16066918280778
 20
14.91946439711045
 30
0.0
 10
-69.69957548980733
 20
14.8715118219741
 30
0.0
 10
-68.26891860267956
 20
14.65547118605271
 30
0.0
 10
-65.93513472136627
 20
13.94752558540005
 30
0.0
 10
-63.32511578420866
 20
12.55244139844686
 30
0.0
 10
-61.18572011372466
 20
10.79668474648999
 30
0.0
 10
-60.03177775143737
 20
9.443864187093357
 30
0.0
 10
-59.56760410741582
 20
8.803607819788638
 30
0.0
  0
SPLINE
  5
AA
330
1F
100
AcDbEntity
  8
0
  6
Continuous
 62
     7
370
    25
100
AcDbSpline
210
0.0
220
0.0
230
1.0
 70
     8
 71
     3
 72
    12
 73
     8
 74
     0
 42
0.00000001
 43
0.00000001
 40
0.016493824074432
 40
0.016493824074432
 40
0.016493824074432
 40
0.016493824074432
 40
0.03125
 40
0.0625
 40
0.09375
 40
0.125
 40
0.1501724570282047
 40
0.1501724570282047
 40
0.1501724570282047
 40
0.1501724570282047
 10
-73.26410877796161
 20
-14.91946439711045
 30
0.0
 10
-73.72520247096205
 20
-14.8715118219741
 30
0.0
 10
-75.15585935808981
 20
-14.65547118605271
 30
0.0
 10
-77.48964323940314
 20
-13.94752558540004
 30
0.0
 10
-80.09966217656074
 20
-12.55244139844686
 30
0.0
 10
-82.23905784704473
 20
-10.79668474648997
 30
0.0
 10
-83.39300020933204
 20
-9.443864187093338
 30
0.0
 10
-83.8571738533536
 20
-8.80360781978861
 30
0.0
  0
CIRCLE
  5
BA
330
1F
100
AcDbEntity
  8
0
  6
Continuous
 62
     7
370
    25
100
AcDbCircle
 10
-30.0
 20
72.4247779608
 30
0.0
 40
2.500000000000028
  0
CIRCLE
  5
BB
330
1F
100
AcDbEntity
  8
0
  6
Continuous
 62
     7
370
    25
100
AcDbCircle
 10
30.0
 20
72.4247779608
 30
0.0
 40
2.5
  0
CIRCLE
  5
BC
330
1F
100
AcDbEntity
  8
0
  6
Continuous
 62
     7
370
    25
100
AcDbCircle
 10
-10.0
 20
0.0
 30
0.0
 40
3.5
  0
CIRCLE
  5
BD
330
1F
100
AcDbEntity
  8
0
  6
Continuous
 62
     7
370
    25
100
AcDbCircle
 10
10.0
 20
0.0
 30
0.0
 40
3.5
  0
CIRCLE
  5
BE
330
1F
100
AcDbEntity
  8
0
  6
Continuous
 62
     7
370
    25
100
AcDbCircle
 10
0.0
 20
87.4247779608
 30
0.0
 40
3.000000000000003
  0
SPLINE
  5
EA
330
1F
100
AcDbEntity
  8
0
  6
Continuous
 62
     7
370
    25
100
AcDbSpline
210
0.0
220
0.0
230
1.0
 70
     8
 71
     3
 72
    12
 73
     8
 74
     0
 42
0.00000001
 43
0.00000001
 40
0.8524777859193505
 40
0.8524777859193505
 40
0.8524777859193505
 40
0.8524777859193505
 40
0.8749999999999999
 40
0.90625
 40
0.9374999999999999
 40
0.9687499999999999
 40
0.9808550122550587
 40
0.9808550122550587
 40
0.9808550122550587
 40
0.9808550122550587
 10
-62.11519015340773
 20
-7.203682772596837
 30
0.0
 10
-62.45501710204602
 20
-7.656368188807668
 30
0.0
 10
-63.34279116902568
 20
-8.679807487199078
 30
0.0
 10
-65.00257042344386
 20
-10.04195311875748
 30
0.0
 10
-67.09058557316993
 20
-11.15802046832003
 30
0.0
 10
-68.89354279159386
 20
-11.70494156121485
 30
0.0
 10
-69.97033736381951
 20
-11.87674402784469
 30
0.0
 10
-70.2723729348801
 20
-11.91324220194983
 30
0.0
  0
SPLINE
  5
F2
330
1F
100
AcDbEntity
  8
0
  6
Continuous
 62
     7
370
    25
100
AcDbSpline
210
0.0
220
0.0
230
1.0
 70
     8
 71
     3
 72
    12
 73
     8
 74
     0
 42
0.00000001
 43
0.00000001
 40
0.3524777859193502
 40
0.3524777859193502
 40
0.3524777859193502
 40
0.3524777859193502
 40
0.3749999999999998
 40
0.4062499999999999
 40
0.4374999999999999
 40
0.4687499999999999
 40
0.4808550122550586
 40
0.4808550122550586
 40
0.4808550122550586
 40
0.4808550122550586
 10
-81.30958780736167
 20
7.203682772596819
 30
0.0
 10
-80.96976085872338
 20
7.656368188807661
 30
0.0
 10
-80.08198679174372
 20
8.679807487199078
 30
0.0
 10
-78.42220753732552
 20
10.04195311875749
 30
0.0
 10
-76.33419238759944
 20
11.15802046832003
 30
0.0
 10
-74.53123516917553
 20
11.70494156121485
 30
0.0
 10
-73.4544405969499
 20
11.87674402784469
 30
0.0
 10
-73.15240502588931
 20
11.91324220194983
 30
0.0
  0
SPLINE
  5
F5
330
1F
100
AcDbEntity
  8
0
  6
Continuous
 62
     7
370
    25
100
AcDbSpline
210
0.0
220
0.0
230
1.0
 70
     8
 71
     3
 72
    12
 73
     8
 74
     0
 42
0.00000001
 43
0.00000001
 40
0.5191449877449411
 40
0.5191449877449411
 40
0.5191449877449411
 40
0.5191449877449411
 40
0.53125
 40
0.5624999999999999
 40
0.5937499999999999
 40
0.6249999999999999
 40
0.6475222140806491
 40
0.6475222140806491
 40
0.6475222140806491
 40
0.6475222140806491
 10
-70.2723729348801
 20
11.91324220194983
 30
0.0
 10
-69.9703373638195
 20
11.87674402784469
 30
0.0
 10
-68.89354279159386
 20
11.70494156121485
 30
0.0
 10
-67.09058557316993
 20
11.15802046832003
 30
0.0
 10
-65.00257042344387
 20
10.04195311875749
 30
0.0
 10
-63.34279116902569
 20
8.679807487199085
 30
0.0
 10
-62.45501710204604
 20
7.656368188807681
 30
0.0
 10
-62.11519015340775
 20
7.203682772596847
 30
0.0
  0
SPLINE
  5
F7
330
1F
100
AcDbEntity
  8
0
  6
Continuous
 62
     7
370
    25
100
AcDbSpline
210
0.0
220
0.0
230
1.0
 70
     8
 71
     3
 72
    12
 73
     8
 74
     0
 42
0.00000001
 43
0.00000001
 40
0.3585688461741433
 40
0.3585688461741433
 40
0.3585688461741433
 40
0.3585688461741433
 40
0.3750000000000001
 40
0.4062500000000001
 40
0.4375000000000001
 40
0.46875
 40
0.4747651717215884
 40
0.4747651717215884
 40
0.4747651717215884
 40
0.4747651717215884
 10
-79.4744976474065
 20
6.304672202582049
 30
0.0
 10
-79.25752914455896
 20
6.571792332109139
 30
0.0
 10
-78.58796388183114
 20
7.314493919251857
 30
0.0
 10
-77.30390444450205
 20
8.368294265631238
 30
0.0
 10
-75.56389181973032
 20
9.298350390266698
 30
0.0
 10
-74.18407028034245
 20
9.716914678209989
 30
0.0
 10
-73.41570677811023
 20
9.854665458120314
 30
0.0
 10
-73.29130483642226
 20
9.874549252543254
 30
0.0
  0
SPLINE
  5
FA
330
1F
100
AcDbEntity
  8
0
  6
Continuous
 62
     7
370
    25
100
AcDbSpline
210
0.0
220
0.0
230
1.0
 70
     8
 71
     3
 72
    12
 73
     8
 74
     0
 42
0.00000001
 43
0.00000001
 40
0.0191449877449414
 40
0.0191449877449414
 40
0.0191449877449414
 40
0.0191449877449414
 40
0.03125
 40
0.0625
 40
0.09375
 40
0.125
 40
0.1475222140806496
 40
0.1475222140806496
 40
0.1475222140806496
 40
0.1475222140806496
 10
-73.15240502588932
 20
-11.91324220194983
 30
0.0
 10
-73.45444059694991
 20
-11.87674402784469
 30
0.0
 10
-74.53123516917553
 20
-11.70494156121485
 30
0.0
 10
-76.33419238759944
 20
-11.15802046832003
 30
0.0
 10
-78.4222075373255
 20
-10.04195311875749
 30
0.0
 10
-80.08198679174372
 20
-8.67980748719907
 30
0.0
 10
-80.96976085872338
 20
-7.656368188807661
 30
0.0
 10
-81.30958780736167
 20
-7.203682772596816
 30
0.0
  0
SPLINE
  5
FB
330
1F
100
AcDbEntity
  8
0
  6
Continuous
 62
     7
370
    25
100
AcDbSpline
210
0.0
220
0.0
230
1.0
 70
     8
 71
     3
 72
    12
 73
     8
 74
     0
 42
0.00000001
 43
0.00000001
 40
0.3615676480429945
 40
0.3615676480429945
 40
0.3615676480429945
 40
0.3615676480429945
 40
0.3750000000000001
 40
0.4062500000000001
 40
0.4375000000000001
 40
0.4687500000000001
 40
0.4717655674106288
 40
0.4717655674106288
 40
0.4717655674106288
 40
0.4717655674106288
 10
-77.82594514968412
 20
5.159840139474719
 30
0.0
 10
-77.68078796894044
 20
5.331835017676811
 30
0.0
 10
-77.17382106876624
 20
5.883624450012455
 30
0.0
 10
-76.18560135167859
 20
6.694635412504993
 30
0.0
 10
-74.7935912518612
 20
7.438680312213355
 30
0.0
 10
-73.73806105255592
 20
7.758871897620007
 30
0.0
 10
-73.17390775849256
 20
7.865525487465081
 30
0.0
 10
-73.12417437330537
 20
7.874439744536575
 30
0.0
  0
SPLINE
  5
FF
330
1F
100
AcDbEntity
  8
0
  6
Continuous
 62
     7
370
    25
100
AcDbSpline
210
0.0
220
0.0
230
1.0
 70
     8
 71
     3
 72
    13
 73
     9
 74
     0
 42
0.00000001
 43
0.00000001
 40
0.1858115698725214
 40
0.1858115698725214
 40
0.1858115698725214
 40
0.1858115698725214
 40
0.1874999999999999
 40
0.2187499999999999
 40
0.2499999999999999
 40
0.2812499999999999
 40
0.3124999999999999
 40
0.3141884301274785
 40
0.3141884301274785
 40
0.3141884301274785
 40
0.3141884301274785
 10
-82.74960165379245
 20
-4.709553001918907
 30
0.0
 10
-82.76625676593596
 20
-4.67052355221656
 30
0.0
 10
-83.08712204767987
 20
-3.907397710082902
 30
0.0
 10
-83.5576803291597
 20
-2.356174944486623
 30
0.0
 10
-83.7897433059972
 20
0.0
 30
0.0
 10
-83.5576803291597
 20
2.356174944486623
 30
0.0
 10
-83.08712204767987
 20
3.907397710082906
 30
0.0
 10
-82.76625676593598
 20
4.670523552216567
 30
0.0
 10
-82.74960165379247
 20
4.709553001918914
 30
0.0
  0
SPLINE
  5
101
330
1F
100
AcDbEntity
  8
0
  6
Continuous
 62
     7
370
    25
100
AcDbSpline
210
0.0
220
0.0
230
1.0
 70
     8
 71
     3
 72
    13
 73
     9
 74
     0
 42
0.00000001
 43
0.00000001
 40
0.6858115698725208
 40
0.6858115698725208
 40
0.6858115698725208
 40
0.6858115698725208
 40
0.6874999999999998
 40
0.7187499999999998
 40
0.7499999999999999
 40
0.7812499999999999
 40
0.8125
 40
0.8141884301274785
 40
0.8141884301274785
 40
0.8141884301274785
 40
0.8141884301274785
 10
-60.67517630697693
 20
4.709553001918949
 30
0.0
 10
-60.65852119483343
 20
4.670523552216591
 30
0.0
 10
-60.33765591308954
 20
3.90739771008292
 30
0.0
 10
-59.86709763160967
 20
2.356174944486623
 30
0.0
 10
-59.6350346547722
 20
0.0000000000000069
 30
0.0
 10
-59.86709763160967
 20
-2.356174944486623
 30
0.0
 10
-60.33765591308952
 20
-3.907397710082902
 30
0.0
 10
-60.65852119483341
 20
-4.670523552216567
 30
0.0
 10
-60.67517630697691
 20
-4.709553001918914
 30
0.0
  0
SPLINE
  5
104
330
1F
100
AcDbEntity
  8
0
  6
Continuous
 62
     7
370
    25
100
AcDbSpline
210
0.0
220
0.0
230
1.0
 70
     8
 71
     3
 72
    12
 73
     8
 74
     0
 42
0.00000001
 43
0.00000001
 40
0.0252348282784121
 40
0.0252348282784121
 40
0.0252348282784121
 40
0.0252348282784121
 40
0.03125
 40
0.0625
 40
0.09375
 40
0.1249999999999999
 40
0.1414311538258568
 40
0.1414311538258568
 40
0.1414311538258568
 40
0.1414311538258568
 10
-73.2913048364223
 20
-9.874549252543254
 30
0.0
 10
-73.41570677811026
 20
-9.85466545812031
 30
0.0
 10
-74.18407028034245
 20
-9.716914678209982
 30
0.0
 10
-75.56389181973032
 20
-9.298350390266698
 30
0.0
 10
-77.30390444450205
 20
-8.368294265631238
 30
0.0
 10
-78.58796388183116
 20
-7.314493919251854
 30
0.0
 10
-79.25752914455896
 20
-6.571792332109132
 30
0.0
 10
-79.4744976474065
 20
-6.304672202582038
 30
0.0
  0
SPLINE
  5
105
330
1F
100
AcDbEntity
  8
0
  6
Continuous
 62
     7
370
    25
100
AcDbSpline
210
0.0
220
0.0
230
1.0
 70
     8
 71
     3
 72
    11
 73
     7
 74
     0
 42
0.00000001
 43
0.00000001
 40
0.1919025194103108
 40
0.1919025194103108
 40
0.1919025194103108
 40
0.1919025194103108
 40
0.21875
 40
0.25
 40
0.28125
 40
0.3080974805896897
 40
0.3080974805896897
 40
0.3080974805896897
 40
0.3080974805896897
 10
-81.05348443891667
 20
-3.569839315153221
 30
0.0
 10
-81.25418377130204
 20
-3.044588031924395
 30
0.0
 10
-81.59254654223001
 20
-1.871273734386045
 30
0.0
 10
-81.7768509183951
 20
0.0
 30
0.0
 10
-81.59254654223002
 20
1.871273734386059
 30
0.0
 10
-81.25418377130205
 20
3.044588031924415
 30
0.0
 10
-81.05348443891667
 20
3.569839315153256
 30
0.0
  0
SPLINE
  5
110
330
1F
100
AcDbEntity
  8
0
  6
Continuous
 62
     7
370
    25
100
AcDbSpline
210
0.0
220
0.0
230
1.0
 70
     8
 71
     3
 72
    11
 73
     7
 74
     0
 42
0.00000001
 43
0.00000001
 40
0.6949002160368035
 40
0.6949002160368035
 40
0.6949002160368035
 40
0.6949002160368035
 40
0.71875
 40
0.75
 40
0.78125
 40
0.805099783963196
 40
0.805099783963196
 40
0.805099783963196
 40
0.805099783963196
 10
-64.18705931728857
 20
2.714618253776238
 30
0.0
 10
-64.05148457748987
 20
2.338713329506366
 30
0.0
 10
-63.80331605515519
 20
1.446792515099847
 30
0.0
 10
-63.66081942997637
 20
0.0000000000000069
 30
0.0
 10
-63.80331605515519
 20
-1.44679251509984
 30
0.0
 10
-64.05148457748987
 20
-2.338713329506352
 30
0.0
 10
-64.18705931728857
 20
-2.714618253776217
 30
0.0
  0
SPLINE
  5
112
330
1F
100
AcDbEntity
  8
0
  6
Continuous
 62
     7
370
    25
100
AcDbSpline
210
0.0
220
0.0
230
1.0
 70
     8
 71
     3
 72
     9
 73
     5
 74
     0
 42
0.00000001
 43
0.00000001
 40
0.7371260118801961
 40
0.7371260118801961
 40
0.7371260118801961
 40
0.7371260118801961
 40
0.7499997065138773
 40
0.7628734887708647
 40
0.7628734887708647
 40
0.7628734887708647
 40
0.7628734887708647
 10
-68.7220067736543
 20
0.2424800937228244
 30
0.0
 10
-68.71557841108117
 20
0.1618341735602352
 30
0.0
 10
-68.70919981912088
 20
-0.0000007004938365
 30
0.0
 10
-68.71557787221205
 20
-0.1618349755815041
 30
0.0
 10
-68.72200615224621
 20
-0.2424810739898933
 30
0.0
  0
SPLINE
  5
116
330
1F
100
AcDbEntity
  8
0
  6
Continuous
 62
     7
370
    25
100
AcDbSpline
210
0.0
220
0.0
230
1.0
 70
     8
 71
     3
 72
    11
 73
     7
 74
     0
 42
0.00000001
 43
0.00000001
 40
0.1949002160368039
 40
0.1949002160368039
 40
0.1949002160368039
 40
0.1949002160368039
 40
0.21875
 40
0.25
 40
0.28125
 40
0.3050997839631955
 40
0.3050997839631955
 40
0.3050997839631955
 40
0.3050997839631955
 10
-79.2377186434808
 20
-2.714618253776217
 30
0.0
 10
-79.37329338327952
 20
-2.338713329506352
 30
0.0
 10
-79.62146190561418
 20
-1.446792515099847
 30
0.0
 10
-79.76395853079302
 20
0.0
 30
0.0
 10
-79.6214619056142
 20
1.446792515099833
 30
0.0
 10
-79.37329338327953
 20
2.338713329506331
 30
0.0
 10
-79.23771864348083
 20
2.71461825377619
 30
0.0
  0
SPLINE
  5
119
330
1F
100
AcDbEntity
  8
0
  6
Continuous
 62
     7
370
    25
100
AcDbSpline
210
0.0
220
0.0
230
1.0
 70
     8
 71
     3
 72
    12
 73
     8
 74
     0
 42
0.00000001
 43
0.00000001
 40
0.5282344325893714
 40
0.5282344325893714
 40
0.5282344325893714
 40
0.5282344325893714
 40
0.5312500000000001
 40
0.5625000000000001
 40
0.5937500000000001
 40
0.6250000000000001
 40
0.6384323519570051
 40
0.6384323519570051
 40
0.6384323519570051
 40
0.6384323519570051
 10
-70.30060358746402
 20
7.874439744536575
 30
0.0
 10
-70.25087020227683
 20
7.865525487465081
 30
0.0
 10
-69.68671690821346
 20
7.75887189762001
 30
0.0
 10
-68.63118670890819
 20
7.438680312213362
 30
0.0
 10
-67.23917660909082
 20
6.694635412504993
 30
0.0
 10
-66.25095689200316
 20
5.883624450012462
 30
0.0
 10
-65.74398999182898
 20
5.331835017676829
 30
0.0
 10
-65.59883281108529
 20
5.159840139474743
 30
0.0
  0
SPLINE
  5
11B
330
1F
100
AcDbEntity
  8
0
  6
Continuous
 62
     7
370
    25
100
AcDbSpline
210
0.0
220
0.0
230
1.0
 70
     8
 71
     3
 72
     9
 73
     5
 74
     0
 42
0.00000001
 43
0.00000001
 40
0.5705103728883538
 40
0.5705103728883538
 40
0.5705103728883538
 40
0.5705103728883538
 40
0.5937348822498141
 40
0.5961775308443605
 40
0.5961775308443605
 40
0.5961775308443605
 40
0.5961775308443605
 10
-70.42626748855312
 20
2.710425189646905
 30
0.0
 10
-70.29433130792404
 20
2.647987955010936
 30
0.0
 10
-70.15351240248971
 20
2.56851521557596
 30
0.0
 10
-70.02014632534204
 20
2.477885279183731
 30
0.0
 10
-70.00752293563087
 20
2.469160868476914
 30
0.0
  0
SPLINE
  5
11E
330
1F
100
AcDbEntity
  8
0
  6
Continuous
 62
     7
370
    25
100
AcDbSpline
210
0.0
220
0.0
230
1.0
 70
     8
 71
     3
 72
     9
 73
     5
 74
     0
 42
0.00000001
 43
0.00000001
 40
0.4038218717518808
 40
0.4038218717518808
 40
0.4038218717518808
 40
0.4038218717518808
 40
0.4062348824104341
 40
0.4294891089710764
 40
0.4294891089710764
 40
0.4294891089710764
 40
0.4294891089710764
 10
-73.4172569622515
 20
2.469159831620798
 30
0.0
 10
-73.40478672110459
 20
2.477778320554222
 30
0.0
 10
-73.27142865654965
 20
2.568420529843539
 30
0.0
 10
-73.13061471394325
 20
2.647907480290659
 30
0.0
 10
-72.9985093808535
 20
2.710425154777305
 30
0.0
  0
SPLINE
  5
120
330
1F
100
AcDbEntity
  8
0
  6
Continuous
 62
     7
370
    25
100
AcDbSpline
210
0.0
220
0.0
230
1.0
 70
     8
 71
     3
 72
    10
 73
     6
 74
     0
 42
0.00000001
 43
0.00000001
 40
0.0439634479930709
 40
0.0439634479930709
 40
0.0439634479930709
 40
0.0439634479930709
 40
0.0625
 40
0.09375
 40
0.1227032663314153
 40
0.1227032663314153
 40
0.1227032663314153
 40
0.1227032663314153
 10
-73.34876820980347
 20
-5.772521187848517
 30
0.0
 10
-73.57287358056169
 20
-5.708985438373032
 30
0.0
 10
-74.16486866807091
 20
-5.503335225064403
 30
0.0
 10
-75.04172164714903
 20
-5.034647543155531
 30
0.0
 10
-75.63239954342292
 20
-4.556940956451906
 30
0.0
 10
-75.89336460720251
 20
-4.30341980069529
 30
0.0
  0
SPLINE
  5
123
330
1F
100
AcDbEntity
  8
0
  6
Continuous
 62
     7
370
    25
100
AcDbSpline
210
0.0
220
0.0
230
1.0
 70
     8
 71
     3
 72
    11
 73
     7
 74
     0
 42
0.00000001
 43
0.00000001
 40
0.2106287247033188
 40
0.2106287247033188
 40
0.2106287247033188
 40
0.2106287247033188
 40
0.2187499999999999
 40
0.25
 40
0.2812499999999999
 40
0.2893712752966818
 40
0.2893712752966818
 40
0.2893712752966818
 40
0.2893712752966818
 10
-77.52972402497011
 20
-1.469165253341578
 30
0.0
 10
-77.55471913768339
 20
-1.370218656272536
 30
0.0
 10
-77.66366036519943
 20
-0.887445756809234
 30
0.0
 10
-77.75106614319094
 20
0.0
 30
0.0
 10
-77.66366036519943
 20
0.8874457568092478
 30
0.0
 10
-77.55471913768338
 20
1.370218656272557
 30
0.0
 10
-77.5297240249701
 20
1.469165253341599
 30
0.0
  0
SPLINE
  5
126
330
1F
100
AcDbEntity
  8
0
  6
Continuous
 62
     7
370
    25
100
AcDbSpline
210
0.0
220
0.0
230
1.0
 70
     8
 71
     3
 72
    12
 73
     8
 74
     0
 42
0.00000001
 43
0.00000001
 40
0.8585688461741432
 40
0.8585688461741432
 40
0.8585688461741432
 40
0.8585688461741432
 40
0.8750000000000001
 40
0.9062500000000001
 40
0.9374999999999999
 40
0.96875
 40
0.974765171721588
 40
0.974765171721588
 40
0.974765171721588
 40
0.974765171721588
 10
-63.95028031336289
 20
-6.304672202582038
 30
0.0
 10
-64.16724881621043
 20
-6.571792332109132
 30
0.0
 10
-64.83681407893823
 20
-7.314493919251854
 30
0.0
 10
-66.12087351626734
 20
-8.368294265631238
 30
0.0
 10
-67.86088614103907
 20
-9.298350390266698
 30
0.0
 10
-69.24070768042694
 20
-9.716914678209982
 30
0.0
 10
-70.00907118265911
 20
-9.85466545812031
 30
0.0
 10
-70.13347312434709
 20
-9.874549252543247
 30
0.0
  0
SPLINE
  5
128
330
1F
100
AcDbEntity
  8
0
  6
Continuous
 62
     7
370
    25
100
AcDbSpline
210
0.0
220
0.0
230
1.0
 70
     8
 71
     3
 72
    12
 73
     8
 74
     0
 42
0.00000001
 43
0.00000001
 40
0.8615676480429945
 40
0.8615676480429945
 40
0.8615676480429945
 40
0.8615676480429945
 40
0.8749999999999999
 40
0.9062499999999999
 40
0.9374999999999998
 40
0.9687499999999998
 40
0.9717655674106287
 40
0.9717655674106287
 40
0.9717655674106287
 40
0.9717655674106287
 10
-65.59883281108527
 20
-5.15984013947473
 30
0.0
 10
-65.74398999182898
 20
-5.331835017676818
 30
0.0
 10
-66.25095689200316
 20
-5.883624450012455
 30
0.0
 10
-67.2391766090908
 20
-6.694635412504993
 30
0.0
 10
-68.63118670890819
 20
-7.438680312213355
 30
0.0
 10
-69.68671690821346
 20
-7.758871897620014
 30
0.0
 10
-70.25087020227683
 20
-7.865525487465088
 30
0.0
 10
-70.30060358746404
 20
-7.874439744536582
 30
0.0
  0
SPLINE
  5
12A
330
1F
100
AcDbEntity
  8
0
  6
Continuous
 62
     7
370
    25
100
AcDbSpline
210
0.0
220
0.0
230
1.0
 70
     8
 71
     3
 72
    12
 73
     8
 74
     0
 42
0.00000001
 43
0.00000001
 40
0.5252348282784122
 40
0.5252348282784122
 40
0.5252348282784122
 40
0.5252348282784122
 40
0.5312500000000001
 40
0.5625000000000001
 40
0.5937500000000001
 40
0.6250000000000002
 40
0.6414311538258568
 40
0.6414311538258568
 40
0.6414311538258568
 40
0.6414311538258568
 10
-70.13347312434712
 20
9.874549252543254
 30
0.0
 10
-70.00907118265914
 20
9.85466545812031
 30
0.0
 10
-69.24070768042694
 20
9.716914678209985
 30
0.0
 10
-67.86088614103907
 20
9.298350390266698
 30
0.0
 10
-66.12087351626734
 20
8.368294265631238
 30
0.0
 10
-64.83681407893823
 20
7.314493919251864
 30
0.0
 10
-64.16724881621045
 20
6.571792332109142
 30
0.0
 10
-63.95028031336292
 20
6.304672202582056
 30
0.0
  0
SPLINE
  5
12B
330
1F
100
AcDbEntity
  8
0
  6
Continuous
 62
     7
370
    25
100
AcDbSpline
210
0.0
220
0.0
230
1.0
 70
     8
 71
     3
 72
    10
 73
     6
 74
     0
 42
0.00000001
 43
0.00000001
 40
0.5439634479930707
 40
0.5439634479930707
 40
0.5439634479930707
 40
0.5439634479930707
 40
0.5624999999999999
 40
0.5937499999999999
 40
0.6227032663314137
 40
0.6227032663314137
 40
0.6227032663314137
 40
0.6227032663314137
 10
-70.07600975096594
 20
5.772521187848517
 30
0.0
 10
-69.85190438020769
 20
5.708985438373032
 30
0.0
 10
-69.25990929269845
 20
5.503335225064403
 30
0.0
 10
-68.38305631362037
 20
5.034647543155542
 30
0.0
 10
-67.79237841734651
 20
4.55694095645193
 30
0.0
 10
-67.53141335356693
 20
4.303419800695332
 30
0.0
  0
SPLINE
  5
12E
330
1F
100
AcDbEntity
  8
0
  6
Continuous
 62
     7
370
    25
100
AcDbSpline
210
0.0
220
0.0
230
1.0
 70
     8
 71
     3
 72
    12
 73
     8
 74
     0
 42
0.00000001
 43
0.00000001
 40
0.0282344325893712
 40
0.0282344325893712
 40
0.0282344325893712
 40
0.0282344325893712
 40
0.03125
 40
0.0625
 40
0.09375
 40
0.125
 40
0.1384323519570059
 40
0.1384323519570059
 40
0.1384323519570059
 40
0.1384323519570059
 10
-73.12417437330535
 20
-7.874439744536582
 30
0.0
 10
-73.17390775849256
 20
-7.865525487465088
 30
0.0
 10
-73.73806105255592
 20
-7.758871897620014
 30
0.0
 10
-74.79359125186119
 20
-7.438680312213355
 30
0.0
 10
-76.18560135167859
 20
-6.694635412504993
 30
0.0
 10
-77.17382106876624
 20
-5.883624450012455
 30
0.0
 10
-77.68078796894044
 20
-5.331835017676805
 30
0.0
 10
-77.82594514968413
 20
-5.159840139474708
 30
0.0
  0
SPLINE
  5
12F
330
1F
100
AcDbEntity
  8
0
  6
Continuous
 62
     7
370
    25
100
AcDbSpline
210
0.0
220
0.0
230
1.0
 70
     8
 71
     3
 72
     9
 73
     5
 74
     0
 42
0.00000001
 43
0.00000001
 40
0.2371260122114774
 40
0.2371260122114774
 40
0.2371260122114774
 40
0.2371260122114774
 40
0.249999706942069
 40
0.2628734892959422
 40
0.2628734892959422
 40
0.2628734892959422
 40
0.2628734892959422
 10
-74.70277118628397
 20
-0.2424800905064806
 30
0.0
 10
-74.70919954925199
 20
-0.1618341707337254
 30
0.0
 10
-74.7155781420864
 20
0.0000007004953492
 30
0.0
 10
-74.70920008811777
 20
0.1618349727513096
 30
0.0
 10
-74.7027718076884
 20
0.2424810707691155
 30
0.0
  0
SPLINE
  5
131
330
1F
100
AcDbEntity
  8
0
  6
Continuous
 62
     7
370
    25
100
AcDbSpline
210
0.0
220
0.0
230
1.0
 70
     8
 71
     3
 72
     9
 73
     5
 74
     0
 42
0.00000001
 43
0.00000001
 40
0.0705105319857834
 40
0.0705105319857834
 40
0.0705105319857834
 40
0.0705105319857834
 40
0.0937348826780726
 40
0.0961773694157511
 40
0.0961773694157511
 40
0.0961773694157511
 40
0.0961773694157511
 10
-72.99851400736058
 20
-2.710426986858409
 30
0.0
 10
-73.13044956533064
 20
-2.647991310007911
 30
0.0
 10
-73.27126576542729
 20
-2.568516158828381
 30
0.0
 10
-73.40462988352056
 20
-2.477886163396371
 30
0.0
 10
-73.4172524180139
 20
-2.469162240886065
 30
0.0
  0
SPLINE
  5
134
330
1F
100
AcDbEntity
  8
0
  6
Continuous
 62
     7
370
    25
100
AcDbSpline
210
0.0
220
0.0
230
1.0
 70
     8
 71
     3
 72
    10
 73
     6
 74
     0
 42
0.00000001
 43
0.00000001
 40
0.3772967336685856
 40
0.3772967336685856
 40
0.3772967336685856
 40
0.3772967336685856
 40
0.4062499999999999
 40
0.4374999999999999
 40
0.4560365520069282
 40
0.4560365520069282
 40
0.4560365520069282
 40
0.4560365520069282
 10
-75.89336460720249
 20
4.303419800695318
 30
0.0
 10
-75.63239954342289
 20
4.55694095645192
 30
0.0
 10
-75.04172164714902
 20
5.034647543155538
 30
0.0
 10
-74.16486866807095
 20
5.503335225064395
 30
0.0
 10
-73.57287358056173
 20
5.708985438373022
 30
0.0
 10
-73.34876820980351
 20
5.77252118784851
 30
0.0
  0
SPLINE
  5
136
330
1F
100
AcDbEntity
  8
0
  6
Continuous
 62
     7
370
    25
100
AcDbSpline
210
0.0
220
0.0
230
1.0
 70
     8
 71
     3
 72
    10
 73
     6
 74
     0
 42
0.00000001
 43
0.00000001
 40
0.8772967336685856
 40
0.8772967336685856
 40
0.8772967336685856
 40
0.8772967336685856
 40
0.90625
 40
0.9374999999999998
 40
0.9560365520069288
 40
0.9560365520069288
 40
0.9560365520069288
 40
0.9560365520069288
 10
-67.53141335356692
 20
-4.303419800695318
 30
0.0
 10
-67.79237841734651
 20
-4.55694095645192
 30
0.0
 10
-68.38305631362036
 20
-5.034647543155538
 30
0.0
 10
-69.25990929269845
 20
-5.503335225064403
 30
0.0
 10
-69.85190438020769
 20
-5.708985438373025
 30
0.0
 10
-70.07600975096594
 20
-5.772521187848517
 30
0.0
  0
SPLINE
  5
137
330
1F
100
AcDbEntity
  8
0
  6
Continuous
 62
     7
370
    25
100
AcDbSpline
210
0.0
220
0.0
230
1.0
 70
     8
 71
     3
 72
    11
 73
     7
 74
     0
 42
0.00000001
 43
0.00000001
 40
0.7106287247033171
 40
0.7106287247033171
 40
0.7106287247033171
 40
0.7106287247033171
 40
0.7187499999999999
 40
0.75
 40
0.78125
 40
0.7893712752966825
 40
0.7893712752966825
 40
0.7893712752966825
 40
0.7893712752966825
 10
-65.89505393579931
 20
1.469165253341641
 30
0.0
 10
-65.87005882308603
 20
1.370218656272577
 30
0.0
 10
-65.76111759556994
 20
0.8874457568092617
 30
0.0
 10
-65.67371181757845
 20
0.0000000000000069
 30
0.0
 10
-65.76111759556994
 20
-0.8874457568092547
 30
0.0
 10
-65.87005882308601
 20
-1.37021865627257
 30
0.0
 10
-65.8950539357993
 20
-1.469165253341627
 30
0.0
  0
SPLINE
  5
139
330
1F
100
AcDbEntity
  8
0
  6
Continuous
 62
     7
370
    25
100
AcDbSpline
210
0.0
220
0.0
230
1.0
 70
     8
 71
     3
 72
    11
 73
     7
 74
     0
 42
0.00000001
 43
0.00000001
 40
0.6919025194103098
 40
0.6919025194103098
 40
0.6919025194103098
 40
0.6919025194103098
 40
0.7187500000000001
 40
0.7500000000000001
 40
0.7812500000000001
 40
0.8080974805896899
 40
0.8080974805896899
 40
0.8080974805896899
 40
0.8080974805896899
 10
-62.37129352185272
 20
3.569839315153291
 30
0.0
 10
-62.17059418946734
 20
3.044588031924443
 30
0.0
 10
-61.83223141853937
 20
1.871273734386079
 30
0.0
 10
-61.64792704237429
 20
0.0
 30
0.0
 10
-61.83223141853938
 20
-1.871273734386065
 30
0.0
 10
-62.17059418946734
 20
-3.044588031924415
 30
0.0
 10
-62.37129352185272
 20
-3.569839315153256
 30
0.0
  0
SPLINE
  5
13C
330
1F
100
AcDbEntity
  8
0
  6
Continuous
 62
     7
370
    25
100
AcDbSpline
210
0.0
220
0.0
230
1.0
 70
     8
 71
     3
 72
     9
 73
     5
 74
     0
 42
0.00000001
 43
0.00000001
 40
0.903821708680317
 40
0.903821708680317
 40
0.903821708680317
 40
0.903821708680317
 40
0.9062348819822691
 40
0.9294892681041352
 40
0.9294892681041352
 40
0.9294892681041352
 40
0.9294892681041352
 10
-70.00751837997962
 20
-2.469158447865577
 30
0.0
 10
-70.01998948030744
 20
-2.47777742833085
 30
0.0
 10
-70.15334951371175
 20
-2.568419579806247
 30
0.0
 10
-70.29416617434586
 20
-2.647904111670721
 30
0.0
 10
-70.42627213333667
 20
-2.710423353667488
 30
0.0
  0
LINE
  5
13D
330
1F
100
AcDbEntity
  8
0
  6
Continuous
 62
     7
370
    25
100
AcDbLine
 10
-70.7123889804
 20
-8.3665964097
 30
0.0
 11
-70.7123889804
 21
-9.38081624
 31
0.0
  0
LINE
  5
13E
330
1F
100
AcDbEntity
  8
0
  6
Continuous
 62
     7
370
    25
100
AcDbLine
 10
-64.0883846684
 20
-5.5564214802
 30
0.0
 11
-64.9667270409
 21
-5.049310275
 31
0.0
  0
LINE
  5
13F
330
1F
100
AcDbEntity
  8
0
  6
Continuous
 62
     7
370
    25
100
AcDbLine
 10
-78.4580509198
 20
-5.049310275
 30
0.0
 11
-79.3363932923
 21
-5.5564214802
 31
0.0
  0
LINE
  5
140
330
1F
100
AcDbEntity
  8
0
  6
Continuous
 62
     7
370
    25
100
AcDbLine
 10
-72.7123889804
 20
-9.38081624
 30
0.0
 11
-72.7123889804
 21
-8.3665964097
 31
0.0
  0
LINE
  5
141
330
1F
100
AcDbEntity
  8
0
  6
Continuous
 62
     7
370
    25
100
AcDbLine
 10
-84.7023733178
 20
-6.3450704156
 30
0.0
 11
-82.9594799048
 21
-5.3388104344
 31
0.0
  0
LINE
  5
142
330
1F
100
AcDbEntity
  8
0
  6
Continuous
 62
     7
370
    25
100
AcDbLine
 10
-82.9594799048
 20
5.3388104344
 30
0.0
 11
-84.7023733178
 21
6.3450704156
 31
0.0
  0
LINE
  5
143
330
1F
100
AcDbEntity
  8
0
  6
Continuous
 62
     7
370
    25
100
AcDbLine
 10
-72.7123889804
 20
8.3665964097
 30
0.0
 11
-72.7123889804
 21
9.38081624
 31
0.0
  0
LINE
  5
144
330
1F
100
AcDbEntity
  8
0
  6
Continuous
 62
     7
370
    25
100
AcDbLine
 10
-79.3363932923
 20
5.5564214802
 30
0.0
 11
-78.4580509198
 21
5.049310275
 31
0.0
  0
LINE
  5
145
330
1F
100
AcDbEntity
  8
0
  6
Continuous
 62
     7
370
    25
100
AcDbLine
 10
-64.9667270409
 20
5.049310275
 30
0.0
 11
-64.0883846684
 21
5.5564214802
 31
0.0
  0
LINE
  5
146
330
1F
100
AcDbEntity
  8
0
  6
Continuous
 62
     7
370
    25
100
AcDbLine
 10
-70.7123889804
 20
9.38081624
 30
0.0
 11
-70.7123889804
 21
8.3665964097
 31
0.0
  0
LINE
  5
147
330
1F
100
AcDbEntity
  8
0
  6
Continuous
 62
     7
370
    25
100
AcDbLine
 10
-58.722404643
 20
6.3450704156
 30
0.0
 11
-60.465298056
 21
5.3388104344
 31
0.0
  0
LINE
  5
148
330
1F
100
AcDbEntity
  8
0
  6
Continuous
 62
     7
370
    25
100
AcDbLine
 10
-60.465298056
 20
-5.3388104344
 30
0.0
 11
-58.722404643
 21
-6.3450704156
 31
0.0
  0
LINE
  5
149
330
1F
100
AcDbEntity
  8
0
  6
Continuous
 62
     7
370
    25
100
AcDbLine
 10
-59.7224130014
 20
-8.0771163974
 30
0.0
 11
-61.4653228548
 21
-7.0708469244
 31
0.0
  0
LINE
  5
14A
330
1F
100
AcDbEntity
  8
0
  6
Continuous
 62
     7
370
    25
100
AcDbLine
 10
-70.7123889804
 20
-12.409631087
 30
0.0
 11
-70.7123889804
 21
-14.4221465284
 31
0.0
  0
LINE
  5
14B
330
1F
100
AcDbEntity
  8
0
  6
Continuous
 62
     7
370
    25
100
AcDbLine
 10
-83.7023649594
 20
8.0771163974
 30
0.0
 11
-81.959455106
 21
7.0708469244
 31
0.0
  0
LINE
  5
14C
330
1F
100
AcDbEntity
  8
0
  6
Continuous
 62
     7
370
    25
100
AcDbLine
 10
-72.7123889804
 20
12.409631087
 30
0.0
 11
-72.7123889804
 21
14.4221465284
 31
0.0
  0
LINE
  5
14D
330
1F
100
AcDbEntity
  8
0
  6
Continuous
 62
     7
370
    25
100
AcDbLine
 10
-70.7123889804
 20
14.4221465284
 30
0.0
 11
-70.7123889804
 21
12.409631087
 31
0.0
  0
LINE
  5
14E
330
1F
100
AcDbEntity
  8
0
  6
Continuous
 62
     7
370
    25
100
AcDbLine
 10
-61.4653228548
 20
7.0708469244
 30
0.0
 11
-59.7224130014
 21
8.0771163974
 31
0.0
  0
LINE
  5
14F
330
1F
100
AcDbEntity
  8
0
  6
Continuous
 62
     7
370
    25
100
AcDbLine
 10
-63.9667149712
 20
-3.3172664359
 30
0.0
 11
-63.0883585954
 21
-3.8243857259
 31
0.0
  0
LINE
  5
150
330
1F
100
AcDbEntity
  8
0
  6
Continuous
 62
     7
370
    25
100
AcDbLine
 10
-63.0883585954
 20
3.8243857259
 30
0.0
 11
-63.9667149712
 21
3.3172664359
 31
0.0
  0
LINE
  5
151
330
1F
100
AcDbEntity
  8
0
  6
Continuous
 62
     7
370
    25
100
AcDbLine
 10
-79.4580629895
 20
3.3172664359
 30
0.0
 11
-80.3364193654
 21
3.8243857259
 31
0.0
  0
LINE
  5
152
330
1F
100
AcDbEntity
  8
0
  6
Continuous
 62
     7
370
    25
100
AcDbLine
 10
-80.3364193654
 20
-3.8243857259
 30
0.0
 11
-79.4580629895
 21
-3.3172664359
 31
0.0
  0
LINE
  5
153
330
1F
100
AcDbEntity
  8
0
  6
Continuous
 62
     7
370
    25
100
AcDbLine
 10
-72.7123889804
 20
-14.4221465284
 30
0.0
 11
-72.7123889804
 21
-12.409631087
 31
0.0
  0
LINE
  5
154
330
1F
100
AcDbEntity
  8
0
  6
Continuous
 62
     7
370
    25
100
AcDbLine
 10
-81.959455106
 20
-7.0708469244
 30
0.0
 11
-83.7023649594
 21
-8.0771163974
 31
0.0
  0
LINE
  5
155
330
1F
100
AcDbEntity
  8
0
  6
Continuous
 62
     7
370
    25
100
AcDbLine
 10
-70.7123889804
 20
-3.1623680371
 30
0.0
 11
-70.7123889804
 21
-5.2914799154
 31
0.0
  0
LINE
  5
156
330
1F
100
AcDbEntity
  8
0
  6
Continuous
 62
     7
370
    25
100
AcDbLine
 10
-67.6298148474
 20
-3.5117758131
 30
0.0
 11
-69.4732447622
 21
-2.4474710555
 31
0.0
  0
LINE
  5
157
330
1F
100
AcDbEntity
  8
0
  6
Continuous
 62
     7
370
    25
100
AcDbLine
 10
-72.7123889804
 20
-5.2914799154
 30
0.0
 11
-72.7123889804
 21
-3.1623755414
 31
0.0
  0
LINE
  5
158
330
1F
100
AcDbEntity
  8
0
  6
Continuous
 62
     7
370
    25
100
AcDbLine
 10
-73.9515322861
 20
-2.4474705287
 30
0.0
 11
-75.7949631134
 21
-3.5117758131
 31
0.0
  0
LINE
  5
159
330
1F
100
AcDbEntity
  8
0
  6
Continuous
 62
     7
370
    25
100
AcDbLine
 10
-76.7949521913
 20
-1.7797186996
 30
0.0
 11
-74.9511902571
 21
-0.7152222506
 31
0.0
  0
LINE
  5
15A
330
1F
100
AcDbEntity
  8
0
  6
Continuous
 62
     7
370
    25
100
AcDbLine
 10
-74.9511909259
 20
0.7152226367
 30
0.0
 11
-76.7949521913
 21
1.7797186996
 31
0.0
  0
LINE
  5
15B
330
1F
100
AcDbEntity
  8
0
  6
Continuous
 62
     7
370
    25
100
AcDbLine
 10
-75.7949631134
 20
3.5117758131
 30
0.0
 11
-73.9515328627
 21
2.4474708616
 31
0.0
  0
LINE
  5
15C
330
1F
100
AcDbEntity
  8
0
  6
Continuous
 62
     7
370
    25
100
AcDbLine
 10
-72.7123889804
 20
3.1623715199
 30
0.0
 11
-72.7123889804
 21
5.2914799154
 31
0.0
  0
LINE
  5
15D
330
1F
100
AcDbEntity
  8
0
  6
Continuous
 62
     7
370
    25
100
AcDbLine
 10
-70.7123889804
 20
5.2914799154
 30
0.0
 11
-70.7123889804
 21
3.1623720712
 31
0.0
  0
LINE
  5
15E
330
1F
100
AcDbEntity
  8
0
  6
Continuous
 62
     7
370
    25
100
AcDbLine
 10
-69.4732453361
 20
2.4474707242
 30
0.0
 11
-67.6298148474
 21
3.5117758131
 31
0.0
  0
LINE
  5
15F
330
1F
100
AcDbEntity
  8
0
  6
Continuous
 62
     7
370
    25
100
AcDbLine
 10
-66.6298257695
 20
1.7797186996
 30
0.0
 11
-68.4735877026
 21
0.7152222512
 31
0.0
  0
LINE
  5
160
330
1F
100
AcDbEntity
  8
0
  6
Continuous
 62
     7
370
    25
100
AcDbLine
 10
-68.4735870339
 20
-0.7152226373
 30
0.0
 11
-66.6298257695
 21
-1.7797186996
 31
0.0
  0
LINE
  5
161
330
1F
100
AcDbEntity
  8
0
  6
Continuous
 62
     7
370
    25
100
AcDbLine
 10
10.5
 20
55.0
 30
0.0
 11
7.5
 21
58.0
 31
0.0
  0
LINE
  5
162
330
1F
100
AcDbEntity
  8
0
  6
Continuous
 62
     7
370
    25
100
AcDbLine
 10
24.0
 20
55.0
 30
0.0
 11
10.5
 21
55.0
 31
0.0
  0
LINE
  5
163
330
1F
100
AcDbEntity
  8
0
  6
Continuous
 62
     7
370
    25
100
AcDbLine
 10
24.0
 20
55.0
 30
0.0
 11
24.0
 21
50.0
 31
0.0
  0
LINE
  5
164
330
1F
100
AcDbEntity
  8
0
  6
Continuous
 62
     7
370
    25
100
AcDbLine
 10
24.0
 20
50.0
 30
0.0
 11
25.0
 21
50.0
 31
0.0
  0
LINE
  5
165
330
1F
100
AcDbEntity
  8
0
  6
Continuous
 62
     7
370
    25
100
AcDbLine
 10
25.0
 20
50.0
 30
0.0
 11
25.0
 21
72.4247779608
 31
0.0
  0
LINE
  5
166
330
1F
100
AcDbEntity
  8
0
  6
Continuous
 62
     7
370
    25
100
AcDbLine
 10
35.0
 20
30.0
 30
0.0
 11
35.0
 21
72.4247779608
 31
0.0
  0
LINE
  5
167
330
1F
100
AcDbEntity
  8
0
  6
Continuous
 62
     7
370
    25
100
AcDbLine
 10
35.0
 20
30.0
 30
0.0
 11
40.0
 21
25.0
 31
0.0
  0
LINE
  5
168
330
1F
100
AcDbEntity
  8
0
  6
Continuous
 62
     7
370
    25
100
AcDbLine
 10
40.0
 20
25.0
 30
0.0
 11
71.7123889804
 21
25.0
 31
0.0
  0
LINE
  5
169
330
1F
100
AcDbEntity
  8
0
  6
Continuous
 62
     7
370
    25
100
AcDbLine
 10
-71.7123889804
 20
-25.0
 30
0.0
 11
71.7123889804
 21
-25.0
 31
0.0
  0
LINE
  5
16A
330
1F
100
AcDbEntity
  8
0
  6
Continuous
 62
     7
370
    25
100
AcDbLine
 10
-71.7123889804
 20
25.0
 30
0.0
 11
-40.0
 21
25.0
 31
0.0
  0
LINE
  5
16B
330
1F
100
AcDbEntity
  8
0
  6
Continuous
 62
     7
370
    25
100
AcDbLine
 10
-40.0
 20
25.0
 30
0.0
 11
-35.0
 21
30.0
 31
0.0
  0
LINE
  5
16C
330
1F
100
AcDbEntity
  8
0
  6
Continuous
 62
     7
370
    25
100
AcDbLine
 10
-35.0
 20
72.4247779608
 30
0.0
 11
-35.0
 21
30.0
 31
0.0
  0
LINE
  5
16D
330
1F
100
AcDbEntity
  8
0
  6
Continuous
 62
     7
370
    25
100
AcDbLine
 10
-25.0
 20
72.4247779608
 30
0.0
 11
-25.0
 21
50.0
 31
0.0
  0
LINE
  5
16E
330
1F
100
AcDbEntity
  8
0
  6
Continuous
 62
     7
370
    25
100
AcDbLine
 10
-25.0
 20
50.0
 30
0.0
 11
-24.0
 21
50.0
 31
0.0
  0
LINE
  5
16F
330
1F
100
AcDbEntity
  8
0
  6
Continuous
 62
     7
370
    25
100
AcDbLine
 10
-24.0
 20
50.0
 30
0.0
 11
-24.0
 21
55.0
 31
0.0
  0
LINE
  5
170
330
1F
100
AcDbEntity
  8
0
  6
Continuous
 62
     7
370
    25
100
AcDbLine
 10
-10.5
 20
55.0
 30
0.0
 11
-24.0
 21
55.0
 31
0.0
  0
LINE
  5
171
330
1F
100
AcDbEntity
  8
0
  6
Continuous
 62
     7
370
    25
100
AcDbLine
 10
-7.5
 20
58.0
 30
0.0
 11
-10.5
 21
55.0
 31
0.0
  0
LINE
  5
172
330
1F
100
AcDbEntity
  8
0
  6
Continuous
 62
     7
370
    25
100
AcDbLine
 10
-7.5
 20
87.4247779608
 30
0.0
 11
-7.5
 21
58.0
 31
0.0
  0
LINE
  5
173
330
1F
100
AcDbEntity
  8
0
  6
Continuous
 62
     7
370
    25
100
AcDbLine
 10
7.5
 20
58.0
 30
0.0
 11
7.5
 21
87.4247779608
 31
0.0
  0
LINE
  5
174
330
1F
100
AcDbEntity
  8
0
  6
Continuous
 62
     7
370
    25
100
AcDbLine
 10
35.0
 20
8.0
 30
0.0
 11
35.0
 21
10.0
 31
0.0
  0
LINE
  5
175
330
1F
100
AcDbEntity
  8
0
  6
Continuous
 62
     7
370
    25
100
AcDbLine
 10
35.0
 20
10.0
 30
0.0
 11
-35.0
 21
10.0
 31
0.0
  0
LINE
  5
176
330
1F
100
AcDbEntity
  8
0
  6
Continuous
 62
     7
370
    25
100
AcDbLine
 10
-35.0
 20
10.0
 30
0.0
 11
-35.0
 21
8.0
 31
0.0
  0
LINE
  5
177
330
1F
100
AcDbEntity
  8
0
  6
Continuous
 62
     7
370
    25
100
AcDbLine
 10
-35.0
 20
8.0
 30
0.0
 11
-10.0
 21
8.0
 31
0.0
  0
LINE
  5
178
330
1F
100
AcDbEntity
  8
0
  6
Continuous
 62
     7
370
    25
100
AcDbLine
 10
-10.0
 20
-8.0
 30
0.0
 11
-35.0
 21
-8.0
 31
0.0
  0
LINE
  5
179
330
1F
100
AcDbEntity
  8
0
  6
Continuous
 62
     7
370
    25
100
AcDbLine
 10
-35.0
 20
-8.0
 30
0.0
 11
-35.0
 21
-10.0
 31
0.0
  0
LINE
  5
17A
330
1F
100
AcDbEntity
  8
0
  6
Continuous
 62
     7
370
    25
100
AcDbLine
 10
-35.0
 20
-10.0
 30
0.0
 11
35.0
 21
-10.0
 31
0.0
  0
LINE
  5
17B
330
1F
100
AcDbEntity
  8
0
  6
Continuous
 62
     7
370
    25
100
AcDbLine
 10
35.0
 20
-10.0
 30
0.0
 11
35.0
 21
-8.0
 31
0.0
  0
LINE
  5
17C
330
1F
100
AcDbEntity
  8
0
  6
Continuous
 62
     7
370
    25
100
AcDbLine
 10
35.0
 20
-8.0
 30
0.0
 11
10.0
 21
-8.0
 31
0.0
  0
LINE
  5
17D
330
1F
100
AcDbEntity
  8
0
  6
Continuous
 62
     7
370
    25
100
AcDbLine
 10
10.0
 20
8.0
 30
0.0
 11
35.0
 21
8.0
 31
0.0
  0
ARC
  5
17E
330
1F
100
AcDbEntity
  8
0
  6
Continuous
 62
     7
370
    25
100
AcDbCircle
 10
71.7123889804
 20
0.0
 30
0.0
 40
13.49999999999993
100
AcDbArc
 50
295.901406829
 51
334.098593171
  0
ARC
  5
17F
330
1F
100
AcDbEntity
  8
0
  6
Continuous
 62
     7
370
    25
100
AcDbCircle
 10
78.2647471173
 20
-13.4932058031
 30
0.0
 40
1.499999999999988
100
AcDbArc
 50
115.901406829
 51
295.901406829
  0
ARC
  5
180
330
1F
100
AcDbEntity
  8
0
  6
Continuous
 62
     7
370
    25
100
AcDbCircle
 10
71.7123889804
 20
0.0
 30
0.0
 40
16.50000000000027
100
AcDbArc
 50
295.901406829
 51
334.098593171
  0
ARC
  5
181
330
1F
100
AcDbEntity
  8
0
  6
Continuous
 62
     7
370
    25
100
AcDbCircle
 10
85.2055947835
 20
-6.5523581369
 30
0.0
 40
1.5
100
AcDbArc
 50
334.098593171
 51
154.098593171
  0
ARC
  5
182
330
1F
100
AcDbEntity
  8
0
  6
Continuous
 62
     7
370
    25
100
AcDbCircle
 10
65.1600308434
 20
-13.4932058031
 30
0.0
 40
1.499999999999998
100
AcDbArc
 50
244.098593171
 51
64.098593171
  0
ARC
  5
183
330
1F
100
AcDbEntity
  8
0
  6
Continuous
 62
     7
370
    25
100
AcDbCircle
 10
71.7123889804
 20
0.0
 30
0.0
 40
13.49999999999945
100
AcDbArc
 50
205.901406829
 51
244.098593171
  0
ARC
  5
184
330
1F
100
AcDbEntity
  8
0
  6
Continuous
 62
     7
370
    25
100
AcDbCircle
 10
58.2191831773
 20
-6.5523581369
 30
0.0
 40
1.499999999999993
100
AcDbArc
 50
25.901406829
 51
205.901406829
  0
ARC
  5
185
330
1F
100
AcDbEntity
  8
0
  6
Continuous
 62
     7
370
    25
100
AcDbCircle
 10
71.7123889804
 20
0.0
 30
0.0
 40
16.50000000000033
100
AcDbArc
 50
205.901406829
 51
244.098593171
  0
ARC
  5
186
330
1F
100
AcDbEntity
  8
0
  6
Continuous
 62
     7
370
    25
100
AcDbCircle
 10
58.2191831773
 20
6.5523581369
 30
0.0
 40
1.500000000000002
100
AcDbArc
 50
154.098593171
 51
334.098593171
  0
ARC
  5
187
330
1F
100
AcDbEntity
  8
0
  6
Continuous
 62
     7
370
    25
100
AcDbCircle
 10
71.7123889804
 20
0.0
 30
0.0
 40
13.50000000000028
100
AcDbArc
 50
115.901406829
 51
154.098593171
  0
ARC
  5
188
330
1F
100
AcDbEntity
  8
0
  6
Continuous
 62
     7
370
    25
100
AcDbCircle
 10
65.1600308435
 20
13.4932058031
 30
0.0
 40
1.499999999999997
100
AcDbArc
 50
295.901406829
 51
115.901406829
  0
ARC
  5
189
330
1F
100
AcDbEntity
  8
0
  6
Continuous
 62
     7
370
    25
100
AcDbCircle
 10
71.7123889804
 20
0.0
 30
0.0
 40
16.4999999999994
100
AcDbArc
 50
115.901406829
 51
154.098593171
  0
ARC
  5
18A
330
1F
100
AcDbEntity
  8
0
  6
Continuous
 62
     7
370
    25
100
AcDbCircle
 10
78.2647471173
 20
13.4932058031
 30
0.0
 40
1.500000000000006
100
AcDbArc
 50
64.098593171
 51
244.098593171
  0
ARC
  5
18B
330
1F
100
AcDbEntity
  8
0
  6
Continuous
 62
     7
370
    25
100
AcDbCircle
 10
71.7123889804
 20
0.0
 30
0.0
 40
13.4999999999983
100
AcDbArc
 50
25.901406829
 51
64.098593171
  0
ARC
  5
18C
330
1F
100
AcDbEntity
  8
0
  6
Continuous
 62
     7
370
    25
100
AcDbCircle
 10
85.2055947835
 20
6.5523581369
 30
0.0
 40
1.500000000000002
100
AcDbArc
 50
205.901406829
 51
25.901406829
  0
ARC
  5
18D
330
1F
100
AcDbEntity
  8
0
  6
Continuous
 62
     7
370
    25
100
AcDbCircle
 10
71.7123889804
 20
0.0
 30
0.0
 40
16.50000000000214
100
AcDbArc
 50
25.901406829
 51
64.098593171
  0
ARC
  5
18E
330
1F
100
AcDbEntity
  8
0
  6
Continuous
 62
     7
370
    25
100
AcDbCircle
 10
-84.9523733178
 20
5.9120577137
 30
0.0
 40
0.5000000000000016
100
AcDbArc
 50
60.0
 51
155.9345201793
  0
ARC
  5
18F
330
1F
100
AcDbEntity
  8
0
  6
Continuous
 62
     7
370
    25
100
AcDbCircle
 10
-84.9523733178
 20
-5.9120577137
 30
0.0
 40
0.5000000000000224
100
AcDbArc
 50
204.0654798207
 51
300.0
  0
ARC
  5
190
330
1F
100
AcDbEntity
  8
0
  6
Continuous
 62
     7
370
    25
100
AcDbCircle
 10
-58.472404643
 20
-5.9120577137
 30
0.0
 40
0.5000000000000174
100
AcDbArc
 50
240.0
 51
335.9345201793
  0
ARC
  5
191
330
1F
100
AcDbEntity
  8
0
  6
Continuous
 62
     7
370
    25
100
AcDbCircle
 10
-58.472404643
 20
5.9120577137
 30
0.0
 40
0.4999999999999926
100
AcDbArc
 50
24.0654798207
 51
120.0
  0
ARC
  5
192
330
1F
100
AcDbEntity
  8
0
  6
Continuous
 62
     7
370
    25
100
AcDbCircle
 10
-70.2123889804
 20
-14.4221465284
 30
0.0
 40
0.5000000000000009
100
AcDbArc
 50
180.0
 51
275.937272401
  0
ARC
  5
193
330
1F
100
AcDbEntity
  8
0
  6
Continuous
 62
     7
370
    25
100
AcDbCircle
 10
-59.9724130014
 20
-8.5101290993
 30
0.0
 40
0.5000000000000057
100
AcDbArc
 50
324.0586050589
 51
60.0
  0
ARC
  5
194
330
1F
100
AcDbEntity
  8
0
  6
Continuous
 62
     7
370
    25
100
AcDbCircle
 10
-73.2123889804
 20
14.4221465284
 30
0.0
 40
0.5000000000000284
100
AcDbArc
 50
0.0
 51
95.937272401
  0
ARC
  5
195
330
1F
100
AcDbEntity
  8
0
  6
Continuous
 62
     7
370
    25
100
AcDbCircle
 10
-83.4523649594
 20
8.5101290993
 30
0.0
 40
0.5000000000000152
100
AcDbArc
 50
144.0586050589
 51
240.0
  0
ARC
  5
196
330
1F
100
AcDbEntity
  8
0
  6
Continuous
 62
     7
370
    25
100
AcDbCircle
 10
-59.9724130014
 20
8.5101290993
 30
0.0
 40
0.4999999999999776
100
AcDbArc
 50
300.0
 51
35.9413949411
  0
ARC
  5
197
330
1F
100
AcDbEntity
  8
0
  6
Continuous
 62
     7
370
    25
100
AcDbCircle
 10
-70.2123889804
 20
14.4221465284
 30
0.0
 40
0.5
100
AcDbArc
 50
84.062727599
 51
180.0
  0
ARC
  5
198
330
1F
100
AcDbEntity
  8
0
  6
Continuous
 62
     7
370
    25
100
AcDbCircle
 10
-83.4523649594
 20
-8.5101290993
 30
0.0
 40
0.5000000000000149
100
AcDbArc
 50
120.0
 51
215.9413949411
  0
ARC
  5
199
330
1F
100
AcDbEntity
  8
0
  6
Continuous
 62
     7
370
    25
100
AcDbCircle
 10
-73.2123889804
 20
-14.4221465284
 30
0.0
 40
0.5
100
AcDbArc
 50
264.062727599
 51
0.0
  0
ARC
  5
19A
330
1F
100
AcDbEntity
  8
0
  6
Continuous
 62
     7
370
    25
100
AcDbCircle
 10
30.0
 20
72.4247779608
 30
0.0
 40
5.000000000000007
100
AcDbArc
 50
0.0
 51
180.0
  0
ARC
  5
19B
330
1F
100
AcDbEntity
  8
0
  6
Continuous
 62
     7
370
    25
100
AcDbCircle
 10
71.7123889804
 20
0.0
 30
0.0
 40
25.0
100
AcDbArc
 50
270.0
 51
90.0
  0
ARC
  5
19C
330
1F
100
AcDbEntity
  8
0
  6
Continuous
 62
     7
370
    25
100
AcDbCircle
 10
-71.7123889804
 20
0.0
 30
0.0
 40
25.0
100
AcDbArc
 50
90.0
 51
270.0
  0
ARC
  5
19D
330
1F
100
AcDbEntity
  8
0
  6
Continuous
 62
     7
370
    25
100
AcDbCircle
 10
-30.0
 20
72.4247779608
 30
0.0
 40
5.0
100
AcDbArc
 50
0.0
 51
180.0
  0
ARC
  5
19E
330
1F
100
AcDbEntity
  8
0
  6
Continuous
 62
     7
370
    25
100
AcDbCircle
 10
0.0
 20
87.4247779608
 30
0.0
 40
7.500000000000004
100
AcDbArc
 50
0.0
 51
180.0
  0
ARC
  5
19F
330
1F
100
AcDbEntity
  8
0
  6
Continuous
 62
     7
370
    25
100
AcDbCircle
 10
-10.0
 20
0.0
 30
0.0
 40
7.999999999999993
100
AcDbArc
 50
270.0
 51
90.0
  0
ARC
  5
1A0
330
1F
100
AcDbEntity
  8
0
  6
Continuous
 62
     7
370
    25
100
AcDbCircle
 10
10.0
 20
0.0
 30
0.0
 40
8.0
100
AcDbArc
 50
90.0
 51
270.0
  0
ARC
  5
1A1
330
1F
100
AcDbEntity
  8
0
  6
Continuous
 62
     7
370
    25
100
AcDbCircle
 10
-81.709455106
 20
7.5038596263
 30
0.0
 40
0.5000000000000295
100
AcDbArc
 50
240.0
 51
323.1047657263
  0
ARC
  5
1A2
330
1F
100
AcDbEntity
  8
0
  6
Continuous
 62
     7
370
    25
100
AcDbCircle
 10
-60.215298056
 20
-4.9057977325
 30
0.0
 40
0.4999999999999986
100
AcDbArc
 50
156.8905101038
 51
240.0
  0
ARC
  5
1A3
330
1F
100
AcDbEntity
  8
0
  6
Continuous
 62
     7
370
    25
100
AcDbCircle
 10
-81.709455106
 20
-7.5038596263
 30
0.0
 40
0.5000000000000194
100
AcDbArc
 50
36.8952342737
 51
120.0
  0
ARC
  5
1A4
330
1F
100
AcDbEntity
  8
0
  6
Continuous
 62
     7
370
    25
100
AcDbCircle
 10
-79.0863932923
 20
5.9894341821
 30
0.0
 40
0.500000000000027
100
AcDbArc
 50
140.914747283
 51
240.0
  0
ARC
  5
1A5
330
1F
100
AcDbEntity
  8
0
  6
Continuous
 62
     7
370
    25
100
AcDbCircle
 10
-70.2123889804
 20
-12.409631087
 30
0.0
 40
0.5000000000000284
100
AcDbArc
 50
96.8902505204
 51
180.0
  0
ARC
  5
1A6
330
1F
100
AcDbEntity
  8
0
  6
Continuous
 62
     7
370
    25
100
AcDbCircle
 10
-61.7153228548
 20
-7.5038596263
 30
0.0
 40
0.5000000000000064
100
AcDbArc
 50
60.0
 51
143.1047657263
  0
ARC
  5
1A7
330
1F
100
AcDbEntity
  8
0
  6
Continuous
 62
     7
370
    25
100
AcDbCircle
 10
-70.2123889804
 20
3.1623720712
 30
0.0
 40
0.5000000000000584
100
AcDbArc
 50
180.0
 51
244.6747012404
  0
ARC
  5
1A8
330
1F
100
AcDbEntity
  8
0
  6
Continuous
 62
     7
370
    25
100
AcDbCircle
 10
-61.7153228548
 20
7.5038596263
 30
0.0
 40
0.49999999999999
100
AcDbArc
 50
216.8952342737
 51
300.0
  0
ARC
  5
1A9
330
1F
100
AcDbEntity
  8
0
  6
Continuous
 62
     7
370
    25
100
AcDbCircle
 10
-70.2123889804
 20
-9.38081624
 30
0.0
 40
0.5000000000000012
100
AcDbArc
 50
180.0
 51
279.0810633802
  0
ARC
  5
1AA
330
1F
100
AcDbEntity
  8
0
  6
Continuous
 62
     7
370
    25
100
AcDbCircle
 10
-80.5864193654
 20
3.391373024
 30
0.0
 40
0.5000000000000123
100
AcDbArc
 50
60.0
 51
159.0880655387
  0
ARC
  5
1AB
330
1F
100
AcDbEntity
  8
0
  6
Continuous
 62
     7
370
    25
100
AcDbCircle
 10
-63.7167149712
 20
-2.884253734
 30
0.0
 40
0.5000000000000508
100
AcDbArc
 50
160.16753673
 51
240.0
  0
ARC
  5
1AC
330
1F
100
AcDbEntity
  8
0
  6
Continuous
 62
     7
370
    25
100
AcDbCircle
 10
-73.2123889804
 20
8.3665964097
 30
0.0
 40
0.5000000000000142
100
AcDbArc
 50
280.1618402739
 51
0.0
  0
ARC
  5
1AD
330
1F
100
AcDbEntity
  8
0
  6
Continuous
 62
     7
370
    25
100
AcDbCircle
 10
-70.2123889804
 20
-8.3665964097
 30
0.0
 40
0.5000000000000172
100
AcDbArc
 50
100.1618402739
 51
180.0
  0
ARC
  5
1AE
330
1F
100
AcDbEntity
  8
0
  6
Continuous
 62
     7
370
    25
100
AcDbCircle
 10
-73.2123889804
 20
12.409631087
 30
0.0
 40
0.5000000000000142
100
AcDbArc
 50
276.8902505204
 51
0.0
  0
ARC
  5
1AF
330
1F
100
AcDbEntity
  8
0
  6
Continuous
 62
     7
370
    25
100
AcDbCircle
 10
-64.3383846684
 20
5.9894341821
 30
0.0
 40
0.4999999999999904
100
AcDbArc
 50
300.0
 51
39.085252717
  0
ARC
  5
1B0
330
1F
100
AcDbEntity
  8
0
  6
Continuous
 62
     7
370
    25
100
AcDbCircle
 10
-70.2123889804
 20
12.409631087
 30
0.0
 40
0.4999999999999457
100
AcDbArc
 50
180.0
 51
263.1097494796
  0
ARC
  5
1B1
330
1F
100
AcDbEntity
  8
0
  6
Continuous
 62
     7
370
    25
100
AcDbCircle
 10
-73.2123889804
 20
9.38081624
 30
0.0
 40
0.5000000000000148
100
AcDbArc
 50
0.0
 51
99.0810633802
  0
ARC
  5
1B2
330
1F
100
AcDbEntity
  8
0
  6
Continuous
 62
     7
370
    25
100
AcDbCircle
 10
-73.2123889804
 20
-12.409631087
 30
0.0
 40
0.5000000000000494
100
AcDbArc
 50
0.0
 51
83.1097494796
  0
ARC
  5
1B3
330
1F
100
AcDbEntity
  8
0
  6
Continuous
 62
     7
370
    25
100
AcDbCircle
 10
-83.2094799048
 20
-4.9057977325
 30
0.0
 40
0.4999999999999822
100
AcDbArc
 50
300.0
 51
23.1094898962
  0
ARC
  5
1B4
330
1F
100
AcDbEntity
  8
0
  6
Continuous
 62
     7
370
    25
100
AcDbCircle
 10
-78.2080509198
 20
5.4823229769
 30
0.0
 40
0.4999999999999864
100
AcDbArc
 50
240.0
 51
319.8368980672
  0
ARC
  5
1B5
330
1F
100
AcDbEntity
  8
0
  6
Continuous
 62
     7
370
    25
100
AcDbCircle
 10
-73.2123889804
 20
-9.38081624
 30
0.0
 40
0.5000000000000148
100
AcDbArc
 50
260.9189366198
 51
0.0
  0
ARC
  5
1B6
330
1F
100
AcDbEntity
  8
0
  6
Continuous
 62
     7
370
    25
100
AcDbCircle
 10
-83.2094799048
 20
4.9057977325
 30
0.0
 40
0.5000000000000228
100
AcDbArc
 50
336.8905101038
 51
60.0
  0
ARC
  5
1B7
330
1F
100
AcDbEntity
  8
0
  6
Continuous
 62
     7
370
    25
100
AcDbCircle
 10
-60.215298056
 20
4.9057977325
 30
0.0
 40
0.5000000000000119
100
AcDbArc
 50
120.0
 51
203.1094898962
  0
ARC
  5
1B8
330
1F
100
AcDbEntity
  8
0
  6
Continuous
 62
     7
370
    25
100
AcDbCircle
 10
-73.2123889804
 20
-5.2914799154
 30
0.0
 40
0.5000000000000194
100
AcDbArc
 50
254.1715226218
 51
0.0
  0
ARC
  5
1B9
330
1F
100
AcDbEntity
  8
0
  6
Continuous
 62
     7
370
    25
100
AcDbCircle
 10
-79.0863932923
 20
-5.9894341821
 30
0.0
 40
0.5000000000000104
100
AcDbArc
 50
120.0
 51
219.085252717
  0
ARC
  5
1BA
330
1F
100
AcDbEntity
  8
0
  6
Continuous
 62
     7
370
    25
100
AcDbCircle
 10
-80.5864193654
 20
-3.391373024
 30
0.0
 40
0.5000000000000305
100
AcDbArc
 50
200.9119344613
 51
300.0
  0
ARC
  5
1BB
330
1F
100
AcDbEntity
  8
0
  6
Continuous
 62
     7
370
    25
100
AcDbCircle
 10
-67.8798148474
 20
3.944788515
 30
0.0
 40
0.5000000000000194
100
AcDbArc
 50
300.0
 51
45.8289332905
  0
ARC
  5
1BC
330
1F
100
AcDbEntity
  8
0
  6
Continuous
 62
     7
370
    25
100
AcDbCircle
 10
-66.3798257695
 20
1.3467059977
 30
0.0
 40
0.5000000000000165
100
AcDbArc
 50
14.1770180484
 51
120.0
  0
ARC
  5
1BD
330
1F
100
AcDbEntity
  8
0
  6
Continuous
 62
     7
370
    25
100
AcDbCircle
 10
-78.2080509198
 20
-5.4823229769
 30
0.0
 40
0.5000000000000241
100
AcDbArc
 50
40.1631019328
 51
120.0
  0
ARC
  5
1BE
330
1F
100
AcDbEntity
  8
0
  6
Continuous
 62
     7
370
    25
100
AcDbCircle
 10
-62.8383585954
 20
3.391373024
 30
0.0
 40
0.4999999999999931
100
AcDbArc
 50
20.9119344613
 51
120.0
  0
ARC
  5
1BF
330
1F
100
AcDbEntity
  8
0
  6
Continuous
 62
     7
370
    25
100
AcDbCircle
 10
-68.2235870339
 20
-0.2822099354
 30
0.0
 40
0.5000000000000027
100
AcDbArc
 50
175.4426036829
 51
240.0
  0
ARC
  5
1C0
330
1F
100
AcDbEntity
  8
0
  6
Continuous
 62
     7
370
    25
100
AcDbCircle
 10
-75.2011902571
 20
-0.2822095487
 30
0.0
 40
0.4999999999999179
100
AcDbArc
 50
300.0
 51
4.5574649188
  0
ARC
  5
1C1
330
1F
100
AcDbEntity
  8
0
  6
Continuous
 62
     7
370
    25
100
AcDbCircle
 10
-79.7080629895
 20
-2.884253734
 30
0.0
 40
0.4999999999999465
100
AcDbArc
 50
300.0
 51
19.83246327
  0
ARC
  5
1C2
330
1F
100
AcDbEntity
  8
0
  6
Continuous
 62
     7
370
    25
100
AcDbCircle
 10
-65.2167270409
 20
5.4823229769
 30
0.0
 40
0.4999999999999691
100
AcDbArc
 50
220.1631019328
 51
300.0
  0
ARC
  5
1C3
330
1F
100
AcDbEntity
  8
0
  6
Continuous
 62
     7
370
    25
100
AcDbCircle
 10
-63.7167149712
 20
2.884253734
 30
0.0
 40
0.5000000000000286
100
AcDbArc
 50
120.0
 51
199.83246327
  0
ARC
  5
1C4
330
1F
100
AcDbEntity
  8
0
  6
Continuous
 62
     7
370
    25
100
AcDbCircle
 10
-68.2235877026
 20
0.2822095493
 30
0.0
 40
0.4999999999999862
100
AcDbArc
 50
120.0
 51
184.5574646181
  0
ARC
  5
1C5
330
1F
100
AcDbEntity
  8
0
  6
Continuous
 62
     7
370
    25
100
AcDbCircle
 10
-73.2123889804
 20
3.1623715199
 30
0.0
 40
0.499999999999988
100
AcDbArc
 50
295.3254371177
 51
0.0
  0
ARC
  5
1C6
330
1F
100
AcDbEntity
  8
0
  6
Continuous
 62
     7
370
    25
100
AcDbCircle
 10
-73.7015322861
 20
-2.8804832306
 30
0.0
 40
0.4999999999999787
100
AcDbArc
 50
55.3501472711
 51
120.0
  0
ARC
  5
1C7
330
1F
100
AcDbEntity
  8
0
  6
Continuous
 62
     7
370
    25
100
AcDbCircle
 10
-79.7080629895
 20
2.884253734
 30
0.0
 40
0.4999999999999731
100
AcDbArc
 50
340.16753673
 51
60.0
  0
ARC
  5
1C8
330
1F
100
AcDbEntity
  8
0
  6
Continuous
 62
     7
370
    25
100
AcDbCircle
 10
-77.0449521913
 20
1.3467059977
 30
0.0
 40
0.5000000000000214
100
AcDbArc
 50
60.0
 51
165.8229819516
  0
ARC
  5
1C9
330
1F
100
AcDbEntity
  8
0
  6
Continuous
 62
     7
370
    25
100
AcDbCircle
 10
-70.2123889804
 20
8.3665964097
 30
0.0
 40
0.5000000000000302
100
AcDbArc
 50
180.0
 51
259.8381597261
  0
ARC
  5
1CA
330
1F
100
AcDbEntity
  8
0
  6
Continuous
 62
     7
370
    25
100
AcDbCircle
 10
-69.7232453361
 20
2.8804834261
 30
0.0
 40
0.4999999999998779
100
AcDbArc
 50
235.350463274
 51
300.0
  0
ARC
  5
1CB
330
1F
100
AcDbEntity
  8
0
  6
Continuous
 62
     7
370
    25
100
AcDbCircle
 10
-75.5449631134
 20
3.944788515
 30
0.0
 40
0.5000000000000141
100
AcDbArc
 50
134.1710667095
 51
240.0
  0
ARC
  5
1CC
330
1F
100
AcDbEntity
  8
0
  6
Continuous
 62
     7
370
    25
100
AcDbCircle
 10
-73.7015328627
 20
2.8804835635
 30
0.0
 40
0.4999999999999987
100
AcDbArc
 50
240.0
 51
304.6493000501
  0
ARC
  5
1CD
330
1F
100
AcDbEntity
  8
0
  6
Continuous
 62
     7
370
    25
100
AcDbCircle
 10
-70.2123889804
 20
-5.2914799154
 30
0.0
 40
0.5
100
AcDbArc
 50
180.0
 51
285.8284773782
  0
ARC
  5
1CE
330
1F
100
AcDbEntity
  8
0
  6
Continuous
 62
     7
370
    25
100
AcDbCircle
 10
-75.5449631134
 20
-3.944788515
 30
0.0
 40
0.4999999999999824
100
AcDbArc
 50
120.0
 51
225.8289332905
  0
ARC
  5
1CF
330
1F
100
AcDbEntity
  8
0
  6
Continuous
 62
     7
370
    25
100
AcDbCircle
 10
-77.0449521913
 20
-1.3467059977
 30
0.0
 40
0.4999999999999923
100
AcDbArc
 50
194.1770180484
 51
300.0
  0
ARC
  5
1D0
330
1F
100
AcDbEntity
  8
0
  6
Continuous
 62
     7
370
    25
100
AcDbCircle
 10
-64.3383846684
 20
-5.9894341821
 30
0.0
 40
0.4999999999999885
100
AcDbArc
 50
320.914747283
 51
60.0
  0
ARC
  5
1D1
330
1F
100
AcDbEntity
  8
0
  6
Continuous
 62
     7
370
    25
100
AcDbCircle
 10
-69.7232447622
 20
-2.8804837574
 30
0.0
 40
0.4999999999999185
100
AcDbArc
 50
60.0
 51
124.6489820761
  0
ARC
  5
1D2
330
1F
100
AcDbEntity
  8
0
  6
Continuous
 62
     7
370
    25
100
AcDbCircle
 10
-65.2167270409
 20
-5.4823229769
 30
0.0
 40
0.4999999999999979
100
AcDbArc
 50
60.0
 51
139.8368980672
  0
ARC
  5
1D3
330
1F
100
AcDbEntity
  8
0
  6
Continuous
 62
     7
370
    25
100
AcDbCircle
 10
-70.2123889804
 20
9.38081624
 30
0.0
 40
0.5000000000000142
100
AcDbArc
 50
80.9189366198
 51
180.0
  0
ARC
  5
1D4
330
1F
100
AcDbEntity
  8
0
  6
Continuous
 62
     7
370
    25
100
AcDbCircle
 10
-70.2123889804
 20
5.2914799154
 30
0.0
 40
0.5
100
AcDbArc
 50
74.1715226218
 51
180.0
  0
ARC
  5
1D5
330
1F
100
AcDbEntity
  8
0
  6
Continuous
 62
     7
370
    25
100
AcDbCircle
 10
-73.2123889804
 20
-8.3665964097
 30
0.0
 40
0.5000000000000426
100
AcDbArc
 50
0.0
 51
79.8381597261
  0
ARC
  5
1D6
330
1F
100
AcDbEntity
  8
0
  6
Continuous
 62
     7
370
    25
100
AcDbCircle
 10
-75.2011909259
 20
0.2822099348
 30
0.0
 40
0.4999999999998976
100
AcDbArc
 50
355.4426033819
 51
60.0
  0
ARC
  5
1D7
330
1F
100
AcDbEntity
  8
0
  6
Continuous
 62
     7
370
    25
100
AcDbCircle
 10
-73.2123889804
 20
-3.1623755414
 30
0.0
 40
0.5000000000000853
100
AcDbArc
 50
0.0
 51
64.6751494092
  0
ARC
  5
1D8
330
1F
100
AcDbEntity
  8
0
  6
Continuous
 62
     7
370
    25
100
AcDbCircle
 10
-73.2123889804
 20
5.2914799154
 30
0.0
 40
0.5000000000000208
100
AcDbArc
 50
0.0
 51
105.8284773782
  0
ARC
  5
1D9
330
1F
100
AcDbEntity
  8
0
  6
Continuous
 62
     7
370
    25
100
AcDbCircle
 10
-67.8798148474
 20
-3.944788515
 30
0.0
 40
0.5000000000000066
100
AcDbArc
 50
314.1710667095
 51
60.0
  0
ARC
  5
1DA
330
1F
100
AcDbEntity
  8
0
  6
Continuous
 62
     7
370
    25
100
AcDbCircle
 10
-66.3798257695
 20
-1.3467059977
 30
0.0
 40
0.5000000000000008
100
AcDbArc
 50
240.0
 51
345.8229819516
  0
ARC
  5
1DB
330
1F
100
AcDbEntity
  8
0
  6
Continuous
 62
     7
370
    25
100
AcDbCircle
 10
-62.8383585954
 20
-3.391373024
 30
0.0
 40
0.5000000000000054
100
AcDbArc
 50
240.0
 51
339.0880655387
  0
ARC
  5
1DC
330
1F
100
AcDbEntity
  8
0
  6
Continuous
 62
     7
370
    25
100
AcDbCircle
 10
-70.2123889804
 20
-3.1623680371
 30
0.0
 40
0.4999999999999599
100
AcDbArc
 50
115.3258876056
 51
180.0
  0
ENDSEC
  0
SECTION
  2
OBJECTS
  0
DICTIONARY
  5
C
330
0
100
AcDbDictionary
281
     1
  3
ACAD_GROUP
350
D
  3
ACAD_LAYOUT
350
1A
  3
ACAD_MLINESTYLE
350
17
  3
ACAD_PLOTSETTINGS
350
19
  3
ACAD_PLOTSTYLENAME
350
E
  3
ACAD_SCALELIST
350
47
  3
DWGPROPS
350
1DD
  0
DICTIONARY
  5
D
102
{ACAD_REACTORS
330
C
102
}
330
C
100
AcDbDictionary
281
     1
  0
DICTIONARY
  5
1A
102
{ACAD_REACTORS
330
C
102
}
330
C
100
AcDbDictionary
281
     1
  3
Layout1
350
1E
  3
Layout2
350
26
  3
Model
350
22
  0
DICTIONARY
  5
17
102
{ACAD_REACTORS
330
C
102
}
330
C
100
AcDbDictionary
281
     1
  3
Standard
350
18
  0
DICTIONARY
  5
19
102
{ACAD_REACTORS
330
C
102
}
330
C
100
AcDbDictionary
281
     1
  0
ACDBDICTIONARYWDFLT
  5
E
102
{ACAD_REACTORS
330
C
102
}
330
C
100
AcDbDictionary
281
     1
  3
Normal
350
F
100
AcDbDictionaryWithDefault
340
F
  0
DICTIONARY
  5
47
102
{ACAD_REACTORS
330
C
102
}
330
C
100
AcDbDictionary
281
     1
  3
A0
350
48
  3
A1
350
49
  3
A2
350
4A
  3
A3
350
4B
  3
A4
350
4C
  3
A5
350
4D
  3
A6
350
4E
  3
A7
350
4F
  3
A8
350
50
  3
A9
350
51
  3
B0
350
52
  3
B1
350
53
  3
B2
350
54
  3
B3
350
55
  3
B4
350
56
  3
B5
350
57
  3
B6
350
58
  0
XRECORD
  5
1DD
102
{ACAD_REACTORS
330
C
102
}
330
C
100
AcDbXrecord
280
     1
  1
DWGPROPS COOKIE
  2

  3

  4

  6

  7

  8
AlohAmir
  9

300
=
301
=
302
=
303
=
304
=
305
=
306
=
307
=
308
=
309
=
 40
0.0
 41
2460827.655045498
 42
2460827.655255637
  1

 90
        0
  0
LAYOUT
  5
1E
102
{ACAD_REACTORS
330
1A
102
}
330
1A
100
AcDbPlotSettings
  1

  2
none_device
  4

  6

 40
0.0
 41
0.0
 42
0.0
 43
0.0
 44
0.0
 45
0.0
 46
0.0
 47
0.0
 48
0.0
 49
0.0
140
0.0
141
0.0
142
1.0
143
1.0
 70
   688
 72
     1
 73
     0
 74
     5
  7

 75
    16
147
1.0
148
0.0
149
0.0
100
AcDbLayout
  1
Layout1
 70
     1
 71
     1
 10
0.0
 20
0.0
 11
420.0
 21
297.0
 12
0.0
 22
0.0
 32
0.0
 14
1.0000000000E+20
 24
1.0000000000E+20
 34
1.0000000000E+20
 15
-1.0000000000E+20
 25
-1.0000000000E+20
 35
-1.0000000000E+20
146
0.0
 13
0.0
 23
0.0
 33
0.0
 16
1.0
 26
0.0
 36
0.0
 17
0.0
 27
1.0
 37
0.0
 76
     0
330
1B
  0
LAYOUT
  5
26
102
{ACAD_REACTORS
330
1A
102
}
330
1A
100
AcDbPlotSettings
  1

  2
none_device
  4

  6

 40
0.0
 41
0.0
 42
0.0
 43
0.0
 44
0.0
 45
0.0
 46
0.0
 47
0.0
 48
0.0
 49
0.0
140
0.0
141
0.0
142
1.0
143
1.0
 70
   688
 72
     1
 73
     0
 74
     5
  7

 75
    16
147
1.0
148
0.0
149
0.0
100
AcDbLayout
  1
Layout2
 70
     1
 71
     2
 10
0.0
 20
0.0
 11
0.0
 21
0.0
 12
0.0
 22
0.0
 32
0.0
 14
0.0
 24
0.0
 34
0.0
 15
0.0
 25
0.0
 35
0.0
146
0.0
 13
0.0
 23
0.0
 33
0.0
 16
1.0
 26
0.0
 36
0.0
 17
0.0
 27
1.0
 37
0.0
 76
     0
330
23
  0
LAYOUT
  5
22
102
{ACAD_REACTORS
330
1A
102
}
330
1A
100
AcDbPlotSettings
  1

  2
none_device
  4
ANSI_A_(11.00_x_8.50_Inches)
  6

 40
6.35
 41
19.05
 42
6.35000508
 43
19.05000254
 44
279.4
 45
215.9
 46
133.34999746
 47
38.9022338714
 48
0.0
 49
0.0
140
0.0
141
0.0
142
0.0563009564
143
1.0
 70
  1696
 72
     0
 73
     0
 74
     0
  7

 75
     0
147
0.0179189148
148
-1300.4909072572
149
0.0
100
AcDbLayout
  1
Model
 70
     1
 71
     0
 10
0.0
 20
0.0
 11
420.0
 21
297.0
 12
0.0
 22
0.0
 32
0.0
 14
-96.7123889804
 24
-25.0
 34
0.0
 15
96.7123889804
 25
94.9247779608
 35
0.0
146
0.0
 13
0.0
 23
0.0
 33
0.0
 16
1.0
 26
0.0
 36
0.0
 17
0.0
 27
1.0
 37
0.0
 76
     0
330
1F
331
29
  0
MLINESTYLE
  5
18
102
{ACAD_REACTORS
330
17
102
}
330
17
100
AcDbMlineStyle
  2
Standard
 70
     0
  3

 62
   256
 51
90.0
 52
90.0
 71
     2
 49
0.5
 62
   256
  6
BYLAYER
 49
-0.5
 62
   256
  6
BYLAYER
  0
ACDBPLACEHOLDER
  5
F
102
{ACAD_REACTORS
330
E
102
}
330
E
  0
SCALE
  5
48
102
{ACAD_REACTORS
330
47
102
}
330
47
100
AcDbScale
 70
     0
300
1:1
140
1.0
141
1.0
290
     1
  0
SCALE
  5
49
102
{ACAD_REACTORS
330
47
102
}
330
47
100
AcDbScale
 70
     0
300
1:2
140
1.0
141
2.0
290
     0
  0
SCALE
  5
4A
102
{ACAD_REACTORS
330
47
102
}
330
47
100
AcDbScale
 70
     0
300
1:4
140
1.0
141
4.0
290
     0
  0
SCALE
  5
4B
102
{ACAD_REACTORS
330
47
102
}
330
47
100
AcDbScale
 70
     0
300
1:5
140
1.0
141
5.0
290
     0
  0
SCALE
  5
4C
102
{ACAD_REACTORS
330
47
102
}
330
47
100
AcDbScale
 70
     0
300
1:8
140
1.0
141
8.0
290
     0
  0
SCALE
  5
4D
102
{ACAD_REACTORS
330
47
102
}
330
47
100
AcDbScale
 70
     0
300
1:10
140
1.0
141
10.0
290
     0
  0
SCALE
  5
4E
102
{ACAD_REACTORS
330
47
102
}
330
47
100
AcDbScale
 70
     0
300
1:16
140
1.0
141
16.0
290
     0
  0
SCALE
  5
4F
102
{ACAD_REACTORS
330
47
102
}
330
47
100
AcDbScale
 70
     0
300
1:20
140
1.0
141
20.0
290
     0
  0
SCALE
  5
50
102
{ACAD_REACTORS
330
47
102
}
330
47
100
AcDbScale
 70
     0
300
1:30
140
1.0
141
30.0
290
     0
  0
SCALE
  5
51
102
{ACAD_REACTORS
330
47
102
}
330
47
100
AcDbScale
 70
     0
300
1:40
140
1.0
141
40.0
290
     0
  0
SCALE
  5
52
102
{ACAD_REACTORS
330
47
102
}
330
47
100
AcDbScale
 70
     0
300
1:50
140
1.0
141
50.0
290
     0
  0
SCALE
  5
53
102
{ACAD_REACTORS
330
47
102
}
330
47
100
AcDbScale
 70
     0
300
1:100
140
1.0
141
100.0
290
     0
  0
SCALE
  5
54
102
{ACAD_REACTORS
330
47
102
}
330
47
100
AcDbScale
 70
     0
300
2:1
140
2.0
141
1.0
290
     0
  0
SCALE
  5
55
102
{ACAD_REACTORS
330
47
102
}
330
47
100
AcDbScale
 70
     0
300
4:1
140
4.0
141
1.0
290
     0
  0
SCALE
  5
56
102
{ACAD_REACTORS
330
47
102
}
330
47
100
AcDbScale
 70
     0
300
8:1
140
8.0
141
1.0
290
     0
  0
SCALE
  5
57
102
{ACAD_REACTORS
330
47
102
}
330
47
100
AcDbScale
 70
     0
300
10:1
140
10.0
141
1.0
290
     0
  0
SCALE
  5
58
102
{ACAD_REACTORS
330
47
102
}
330
47
100
AcDbScale
 70
     0
300
100:1
140
100.0
141
1.0
290
     0
  0
ENDSEC
  0
EOF
