  0
SECTION
  2
HEADER
  9
$ACADVER
  1
AC1015
  9
$ACADMAINTVER
 70
     6
  9
$DWGCODEPAGE
  3
ANSI_1252
  9
$INSBASE
 10
0.0
 20
0.0
 30
0.0
  9
$EXTMIN
 10
-98.6561389148
 20
-98.6561389148
 30
0.0
  9
$EXTMAX
 10
98.6561389148
 20
98.6561389148
 30
0.0
  9
$LIMMIN
 10
0.0
 20
0.0
  9
$LIMMAX
 10
420.0
 20
297.0
  9
$ORTHOMODE
 70
     0
  9
$REGENMODE
 70
     1
  9
$FILLMODE
 70
     1
  9
$QTEXTMODE
 70
     0
  9
$MIRRTEXT
 70
     1
  9
$LTSCALE
 40
1.0
  9
$ATTMODE
 70
     1
  9
$TEXTSIZE
 40
3.5
  9
$TRACEWID
 40
1.0
  9
$TEXTSTYLE
  7
Standard
  9
$CLAYER
  8
0
  9
$CELTYPE
  6
ByLayer
  9
$CECOLOR
 62
   256
  9
$CELTSCALE
 40
1.0
  9
$DISPSILH
 70
     0
  9
$DIMSCALE
 40
1.0
  9
$DIMASZ
 40
3.302
  9
$DIMEXO
 40
0.0
  9
$DIMDLI
 40
3.75
  9
$DIMRND
 40
0.0
  9
$DIMDLE
 40
0.0
  9
$DIMEXE
 40
1.0
  9
$DIMTP
 40
0.0
  9
$DIMTM
 40
0.0
  9
$DIMTXT
 40
3.5
  9
$DIMCEN
 40
2.5
  9
$DIMTSZ
 40
0.0
  9
$DIMTOL
 70
     0
  9
$DIMLIM
 70
     0
  9
$DIMTIH
 70
     1
  9
$DIMTOH
 70
     1
  9
$DIMSE1
 70
     0
  9
$DIMSE2
 70
     0
  9
$DIMTAD
 70
     1
  9
$DIMZIN
 70
     1
  9
$DIMBLK
  1

  9
$DIMASO
 70
     1
  9
$DIMSHO
 70
     1
  9
$DIMPOST
  1

  9
$DIMAPOST
  1

  9
$DIMALT
 70
     0
  9
$DIMALTD
 70
     3
  9
$DIMALTF
 40
0.0393700787
  9
$DIMLFAC
 40
1.0
  9
$DIMTOFL
 70
     1
  9
$DIMTVP
 40
0.0
  9
$DIMTIX
 70
     0
  9
$DIMSOXD
 70
     0
  9
$DIMSAH
 70
     0
  9
$DIMBLK1
  1

  9
$DIMBLK2
  1

  9
$DIMSTYLE
  2
ISO-25
  9
$DIMCLRD
 70
     0
  9
$DIMCLRE
 70
     0
  9
$DIMCLRT
 70
     0
  9
$DIMTFAC
 40
1.0
  9
$DIMGAP
 40
1.524
  9
$DIMJUST
 70
     0
  9
$DIMSD1
 70
     0
  9
$DIMSD2
 70
     0
  9
$DIMTOLJ
 70
     0
  9
$DIMTZIN
 70
     1
  9
$DIMALTZ
 70
     0
  9
$DIMALTTZ
 70
     0
  9
$DIMUPT
 70
     0
  9
$DIMDEC
 70
     2
  9
$DIMTDEC
 70
     2
  9
$DIMALTU
 70
     2
  9
$DIMALTTD
 70
     3
  9
$DIMTXSTY
  7
Standard
  9
$DIMAUNIT
 70
     0
  9
$DIMADEC
 70
     2
  9
$DIMALTRND
 40
0.0
  9
$DIMAZIN
 70
     0
  9
$DIMDSEP
 70
    44
  9
$DIMATFIT
 70
     3
  9
$DIMFRAC
 70
     0
  9
$DIMLDRBLK
  1

  9
$DIMLUNIT
 70
     2
  9
$DIMLWD
 70
    -2
  9
$DIMLWE
 70
    -2
  9
$DIMTMOVE
 70
     0
  9
$LUNITS
 70
     2
  9
$LUPREC
 70
     2
  9
$SKETCHINC
 40
1.0
  9
$FILLETRAD
 40
0.0
  9
$AUNITS
 70
     0
  9
$AUPREC
 70
     2
  9
$MENU
  1
.
  9
$ELEVATION
 40
0.0
  9
$PELEVATION
 40
0.0
  9
$THICKNESS
 40
0.0
  9
$LIMCHECK
 70
     0
  9
$CHAMFERA
 40
0.0
  9
$CHAMFERB
 40
0.0
  9
$CHAMFERC
 40
0.0
  9
$CHAMFERD
 40
0.0
  9
$SKPOLY
 70
     0
  9
$TDCREATE
 40
2460821.975941783
  9
$TDUCREATE
 40
2460821.892608449
  9
$TDUPDATE
 40
2460821.975996227
  9
$TDUUPDATE
 40
2460821.892662894
  9
$TDINDWG
 40
0.0000000116
  9
$TDUSRTIMER
 40
0.0000000116
  9
$USRTIMER
 70
     1
  9
$ANGBASE
 50
0.0
  9
$ANGDIR
 70
     0
  9
$PDMODE
 70
     0
  9
$PDSIZE
 40
-1.0
  9
$PLINEWID
 40
0.0
  9
$SPLFRAME
 70
     0
  9
$SPLINETYPE
 70
     6
  9
$SPLINESEGS
 70
     8
  9
$HANDSEED
  5
1AC
  9
$SURFTAB1
 70
     6
  9
$SURFTAB2
 70
     6
  9
$SURFTYPE
 70
     6
  9
$SURFU
 70
     6
  9
$SURFV
 70
     6
  9
$UCSBASE
  2

  9
$UCSNAME
  2

  9
$UCSORG
 10
0.0
 20
0.0
 30
0.0
  9
$UCSXDIR
 10
1.0
 20
0.0
 30
0.0
  9
$UCSYDIR
 10
0.0
 20
1.0
 30
0.0
  9
$UCSORTHOREF
  2

  9
$UCSORTHOVIEW
 70
     0
  9
$UCSORGTOP
 10
0.0
 20
0.0
 30
0.0
  9
$UCSORGBOTTOM
 10
0.0
 20
0.0
 30
0.0
  9
$UCSORGLEFT
 10
0.0
 20
0.0
 30
0.0
  9
$UCSORGRIGHT
 10
0.0
 20
0.0
 30
0.0
  9
$UCSORGFRONT
 10
0.0
 20
0.0
 30
0.0
  9
$UCSORGBACK
 10
0.0
 20
0.0
 30
0.0
  9
$PUCSBASE
  2

  9
$PUCSNAME
  2

  9
$PUCSORG
 10
0.0
 20
0.0
 30
0.0
  9
$PUCSXDIR
 10
1.0
 20
0.0
 30
0.0
  9
$PUCSYDIR
 10
0.0
 20
1.0
 30
0.0
  9
$PUCSORTHOREF
  2

  9
$PUCSORTHOVIEW
 70
     0
  9
$PUCSORGTOP
 10
0.0
 20
0.0
 30
0.0
  9
$PUCSORGBOTTOM
 10
0.0
 20
0.0
 30
0.0
  9
$PUCSORGLEFT
 10
0.0
 20
0.0
 30
0.0
  9
$PUCSORGRIGHT
 10
0.0
 20
0.0
 30
0.0
  9
$PUCSORGFRONT
 10
0.0
 20
0.0
 30
0.0
  9
$PUCSORGBACK
 10
0.0
 20
0.0
 30
0.0
  9
$USERI1
 70
     0
  9
$USERI2
 70
     0
  9
$USERI3
 70
     0
  9
$USERI4
 70
     0
  9
$USERI5
 70
     0
  9
$USERR1
 40
0.0
  9
$USERR2
 40
0.0
  9
$USERR3
 40
0.0
  9
$USERR4
 40
0.0
  9
$USERR5
 40
0.0
  9
$WORLDVIEW
 70
     1
  9
$SHADEDGE
 70
     3
  9
$SHADEDIF
 70
    70
  9
$TILEMODE
 70
     1
  9
$MAXACTVP
 70
    64
  9
$PINSBASE
 10
0.0
 20
0.0
 30
0.0
  9
$PLIMCHECK
 70
     0
  9
$PEXTMIN
 10
1.0000000000E+20
 20
1.0000000000E+20
 30
1.0000000000E+20
  9
$PEXTMAX
 10
-1.0000000000E+20
 20
-1.0000000000E+20
 30
-1.0000000000E+20
  9
$PLIMMIN
 10
0.0
 20
0.0
  9
$PLIMMAX
 10
420.0
 20
297.0
  9
$UNITMODE
 70
     0
  9
$VISRETAIN
 70
     1
  9
$PLINEGEN
 70
     0
  9
$PSLTSCALE
 70
     1
  9
$TREEDEPTH
 70
  3020
  9
$CMLSTYLE
  2
Standard
  9
$CMLJUST
 70
     0
  9
$CMLSCALE
 40
20.0
  9
$PROXYGRAPHICS
 70
     1
  9
$MEASUREMENT
 70
     1
  9
$CELWEIGHT
370
    -1
  9
$ENDCAPS
280
     0
  9
$JOINSTYLE
280
     0
  9
$LWDISPLAY
290
     1
  9
$INSUNITS
 70
     4
  9
$HYPERLINKBASE
  1

  9
$STYLESHEET
  1

  9
$XEDIT
290
     1
  9
$CEPSNTYPE
380
     0
  9
$PSTYLEMODE
290
     1
  9
$FINGERPRINTGUID
  2
{4f027a1d-0985-4d4b-a9f2-29af3b45f5bb}
  9
$VERSIONGUID
  2
{FAEB1C32-E019-11D5-929B-00C0DF256EC4}
  9
$EXTNAMES
290
     1
  9
$PSVPSCALE
 40
0.0
  9
$OLESTARTUP
290
     0
  0
ENDSEC
  0
SECTION
  2
CLASSES
  0
CLASS
  1
ACDBDICTIONARYWDFLT
  2
AcDbDictionaryWithDefault
  3
ObjectDBX Classes
 90
        0
280
     0
281
     0
  0
CLASS
  1
VISUALSTYLE
  2
AcDbVisualStyle
  3
ObjectDBX Classes
 90
     4095
280
     0
281
     0
  0
CLASS
  1
MATERIAL
  2
AcDbMaterial
  3
ObjectDBX Classes
 90
     1153
280
     0
281
     0
  0
CLASS
  1
SCALE
  2
AcDbScale
  3
ObjectDBX Classes
 90
     1153
280
     0
281
     0
  0
CLASS
  1
TABLESTYLE
  2
AcDbTableStyle
  3
ObjectDBX Classes
 90
     4095
280
     0
281
     0
  0
CLASS
  1
MLEADERSTYLE
  2
AcDbMLeaderStyle
  3
ACDB_MLEADERSTYLE_CLASS
 90
     4095
280
     0
281
     0
  0
CLASS
  1
SUN
  2
AcDbSun
  3
SCENEOE
 90
     1153
280
     0
281
     0
  0
CLASS
  1
ACDBPLACEHOLDER
  2
AcDbPlaceHolder
  3
ObjectDBX Classes
 90
        0
280
     0
281
     0
  0
CLASS
  1
LAYOUT
  2
AcDbLayout
  3
ObjectDBX Classes
 90
        0
280
     0
281
     0
  0
ENDSEC
  0
SECTION
  2
TABLES
  0
TABLE
  2
VPORT
  5
8
330
0
100
AcDbSymbolTable
 70
     1
  0
VPORT
  5
29
330
8
100
AcDbSymbolTableRecord
100
AcDbViewportTableRecord
  2
*Active
 70
     0
 10
0.0
 20
0.0
 11
1.0
 21
1.0
 12
0.0
 22
0.0
 13
0.0
 23
0.0
 14
10.0
 24
10.0
 15
10.0
 25
10.0
 16
0.0
 26
0.0
 36
1.0
 17
0.0
 27
0.0
 37
0.0
 40
201.2585233862
 41
1.0
 42
50.0
 43
0.0
 44
0.0
 50
0.0
 51
0.0
 71
     0
 72
   100
 73
     1
 74
     3
 75
     0
 76
     0
 77
     0
 78
     0
281
     0
 65
     1
110
0.0
120
0.0
130
0.0
111
1.0
121
0.0
131
0.0
112
0.0
122
1.0
132
0.0
 79
     0
146
0.0
  0
ENDTAB
  0
TABLE
  2
LTYPE
  5
5
330
0
100
AcDbSymbolTable
 70
     6
  0
LTYPE
  5
14
330
5
100
AcDbSymbolTableRecord
100
AcDbLinetypeTableRecord
  2
ByBlock
 70
     0
  3

 72
    65
 73
     0
 40
0.0
  0
LTYPE
  5
15
330
5
100
AcDbSymbolTableRecord
100
AcDbLinetypeTableRecord
  2
ByLayer
 70
     0
  3

 72
    65
 73
     0
 40
0.0
  0
LTYPE
  5
16
330
5
100
AcDbSymbolTableRecord
100
AcDbLinetypeTableRecord
  2
Continuous
 70
     0
  3
Solid line
 72
    65
 73
     0
 40
0.0
  0
LTYPE
  5
5E
330
5
100
AcDbSymbolTableRecord
100
AcDbLinetypeTableRecord
  2
HIDDEN
 70
     0
  3
Hidden __ __ __ __ __ __ __ __ __ __ __ __ __ __
 72
    65
 73
     2
 40
1.905
 49
1.27
 74
     0
 49
-0.635
 74
     0
  0
LTYPE
  5
5F
330
5
100
AcDbSymbolTableRecord
100
AcDbLinetypeTableRecord
  2
PHANTOM
 70
     0
  3
Phantom ______  __  __  ______  __  __  ______
 72
    65
 73
     6
 40
12.7
 49
6.35
 74
     0
 49
-1.27
 74
     0
 49
1.27
 74
     0
 49
-1.27
 74
     0
 49
1.27
 74
     0
 49
-1.27
 74
     0
  0
LTYPE
  5
60
330
5
100
AcDbSymbolTableRecord
100
AcDbLinetypeTableRecord
  2
CENTER
 70
     0
  3
Center ____ _ ____ _ ____ _ ____ _ ____ _ ____
 72
    65
 73
     4
 40
10.16
 49
6.35
 74
     0
 49
-1.27
 74
     0
 49
1.27
 74
     0
 49
-1.27
 74
     0
  0
LTYPE
  5
61
330
5
100
AcDbSymbolTableRecord
100
AcDbLinetypeTableRecord
  2
CENTERX2
 70
     0
  3
Center (2x) ________  __  ________  __  _____
 72
    65
 73
     4
 40
20.32
 49
12.7
 74
     0
 49
-2.54
 74
     0
 49
2.54
 74
     0
 49
-2.54
 74
     0
  0
LTYPE
  5
62
330
5
100
AcDbSymbolTableRecord
100
AcDbLinetypeTableRecord
  2
DOT2
 70
     0
  3
Dot (.5x) ........................................
 72
    65
 73
     2
 40
0.635
 49
0.0
 74
     0
 49
-0.635
 74
     0
  0
ENDTAB
  0
TABLE
  2
LAYER
  5
2
330
0
100
AcDbSymbolTable
 70
     1
  0
LAYER
  5
10
330
2
100
AcDbSymbolTableRecord
100
AcDbLayerTableRecord
  2
0
 70
     0
 62
     7
  6
Continuous
370
    -3
390
F
  0
ENDTAB
  0
TABLE
  2
STYLE
  5
3
330
0
100
AcDbSymbolTable
 70
     1
  0
STYLE
  5
11
330
3
100
AcDbSymbolTableRecord
100
AcDbTextStyleTableRecord
  2
Standard
 70
     0
 40
0.0
 41
1.0
 50
0.0
 71
     0
 42
3.5
  3
txt
  4

  0
ENDTAB
  0
TABLE
  2
VIEW
  5
6
330
0
100
AcDbSymbolTable
 70
     0
  0
ENDTAB
  0
TABLE
  2
UCS
  5
7
330
0
100
AcDbSymbolTable
 70
     0
  0
ENDTAB
  0
TABLE
  2
APPID
  5
9
330
0
100
AcDbSymbolTable
 70
     1
  0
APPID
  5
12
330
9
100
AcDbSymbolTableRecord
100
AcDbRegAppTableRecord
  2
ACAD
 70
     0
  0
ENDTAB
  0
TABLE
  2
DIMSTYLE
  5
A
330
0
100
AcDbSymbolTable
 70
     1
100
AcDbDimStyleTable
  0
DIMSTYLE
105
27
330
A
100
AcDbSymbolTableRecord
100
AcDbDimStyleTableRecord
  2
ISO-25
 70
     0
 41
2.5
 42
0.625
 43
3.75
 44
1.25
 73
     0
 74
     0
 77
     1
 78
     8
140
2.5
141
2.5
143
0.0393700787
147
0.625
171
     3
172
     1
178
     0
271
     2
272
     2
274
     3
278
    44
283
     0
284
     8
340
11
  0
ENDTAB
  0
TABLE
  2
BLOCK_RECORD
  5
1
330
0
100
AcDbSymbolTable
 70
     1
  0
BLOCK_RECORD
  5
1F
330
1
100
AcDbSymbolTableRecord
100
AcDbBlockTableRecord
  2
*Model_Space
340
22
  0
BLOCK_RECORD
  5
1B
330
1
100
AcDbSymbolTableRecord
100
AcDbBlockTableRecord
  2
*Paper_Space
340
1E
  0
BLOCK_RECORD
  5
23
330
1
100
AcDbSymbolTableRecord
100
AcDbBlockTableRecord
  2
*Paper_Space0
340
26
  0
ENDTAB
  0
ENDSEC
  0
SECTION
  2
BLOCKS
  0
BLOCK
  5
20
330
1F
100
AcDbEntity
  8
0
100
AcDbBlockBegin
  2
*Model_Space
 70
     0
 10
0.0
 20
0.0
 30
0.0
  3
*Model_Space
  1

  0
ENDBLK
  5
21
330
1F
100
AcDbEntity
  8
0
100
AcDbBlockEnd
  0
BLOCK
  5
1C
330
1B
100
AcDbEntity
 67
     1
  8
0
100
AcDbBlockBegin
  2
*Paper_Space
 70
     0
 10
0.0
 20
0.0
 30
0.0
  3
*Paper_Space
  1

  0
ENDBLK
  5
1D
330
1B
100
AcDbEntity
 67
     1
  8
0
100
AcDbBlockEnd
  0
BLOCK
  5
24
330
23
100
AcDbEntity
  8
0
100
AcDbBlockBegin
  2
*Paper_Space0
 70
     0
 10
0.0
 20
0.0
 30
0.0
  3
*Paper_Space0
  1

  0
ENDBLK
  5
25
330
23
100
AcDbEntity
  8
0
100
AcDbBlockEnd
  0
ENDSEC
  0
SECTION
  2
ENTITIES
  0
LINE
  5
63
330
1F
100
AcDbEntity
  8
0
  6
Continuous
 62
     7
100
AcDbLine
 10
43.2928932188
 20
43.9634954085
 30
0.0
 11
-43.2928932188
 21
43.9634954085
 31
0.0
  0
LINE
  5
64
330
1F
100
AcDbEntity
  8
0
  6
Continuous
 62
     7
100
AcDbLine
 10
-43.9634954085
 20
43.2928932188
 30
0.0
 11
-43.9634954085
 21
-43.2928932188
 31
0.0
  0
LINE
  5
65
330
1F
100
AcDbEntity
  8
0
  6
Continuous
 62
     7
100
AcDbLine
 10
-43.2928932188
 20
-43.9634954085
 30
0.0
 11
43.2928932188
 21
-43.9634954085
 31
0.0
  0
LINE
  5
66
330
1F
100
AcDbEntity
  8
0
  6
Continuous
 62
     7
100
AcDbLine
 10
43.9634954085
 20
-43.2928932188
 30
0.0
 11
43.9634954085
 21
43.2928932188
 31
0.0
  0
LINE
  5
67
330
1F
100
AcDbEntity
  8
0
  6
HIDDEN
 62
     7
100
AcDbLine
 10
10.0
 20
61.8904862255
 30
0.0
 11
-10.0
 21
61.8904862255
 31
0.0
  0
LINE
  5
68
330
1F
100
AcDbEntity
  8
0
  6
HIDDEN
 62
     7
100
AcDbLine
 10
-61.8904862255
 20
10.0
 30
0.0
 11
-61.8904862255
 21
-10.0
 31
0.0
  0
LINE
  5
69
330
1F
100
AcDbEntity
  8
0
  6
HIDDEN
 62
     7
100
AcDbLine
 10
-10.0
 20
-61.8904862255
 30
0.0
 11
10.0
 21
-61.8904862255
 31
0.0
  0
LINE
  5
6A
330
1F
100
AcDbEntity
  8
0
  6
HIDDEN
 62
     7
100
AcDbLine
 10
61.8904862255
 20
-10.0
 30
0.0
 11
61.8904862255
 21
10.0
 31
0.0
  0
LINE
  5
6B
330
1F
100
AcDbEntity
  8
0
  6
CENTERX2
 62
     7
100
AcDbLine
 10
-98.6561389148
 20
38.8443520927
 30
0.0
 11
38.8443520927
 21
98.6561389148
 31
0.0
  0
LINE
  5
6C
330
1F
100
AcDbEntity
  8
0
  6
CENTERX2
 62
     7
100
AcDbLine
 10
-38.8443520927
 20
-98.6561389148
 30
0.0
 11
98.6561389148
 21
-38.8443520927
 31
0.0
  0
LINE
  5
6D
330
1F
100
AcDbEntity
  8
0
  6
CENTERX2
 62
     7
100
AcDbLine
 10
-98.6561389148
 20
38.8443520927
 30
0.0
 11
-38.8443520927
 21
-98.6561389148
 31
0.0
  0
LINE
  5
6E
330
1F
100
AcDbEntity
  8
0
  6
CENTERX2
 62
     7
100
AcDbLine
 10
38.8443520927
 20
98.6561389148
 30
0.0
 11
98.6561389148
 21
-38.8443520927
 31
0.0
  0
CIRCLE
  5
6F
330
1F
100
AcDbEntity
  8
0
  6
Continuous
 62
     7
370
    25
100
AcDbCircle
 10
70.853981634
 20
0.0
 30
0.0
 40
5.0
  0
CIRCLE
  5
70
330
1F
100
AcDbEntity
  8
0
  6
Continuous
 62
     7
370
    25
100
AcDbCircle
 10
0.0
 20
-70.853981634
 30
0.0
 40
5.000000000000014
  0
CIRCLE
  5
71
330
1F
100
AcDbEntity
  8
0
  6
Continuous
 62
     7
370
    25
100
AcDbCircle
 10
-70.853981634
 20
0.0
 30
0.0
 40
5.0
  0
CIRCLE
  5
72
330
1F
100
AcDbEntity
  8
0
  6
Continuous
 62
     7
370
    25
100
AcDbCircle
 10
0.0
 20
70.853981634
 30
0.0
 40
5.000000000000014
  0
SPLINE
  5
B1
330
1F
100
AcDbEntity
  8
0
  6
Continuous
 62
     7
370
    25
100
AcDbSpline
210
0.0
220
0.0
230
1.0
 70
     8
 71
     3
 72
    23
 73
    19
 74
     0
 42
0.00000001
 43
0.00000001
 40
0.5102083669263502
 40
0.5102083669263502
 40
0.5102083669263502
 40
0.5102083669263502
 40
0.5156238960830816
 40
0.5312499946714672
 40
0.5468738960830409
 40
0.5624999946713949
 40
0.5781238960828664
 40
0.5937499946713205
 40
0.6093738960826179
 40
0.6249999946712476
 40
0.6406238960826356
 40
0.6562499946711756
 40
0.6718738960826397
 40
0.6874999946711025
 40
0.703123896082564
 40
0.7187499946710298
 40
0.7343738960825577
 40
0.739791623795031
 40
0.739791623795031
 40
0.739791623795031
 40
0.739791623795031
 10
-39.91807322786632
 20
2.563931332310847
 30
0.0
 10
-39.88906825695266
 20
3.016692668518334
 30
0.0
 10
-39.74638538026756
 20
4.773926586946486
 30
0.0
 10
-39.2940649363483
 20
7.815888025190164
 30
0.0
 10
-38.34006721494969
 20
11.63023513069156
 30
0.0
 10
-37.01423638510595
 20
15.33159971013633
 30
0.0
 10
-35.33442725731923
 20
18.88653948288359
 30
0.0
 10
-33.31197148741798
 20
22.25812661626842
 30
0.0
 10
-30.97090507598543
 20
25.4170447144452
 30
0.0
 10
-28.32954620703194
 20
28.32928619905371
 30
0.0
 10
-25.41718838125
 20
30.97078717169198
 30
0.0
 10
-22.2584323532879
 20
33.31176720047068
 30
0.0
 10
-18.88670339113972
 20
35.33433964653813
 30
0.0
 10
-15.33193942688422
 20
37.01409566982069
 30
0.0
 10
-11.63041298150188
 20
38.34001326449493
 30
0.0
 10
-7.816248666555625
 20
39.29399320032039
 30
0.0
 10
-4.774109992508024
 20
39.74636142818407
 30
0.0
 10
-3.016876526007118
 20
39.8890563993352
 30
0.0
 10
-2.56393130958229
 20
39.91807313969579
 30
0.0
  0
SPLINE
  5
B5
330
1F
100
AcDbEntity
  8
0
  6
Continuous
 62
     7
370
    25
100
AcDbSpline
210
0.0
220
0.0
230
1.0
 70
     8
 71
     3
 72
    23
 73
    19
 74
     0
 42
0.00000001
 43
0.00000001
 40
0.0102083860694472
 40
0.0102083860694472
 40
0.0102083860694472
 40
0.0102083860694472
 40
0.0156244480040184
 40
0.0312499946726336
 40
0.0468738960840406
 40
0.0624999946725598
 40
0.0781238960839393
 40
0.0937499946724875
 40
0.1093738960837632
 40
0.124999994672413
 40
0.140623896083644
 40
0.1562499946723413
 40
0.1718738960837376
 40
0.1874999946722688
 40
0.2031238960837302
 40
0.2187499946721961
 40
0.2343738960837238
 40
0.239791623796197
 40
0.239791623796197
 40
0.239791623796197
 40
0.239791623796197
 10
39.91806102499388
 20
-2.563934298796035
 30
0.0
 10
39.88905185492276
 20
-3.016740086018358
 30
0.0
 10
39.74636344161716
 20
-4.773972035796254
 30
0.0
 10
39.29405950035933
 20
-7.815933705907852
 30
0.0
 10
38.34006566162952
 20
-11.63023492418135
 30
0.0
 10
37.01423680128211
 20
-15.33159976544062
 30
0.0
 10
35.33442714580753
 20
-18.88653946805516
 30
0.0
 10
33.31197151730238
 20
-22.25812662023249
 30
0.0
 10
30.97090506797496
 20
-25.41704471337553
 30
0.0
 10
28.3295462091883
 20
-28.32928619932888
 30
0.0
 10
25.41718838068573
 20
-30.97078717160772
 30
0.0
 10
22.25843235345737
 20
-33.31176720048021
 30
0.0
 10
18.88670339110488
 20
-35.33433964653253
 30
0.0
 10
15.33193942690033
 20
-37.01409566981954
 30
0.0
 10
11.63041298149899
 20
-38.34001326449473
 30
0.0
 10
7.816248666556391
 20
-39.29399320032046
 30
0.0
 10
4.774109992508064
 20
-39.74636142818404
 30
0.0
 10
3.016876526007088
 20
-39.8890563993352
 30
0.0
 10
2.56393130958227
 20
-39.91807313969581
 30
0.0
  0
SPLINE
  5
BA
330
1F
100
AcDbEntity
  8
0
  6
Continuous
 62
     7
370
    25
100
AcDbSpline
210
0.0
220
0.0
230
1.0
 70
     8
 71
     3
 72
    23
 73
    19
 74
     0
 42
0.00000001
 43
0.00000001
 40
0.7602083669257685
 40
0.7602083669257685
 40
0.7602083669257685
 40
0.7602083669257685
 40
0.7656238960825049
 40
0.7812499946708845
 40
0.7968738960824643
 40
0.8124999946708121
 40
0.8281238960823538
 40
0.8437499946707382
 40
0.8593738960821948
 40
0.8749999946706654
 40
0.8906238960822125
 40
0.9062499946705933
 40
0.921873896082127
 40
0.9374999946705195
 40
0.9531238960819809
 40
0.9687499946704469
 40
0.9843744480790442
 40
0.9897916429459432
 40
0.9897916429459432
 40
0.9897916429459432
 40
0.9897916429459432
 10
2.563931332311186
 20
39.91807322786695
 30
0.0
 10
3.016692668519097
 20
39.88906825695311
 30
0.0
 10
4.773926586947143
 20
39.74638538026717
 30
0.0
 10
7.815888025190303
 20
39.29406493634814
 30
0.0
 10
11.63023513069508
 20
38.34006721494983
 30
0.0
 10
15.33159971013092
 20
37.01423638510163
 30
0.0
 10
18.88653948293154
 20
35.33442725732458
 30
0.0
 10
22.25812661612994
 20
33.31197148738631
 30
0.0
 10
25.41704471503122
 20
30.97090507605412
 30
0.0
 10
28.32928619692622
 20
28.32954620672773
 30
0.0
 10
30.97078717970924
 20
25.41718838230381
 30
0.0
 10
33.31176717058698
 20
22.2584323492981
 30
0.0
 10
35.33433975809625
 20
18.88670340596344
 30
0.0
 10
37.01409525344095
 20
15.33193937152559
 30
0.0
 10
38.34001481829752
 20
11.63041318806284
 30
0.0
 10
39.29399863504576
 20
7.816202979156204
 30
0.0
 10
39.74638337352122
 20
4.774064537229077
 30
0.0
 10
39.88907280571895
 20
3.016829101277449
 30
0.0
 10
39.91808534555157
 20
2.563928341499559
 30
0.0
  0
SPLINE
  5
C1
330
1F
100
AcDbEntity
  8
0
  6
Continuous
 62
     7
370
    25
100
AcDbSpline
210
0.0
220
0.0
230
1.0
 70
     8
 71
     3
 72
    23
 73
    19
 74
     0
 42
0.00000001
 43
0.00000001
 40
0.2602083669269354
 40
0.2602083669269354
 40
0.2602083669269354
 40
0.2602083669269354
 40
0.265623896083671
 40
0.2812499946720505
 40
0.2968738960834206
 40
0.3124999946719761
 40
0.3281238960832399
 40
0.3437499946719036
 40
0.3593738960833801
 40
0.3749999946718324
 40
0.3906238960833978
 40
0.4062499946717587
 40
0.4218738960832227
 40
0.4374999946716855
 40
0.4531238960829048
 40
0.4687499946716104
 40
0.4843738960828983
 40
0.4897916237956219
 40
0.4897916237956219
 40
0.4897916237956219
 40
0.4897916237956219
 10
-2.563931332311238
 20
-39.91807322786676
 30
0.0
 10
-3.016692668519098
 20
-39.88906825695294
 30
0.0
 10
-4.773926586947217
 20
-39.74638538026718
 30
0.0
 10
-7.815888025174307
 20
-39.29406493635301
 30
0.0
 10
-11.63023513067283
 20
-38.34006721494641
 30
0.0
 10
-15.33159971010429
 20
-37.01423638511913
 30
0.0
 10
-18.88653948287235
 20
-35.33442725733523
 30
0.0
 10
-22.25812661626491
 20
-33.3119714874173
 30
0.0
 10
-25.41704471446158
 20
-30.97090507598193
 30
0.0
 10
-28.32928619907483
 20
-28.32954620701061
 30
0.0
 10
-30.97078717169599
 20
-25.41718838123393
 30
0.0
 10
-33.31176720048009
 20
-22.25843235327624
 30
0.0
 10
-35.3343396465371
 20
-18.88670339113918
 30
0.0
 10
-37.01409566981457
 20
-15.33193942690348
 30
0.0
 10
-38.34001326447984
 20
-11.63041298151846
 30
0.0
 10
-39.2939932003125
 20
-7.816248666595376
 30
0.0
 10
-39.746361428189
 20
-4.774109992528159
 30
0.0
 10
-39.88905639933923
 20
-3.016876526026341
 30
0.0
 10
-39.9180731397004
 20
-2.563931309580547
 30
0.0
  0
SPLINE
  5
CE
330
1F
100
AcDbEntity
  8
0
  6
Continuous
 62
     7
370
    25
100
AcDbSpline
210
0.0
220
0.0
230
1.0
 70
     8
 71
     3
 72
    15
 73
    11
 74
     0
 42
0.00000001
 43
0.00000001
 40
0.2742082116644199
 40
0.2742082116644199
 40
0.2742082116644199
 40
0.2742082116644199
 40
0.2812500000000001
 40
0.3125000000000001
 40
0.3437500000000001
 40
0.3750000000000001
 40
0.4062500000000001
 40
0.4375000000000001
 40
0.46875
 40
0.4757917883355803
 40
0.4757917883355803
 40
0.4757917883355803
 40
0.4757917883355803
 10
-2.348541297529203
 20
-15.32101299289923
 30
0.0
 10
-2.574501948705581
 20
-15.28638985906721
 30
0.0
 10
-3.799059843178932
 20
-15.07093885114985
 30
0.0
 10
-5.969829400985721
 20
-14.41244310491338
 30
0.0
 10
-8.666848969381903
 20
-12.97085611172842
 30
0.0
 10
-11.03080639230965
 20
-11.03080639230965
 30
0.0
 10
-12.97085611172842
 20
-8.666848969381912
 30
0.0
 10
-14.41244310491338
 20
-5.969829400985724
 30
0.0
 10
-15.07093885114985
 20
-3.79905984317893
 30
0.0
 10
-15.28638985906721
 20
-2.574501948705577
 30
0.0
 10
-15.32101299289924
 20
-2.348541297529195
 30
0.0
  0
SPLINE
  5
D4
330
1F
100
AcDbEntity
  8
0
  6
Continuous
 62
     7
370
    25
100
AcDbSpline
210
0.0
220
0.0
230
1.0
 70
     8
 71
     3
 72
    15
 73
    11
 74
     0
 42
0.00000001
 43
0.00000001
 40
0.2628489534566137
 40
0.2628489534566137
 40
0.2628489534566137
 40
0.2628489534566137
 40
0.28125
 40
0.3125
 40
0.3437499999999999
 40
0.375
 40
0.40625
 40
0.4374999999999999
 40
0.4687499999999999
 40
0.4871510465433854
 40
0.4871510465433854
 40
0.4871510465433854
 40
0.4871510465433854
 10
-2.419328087596587
 20
-29.90217809403244
 30
0.0
 10
-3.57173467176052
 20
-29.80890725428683
 30
0.0
 10
-6.666729485685167
 20
-29.37774273046949
 30
0.0
 10
-11.55450851803688
 20
-27.89505117080009
 30
0.0
 10
-16.77454639235208
 20
-25.10488279689371
 30
0.0
 10
-21.34994785608318
 20
-21.3499478560832
 30
0.0
 10
-25.10488279689372
 20
-16.77454639235209
 30
0.0
 10
-27.8950511708001
 20
-11.55450851803688
 30
0.0
 10
-29.37774273046947
 20
-6.666729485685232
 30
0.0
 10
-29.80890725428681
 20
-3.571734671760631
 30
0.0
 10
-29.90217809403243
 20
-2.41932808759675
 30
0.0
  0
SPLINE
  5
D7
330
1F
100
AcDbEntity
  8
0
  6
Continuous
 62
     7
370
    25
100
AcDbSpline
210
0.0
220
0.0
230
1.0
 70
     8
 71
     3
 72
    15
 73
    11
 74
     0
 42
0.00000001
 43
0.00000001
 40
0.7628489534566147
 40
0.7628489534566147
 40
0.7628489534566147
 40
0.7628489534566147
 40
0.78125
 40
0.8125
 40
0.8437499999999999
 40
0.8749999999999999
 40
0.90625
 40
0.9374999999999999
 40
0.9687499999999999
 40
0.9871510465433853
 40
0.9871510465433853
 40
0.9871510465433853
 40
0.9871510465433853
 10
2.419328087596769
 20
29.90217809403242
 30
0.0
 10
3.57173467176064
 20
29.80890725428681
 30
0.0
 10
6.666729485685233
 20
29.37774273046947
 30
0.0
 10
11.55450851803688
 20
27.89505117080009
 30
0.0
 10
16.77454639235208
 20
25.10488279689372
 30
0.0
 10
21.34994785608319
 20
21.34994785608318
 30
0.0
 10
25.1048827968937
 20
16.77454639235209
 30
0.0
 10
27.89505117080009
 20
11.55450851803689
 30
0.0
 10
29.37774273046947
 20
6.666729485685241
 30
0.0
 10
29.80890725428682
 20
3.571734671760637
 30
0.0
 10
29.90217809403244
 20
2.419328087596755
 30
0.0
  0
SPLINE
  5
DA
330
1F
100
AcDbEntity
  8
0
  6
Continuous
 62
     7
370
    25
100
AcDbSpline
210
0.0
220
0.0
230
1.0
 70
     8
 71
     3
 72
    15
 73
    11
 74
     0
 42
0.00000001
 43
0.00000001
 40
0.0242082116644198
 40
0.0242082116644198
 40
0.0242082116644198
 40
0.0242082116644198
 40
0.03125
 40
0.0625
 40
0.09375
 40
0.1250000000000001
 40
0.1562500000000001
 40
0.1875000000000001
 40
0.2187500000000001
 40
0.2257917883355803
 40
0.2257917883355803
 40
0.2257917883355803
 40
0.2257917883355803
 10
15.32101299289923
 20
-2.348541297529198
 30
0.0
 10
15.28638985906721
 20
-2.574501948705577
 30
0.0
 10
15.07093885114985
 20
-3.799059843178932
 30
0.0
 10
14.41244310491337
 20
-5.96982940098572
 30
0.0
 10
12.97085611172843
 20
-8.666848969381912
 30
0.0
 10
11.03080639230965
 20
-11.03080639230965
 30
0.0
 10
8.666848969381906
 20
-12.97085611172842
 30
0.0
 10
5.969829400985727
 20
-14.41244310491338
 30
0.0
 10
3.799059843178931
 20
-15.07093885114985
 30
0.0
 10
2.574501948705575
 20
-15.28638985906721
 30
0.0
 10
2.348541297529194
 20
-15.32101299289924
 30
0.0
  0
SPLINE
  5
DF
330
1F
100
AcDbEntity
  8
0
  6
Continuous
 62
     7
370
    25
100
AcDbSpline
210
0.0
220
0.0
230
1.0
 70
     8
 71
     3
 72
    15
 73
    11
 74
     0
 42
0.00000001
 43
0.00000001
 40
0.5242082116644199
 40
0.5242082116644199
 40
0.5242082116644199
 40
0.5242082116644199
 40
0.5312500000000001
 40
0.5625
 40
0.59375
 40
0.625
 40
0.6562500000000001
 40
0.6875
 40
0.71875
 40
0.7257917883355803
 40
0.7257917883355803
 40
0.7257917883355803
 40
0.7257917883355803
 10
-15.32101299289923
 20
2.348541297529198
 30
0.0
 10
-15.28638985906721
 20
2.574501948705578
 30
0.0
 10
-15.07093885114985
 20
3.799059843178932
 30
0.0
 10
-14.41244310491338
 20
5.969829400985727
 30
0.0
 10
-12.97085611172843
 20
8.6668489693819
 30
0.0
 10
-11.03080639230965
 20
11.03080639230965
 30
0.0
 10
-8.666848969381913
 20
12.97085611172841
 30
0.0
 10
-5.969829400985728
 20
14.41244310491337
 30
0.0
 10
-3.799059843178935
 20
15.07093885114985
 30
0.0
 10
-2.574501948705577
 20
15.28638985906721
 30
0.0
 10
-2.348541297529194
 20
15.32101299289924
 30
0.0
  0
SPLINE
  5
E7
330
1F
100
AcDbEntity
  8
0
  6
Continuous
 62
     7
370
    25
100
AcDbSpline
210
0.0
220
0.0
230
1.0
 70
     8
 71
     3
 72
    15
 73
    11
 74
     0
 42
0.00000001
 43
0.00000001
 40
0.7742082116644198
 40
0.7742082116644198
 40
0.7742082116644198
 40
0.7742082116644198
 40
0.78125
 40
0.8125000000000001
 40
0.84375
 40
0.875
 40
0.90625
 40
0.9374999999999999
 40
0.9687499999999999
 40
0.9757917883355802
 40
0.9757917883355802
 40
0.9757917883355802
 40
0.9757917883355802
 10
2.348541297529199
 20
15.32101299289923
 30
0.0
 10
2.574501948705579
 20
15.28638985906721
 30
0.0
 10
3.799059843178937
 20
15.07093885114985
 30
0.0
 10
5.969829400985716
 20
14.41244310491338
 30
0.0
 10
8.666848969381906
 20
12.97085611172842
 30
0.0
 10
11.03080639230965
 20
11.03080639230965
 30
0.0
 10
12.97085611172842
 20
8.666848969381908
 30
0.0
 10
14.41244310491338
 20
5.96982940098573
 30
0.0
 10
15.07093885114985
 20
3.799059843178935
 30
0.0
 10
15.28638985906721
 20
2.574501948705578
 30
0.0
 10
15.32101299289923
 20
2.348541297529195
 30
0.0
  0
SPLINE
  5
EA
330
1F
100
AcDbEntity
  8
0
  6
Continuous
 62
     7
370
    25
100
AcDbSpline
210
0.0
220
0.0
230
1.0
 70
     8
 71
     3
 72
    15
 73
    11
 74
     0
 42
0.00000001
 43
0.00000001
 40
0.7718703778778754
 40
0.7718703778778754
 40
0.7718703778778754
 40
0.7718703778778754
 40
0.78125
 40
0.8125
 40
0.8437499999999999
 40
0.875
 40
0.90625
 40
0.9374999999999999
 40
0.96875
 40
0.9781296221221246
 40
0.9781296221221246
 40
0.9781296221221246
 40
0.9781296221221246
 10
2.636930777526612
 20
19.06848321887804
 30
0.0
 10
3.011527941810921
 20
19.0167015869787
 30
0.0
 10
4.627555439453181
 20
18.74462658594419
 30
0.0
 10
7.414142965740334
 20
17.89932450126339
 30
0.0
 10
10.76366726842592
 20
16.10896646134013
 30
0.0
 10
13.69954987432004
 20
13.69954987432005
 30
0.0
 10
16.10896646134013
 20
10.76366726842592
 30
0.0
 10
17.89932450126339
 20
7.414142965740333
 30
0.0
 10
18.74462658594418
 20
4.627555439453197
 30
0.0
 10
19.01670158697869
 20
3.011527941810926
 30
0.0
 10
19.06848321887804
 20
2.636930777526616
 30
0.0
  0
SPLINE
  5
EC
330
1F
100
AcDbEntity
  8
0
  6
Continuous
 62
     7
370
    25
100
AcDbSpline
210
0.0
220
0.0
230
1.0
 70
     8
 71
     3
 72
    15
 73
    11
 74
     0
 42
0.00000001
 43
0.00000001
 40
0.5128489534566146
 40
0.5128489534566146
 40
0.5128489534566146
 40
0.5128489534566146
 40
0.53125
 40
0.5625
 40
0.5937499999999999
 40
0.625
 40
0.65625
 40
0.6874999999999999
 40
0.7187499999999999
 40
0.7371510465433863
 40
0.7371510465433863
 40
0.7371510465433863
 40
0.7371510465433863
 10
-29.90217809403243
 20
2.419328087596761
 30
0.0
 10
-29.80890725428681
 20
3.571734671760637
 30
0.0
 10
-29.37774273046947
 20
6.666729485685225
 30
0.0
 10
-27.8950511708001
 20
11.55450851803687
 30
0.0
 10
-25.10488279689371
 20
16.77454639235209
 30
0.0
 10
-21.34994785608321
 20
21.34994785608318
 30
0.0
 10
-16.77454639235209
 20
25.10488279689372
 30
0.0
 10
-11.5545085180369
 20
27.89505117080008
 30
0.0
 10
-6.666729485685167
 20
29.37774273046949
 30
0.0
 10
-3.571734671760523
 20
29.80890725428682
 30
0.0
 10
-2.419328087596587
 20
29.90217809403244
 30
0.0
  0
SPLINE
  5
EF
330
1F
100
AcDbEntity
  8
0
  6
Continuous
 62
     7
370
    25
100
AcDbSpline
210
0.0
220
0.0
230
1.0
 70
     8
 71
     3
 72
    13
 73
     9
 74
     0
 42
0.00000001
 43
0.00000001
 40
0.5540880326307265
 40
0.5540880326307265
 40
0.5540880326307265
 40
0.5540880326307265
 40
0.5624999999999997
 40
0.5937499999999997
 40
0.6249999999999997
 40
0.6562499999999997
 40
0.6874999999999996
 40
0.6959119673692729
 40
0.6959119673692729
 40
0.6959119673692729
 40
0.6959119673692729
 10
-6.128225625201754
 20
2.166713258238641
 30
0.0
 10
-6.090058704962068
 20
2.274682588075962
 30
0.0
 10
-5.896659232288386
 20
2.778996870284725
 30
0.0
 10
-5.439391272660307
 20
3.634485051676283
 30
0.0
 10
-4.625822035484693
 20
4.625822035484692
 30
0.0
 10
-3.634485051676285
 20
5.439391272660303
 30
0.0
 10
-2.778996870284725
 20
5.896659232288385
 30
0.0
 10
-2.274682588075965
 20
6.090058704962068
 30
0.0
 10
-2.166713258238643
 20
6.128225625201753
 30
0.0
  0
SPLINE
  5
F5
330
1F
100
AcDbEntity
  8
0
  6
Continuous
 62
     7
370
    25
100
AcDbSpline
210
0.0
220
0.0
230
1.0
 70
     8
 71
     3
 72
    13
 73
     9
 74
     0
 42
0.00000001
 43
0.00000001
 40
0.78204730716923
 40
0.78204730716923
 40
0.78204730716923
 40
0.78204730716923
 40
0.8124999999999999
 40
0.8437499999999999
 40
0.8749999999999999
 40
0.90625
 40
0.9374999999999999
 40
0.96795269283077
 40
0.96795269283077
 40
0.96795269283077
 40
0.96795269283077
 10
2.700015867206961
 20
13.22724084108702
 30
0.0
 10
3.543639451215205
 20
13.05502266680617
 30
0.0
 10
5.219506306496656
 20
12.54209484487024
 30
0.0
 10
7.548545876558429
 20
11.29719725860218
 30
0.0
 10
9.60747653523744
 20
9.607476535237435
 30
0.0
 10
11.29719725860217
 20
7.548545876558443
 30
0.0
 10
12.54209484487025
 20
5.219506306496645
 30
0.0
 10
13.05502266680617
 20
3.543639451215206
 30
0.0
 10
13.22724084108701
 20
2.700015867206957
 30
0.0
  0
SPLINE
  5
F6
330
1F
100
AcDbEntity
  8
0
  6
Continuous
 62
     7
370
    25
100
AcDbSpline
210
0.0
220
0.0
230
1.0
 70
     8
 71
     3
 72
    15
 73
    11
 74
     0
 42
0.00000001
 43
0.00000001
 40
0.2718703778778753
 40
0.2718703778778753
 40
0.2718703778778753
 40
0.2718703778778753
 40
0.2812499999999999
 40
0.3124999999999999
 40
0.3437499999999998
 40
0.3749999999999999
 40
0.4062499999999999
 40
0.4374999999999999
 40
0.4687499999999998
 40
0.4781296221221245
 40
0.4781296221221245
 40
0.4781296221221245
 40
0.4781296221221245
 10
-2.636930777526615
 20
-19.06848321887804
 30
0.0
 10
-3.011527941810922
 20
-19.01670158697869
 30
0.0
 10
-4.627555439453182
 20
-18.74462658594418
 30
0.0
 10
-7.414142965740328
 20
-17.89932450126339
 30
0.0
 10
-10.76366726842592
 20
-16.10896646134013
 30
0.0
 10
-13.69954987432005
 20
-13.69954987432005
 30
0.0
 10
-16.10896646134013
 20
-10.76366726842592
 30
0.0
 10
-17.89932450126339
 20
-7.414142965740345
 30
0.0
 10
-18.74462658594419
 20
-4.627555439453181
 30
0.0
 10
-19.0167015869787
 20
-3.01152794181092
 30
0.0
 10
-19.06848321887804
 20
-2.636930777526608
 30
0.0
  0
SPLINE
  5
F9
330
1F
100
AcDbEntity
  8
0
  6
Continuous
 62
     7
370
    25
100
AcDbSpline
210
0.0
220
0.0
230
1.0
 70
     8
 71
     3
 72
    15
 73
    11
 74
     0
 42
0.00000001
 43
0.00000001
 40
0.0128489534566138
 40
0.0128489534566138
 40
0.0128489534566138
 40
0.0128489534566138
 40
0.03125
 40
0.0625
 40
0.09375
 40
0.125
 40
0.15625
 40
0.1875
 40
0.21875
 40
0.2371510465433853
 40
0.2371510465433853
 40
0.2371510465433853
 40
0.2371510465433853
 10
29.90217809403245
 20
-2.419328087596592
 30
0.0
 10
29.80890725428684
 20
-3.571734671760523
 30
0.0
 10
29.3777427304695
 20
-6.666729485685168
 30
0.0
 10
27.89505117080009
 20
-11.55450851803689
 30
0.0
 10
25.10488279689372
 20
-16.77454639235208
 30
0.0
 10
21.34994785608319
 20
-21.34994785608319
 30
0.0
 10
16.77454639235209
 20
-25.10488279689372
 30
0.0
 10
11.55450851803689
 20
-27.89505117080009
 30
0.0
 10
6.666729485685222
 20
-29.37774273046947
 30
0.0
 10
3.571734671760632
 20
-29.80890725428681
 30
0.0
 10
2.419328087596755
 20
-29.90217809403243
 30
0.0
  0
SPLINE
  5
FD
330
1F
100
AcDbEntity
  8
0
  6
Continuous
 62
     7
370
    25
100
AcDbSpline
210
0.0
220
0.0
230
1.0
 70
     8
 71
     3
 72
    15
 73
    11
 74
     0
 42
0.00000001
 43
0.00000001
 40
0.2679206323063562
 40
0.2679206323063562
 40
0.2679206323063562
 40
0.2679206323063562
 40
0.2812500000000001
 40
0.3125000000000001
 40
0.3437500000000001
 40
0.3750000000000001
 40
0.4062500000000001
 40
0.4375000000000001
 40
0.46875
 40
0.482079367693644
 40
0.482079367693644
 40
0.482079367693644
 40
0.482079367693644
 10
-2.387661802563992
 20
-21.11535442676743
 30
0.0
 10
-2.977143775386915
 20
-21.04871123514521
 30
0.0
 10
-4.939310251525297
 20
-20.74339499830077
 30
0.0
 10
-8.18444353360945
 20
-19.75899457931674
 30
0.0
 10
-11.8819703612494
 20
-17.78262531446638
 30
0.0
 10
-15.12287973139225
 20
-15.12287973139227
 30
0.0
 10
-17.78262531446639
 20
-11.8819703612494
 30
0.0
 10
-19.75899457931674
 20
-8.18444353360946
 30
0.0
 10
-20.74339499830077
 20
-4.939310251525302
 30
0.0
 10
-21.04871123514521
 20
-2.977143775386918
 30
0.0
 10
-21.11535442676743
 20
-2.387661802563991
 30
0.0
  0
SPLINE
  5
FE
330
1F
100
AcDbEntity
  8
0
  6
Continuous
 62
     7
370
    25
100
AcDbSpline
210
0.0
220
0.0
230
1.0
 70
     8
 71
     3
 72
    15
 73
    11
 74
     0
 42
0.00000001
 43
0.00000001
 40
0.0179206323063561
 40
0.0179206323063561
 40
0.0179206323063561
 40
0.0179206323063561
 40
0.03125
 40
0.0625
 40
0.09375
 40
0.125
 40
0.1562500000000001
 40
0.1875000000000001
 40
0.2187500000000001
 40
0.232079367693644
 40
0.232079367693644
 40
0.232079367693644
 40
0.232079367693644
 10
21.11535442676743
 20
-2.387661802564001
 30
0.0
 10
21.0487112351452
 20
-2.977143775386921
 30
0.0
 10
20.74339499830077
 20
-4.9393102515253
 30
0.0
 10
19.75899457931673
 20
-8.18444353360946
 30
0.0
 10
17.78262531446638
 20
-11.88197036124939
 30
0.0
 10
15.12287973139227
 20
-15.12287973139227
 30
0.0
 10
11.88197036124939
 20
-17.78262531446638
 30
0.0
 10
8.184443533609459
 20
-19.75899457931673
 30
0.0
 10
4.939310251525299
 20
-20.74339499830077
 30
0.0
 10
2.977143775386916
 20
-21.0487112351452
 30
0.0
 10
2.387661802563993
 20
-21.11535442676743
 30
0.0
  0
SPLINE
  5
101
330
1F
100
AcDbEntity
  8
0
  6
Continuous
 62
     7
370
    25
100
AcDbSpline
210
0.0
220
0.0
230
1.0
 70
     8
 71
     3
 72
    15
 73
    11
 74
     0
 42
0.00000001
 43
0.00000001
 40
0.2647578254118336
 40
0.2647578254118336
 40
0.2647578254118336
 40
0.2647578254118336
 40
0.2812499999999999
 40
0.3124999999999998
 40
0.3437499999999998
 40
0.3749999999999998
 40
0.4062499999999999
 40
0.4374999999999998
 40
0.4687499999999998
 40
0.4852421745881662
 40
0.4852421745881662
 40
0.4852421745881662
 40
0.4852421745881662
 10
-2.59260207693088
 20
-27.87960409167748
 30
0.0
 10
-3.555601208381051
 20
-27.7900435479571
 30
0.0
 10
-6.329920186405344
 20
-27.38657451371684
 30
0.0
 10
-10.78420795016776
 20
-26.03538109274675
 30
0.0
 10
-15.65624329952861
 20
-23.43122394376746
 30
0.0
 10
-19.92661799901098
 20
-19.92661799901098
 30
0.0
 10
-23.43122394376746
 20
-15.65624329952862
 30
0.0
 10
-26.03538109274675
 20
-10.78420795016775
 30
0.0
 10
-27.38657451371684
 20
-6.329920186405356
 30
0.0
 10
-27.7900435479571
 20
-3.555601208381059
 30
0.0
 10
-27.87960409167749
 20
-2.592602076930884
 30
0.0
  0
SPLINE
  5
103
330
1F
100
AcDbEntity
  8
0
  6
Continuous
 62
     7
370
    25
100
AcDbSpline
210
0.0
220
0.0
230
1.0
 70
     8
 71
     3
 72
    15
 73
    11
 74
     0
 42
0.00000001
 43
0.00000001
 40
0.5218703778778753
 40
0.5218703778778753
 40
0.5218703778778753
 40
0.5218703778778753
 40
0.5312499999999999
 40
0.5624999999999999
 40
0.5937499999999998
 40
0.6249999999999999
 40
0.6562499999999999
 40
0.6874999999999998
 40
0.7187499999999999
 40
0.7281296221221245
 40
0.7281296221221245
 40
0.7281296221221245
 40
0.7281296221221245
 10
-19.06848321887804
 20
2.636930777526611
 30
0.0
 10
-19.0167015869787
 20
3.011527941810921
 30
0.0
 10
-18.74462658594419
 20
4.627555439453186
 30
0.0
 10
-17.89932450126339
 20
7.414142965740318
 30
0.0
 10
-16.10896646134013
 20
10.76366726842593
 30
0.0
 10
-13.69954987432005
 20
13.69954987432004
 30
0.0
 10
-10.76366726842592
 20
16.10896646134013
 30
0.0
 10
-7.41414296574033
 20
17.89932450126339
 30
0.0
 10
-4.627555439453197
 20
18.74462658594418
 30
0.0
 10
-3.011527941810926
 20
19.01670158697869
 30
0.0
 10
-2.636930777526616
 20
19.06848321887803
 30
0.0
  0
SPLINE
  5
105
330
1F
100
AcDbEntity
  8
0
  6
Continuous
 62
     7
370
    25
100
AcDbSpline
210
0.0
220
0.0
230
1.0
 70
     8
 71
     3
 72
    15
 73
    11
 74
     0
 42
0.00000001
 43
0.00000001
 40
0.0218703778778754
 40
0.0218703778778754
 40
0.0218703778778754
 40
0.0218703778778754
 40
0.03125
 40
0.0625
 40
0.09375
 40
0.1249999999999999
 40
0.1562499999999999
 40
0.1874999999999999
 40
0.2187499999999999
 40
0.2281296221221245
 40
0.2281296221221245
 40
0.2281296221221245
 40
0.2281296221221245
 10
19.06848321887804
 20
-2.636930777526613
 30
0.0
 10
19.0167015869787
 20
-3.011527941810921
 30
0.0
 10
18.74462658594419
 20
-4.627555439453182
 30
0.0
 10
17.89932450126339
 20
-7.414142965740334
 30
0.0
 10
16.10896646134013
 20
-10.76366726842592
 30
0.0
 10
13.69954987432005
 20
-13.69954987432005
 30
0.0
 10
10.76366726842592
 20
-16.10896646134012
 30
0.0
 10
7.414142965740332
 20
-17.89932450126339
 30
0.0
 10
4.627555439453186
 20
-18.74462658594419
 30
0.0
 10
3.011527941810921
 20
-19.0167015869787
 30
0.0
 10
2.636930777526612
 20
-19.06848321887804
 30
0.0
  0
SPLINE
  5
108
330
1F
100
AcDbEntity
  8
0
  6
Continuous
 62
     7
370
    25
100
AcDbSpline
210
0.0
220
0.0
230
1.0
 70
     8
 71
     3
 72
    15
 73
    11
 74
     0
 42
0.00000001
 43
0.00000001
 40
0.5179206323063561
 40
0.5179206323063561
 40
0.5179206323063561
 40
0.5179206323063561
 40
0.53125
 40
0.5625
 40
0.59375
 40
0.6250000000000001
 40
0.6562500000000001
 40
0.6875
 40
0.71875
 40
0.7320793676936439
 40
0.7320793676936439
 40
0.7320793676936439
 40
0.7320793676936439
 10
-21.11535442676743
 20
2.387661802563994
 30
0.0
 10
-21.04871123514521
 20
2.977143775386919
 30
0.0
 10
-20.74339499830077
 20
4.939310251525302
 30
0.0
 10
-19.75899457931673
 20
8.184443533609459
 30
0.0
 10
-17.78262531446638
 20
11.88197036124939
 30
0.0
 10
-15.12287973139227
 20
15.12287973139225
 30
0.0
 10
-11.88197036124939
 20
17.78262531446638
 30
0.0
 10
-8.184443533609468
 20
19.75899457931672
 30
0.0
 10
-4.939310251525307
 20
20.74339499830077
 30
0.0
 10
-2.977143775386923
 20
21.0487112351452
 30
0.0
 10
-2.387661802563999
 20
21.11535442676743
 30
0.0
  0
SPLINE
  5
10B
330
1F
100
AcDbEntity
  8
0
  6
Continuous
 62
     7
370
    25
100
AcDbSpline
210
0.0
220
0.0
230
1.0
 70
     8
 71
     3
 72
    13
 73
     9
 74
     0
 42
0.00000001
 43
0.00000001
 40
0.0540880326307266
 40
0.0540880326307266
 40
0.0540880326307266
 40
0.0540880326307266
 40
0.0625
 40
0.09375
 40
0.125
 40
0.1562499999999999
 40
0.1874999999999999
 40
0.1959119673692731
 40
0.1959119673692731
 40
0.1959119673692731
 40
0.1959119673692731
 10
6.128225625201756
 20
-2.166713258238637
 30
0.0
 10
6.09005870496207
 20
-2.27468258807596
 30
0.0
 10
5.896659232288386
 20
-2.778996870284723
 30
0.0
 10
5.439391272660303
 20
-3.634485051676283
 30
0.0
 10
4.625822035484693
 20
-4.625822035484693
 30
0.0
 10
3.634485051676286
 20
-5.439391272660305
 30
0.0
 10
2.778996870284725
 20
-5.896659232288386
 30
0.0
 10
2.274682588075965
 20
-6.090058704962068
 30
0.0
 10
2.166713258238644
 20
-6.128225625201753
 30
0.0
  0
SPLINE
  5
10C
330
1F
100
AcDbEntity
  8
0
  6
Continuous
 62
     7
370
    25
100
AcDbSpline
210
0.0
220
0.0
230
1.0
 70
     8
 71
     3
 72
    13
 73
     9
 74
     0
 42
0.00000001
 43
0.00000001
 40
0.5320473071692299
 40
0.5320473071692299
 40
0.5320473071692299
 40
0.5320473071692299
 40
0.5624999999999999
 40
0.5937499999999999
 40
0.6249999999999998
 40
0.6562499999999998
 40
0.6874999999999998
 40
0.7179526928307708
 40
0.7179526928307708
 40
0.7179526928307708
 40
0.7179526928307708
 10
-13.22724084108702
 20
2.700015867206953
 30
0.0
 10
-13.05502266680617
 20
3.543639451215199
 30
0.0
 10
-12.54209484487025
 20
5.219506306496648
 30
0.0
 10
-11.29719725860218
 20
7.548545876558427
 30
0.0
 10
-9.607476535237435
 20
9.607476535237442
 30
0.0
 10
-7.548545876558433
 20
11.29719725860218
 30
0.0
 10
-5.219506306496636
 20
12.54209484487025
 30
0.0
 10
-3.543639451215141
 20
13.05502266680619
 30
0.0
 10
-2.700015867206864
 20
13.22724084108703
 30
0.0
  0
SPLINE
  5
10E
330
1F
100
AcDbEntity
  8
0
  6
Continuous
 62
     7
370
    25
100
AcDbSpline
210
0.0
220
0.0
230
1.0
 70
     8
 71
     3
 72
    15
 73
    11
 74
     0
 42
0.00000001
 43
0.00000001
 40
0.5147578254118336
 40
0.5147578254118336
 40
0.5147578254118336
 40
0.5147578254118336
 40
0.5312499999999999
 40
0.5624999999999999
 40
0.5937499999999999
 40
0.6249999999999999
 40
0.65625
 40
0.6874999999999999
 40
0.7187499999999999
 40
0.7352421745881663
 40
0.7352421745881663
 40
0.7352421745881663
 40
0.7352421745881663
 10
-27.87960409167749
 20
2.59260207693088
 30
0.0
 10
-27.79004354795711
 20
3.555601208381054
 30
0.0
 10
-27.38657451371684
 20
6.329920186405356
 30
0.0
 10
-26.03538109274676
 20
10.78420795016776
 30
0.0
 10
-23.43122394376748
 20
15.6562432995286
 30
0.0
 10
-19.92661799901098
 20
19.92661799901099
 30
0.0
 10
-15.65624329952862
 20
23.43122394376745
 30
0.0
 10
-10.78420795016777
 20
26.03538109274675
 30
0.0
 10
-6.329920186405352
 20
27.38657451371684
 30
0.0
 10
-3.555601208381056
 20
27.7900435479571
 30
0.0
 10
-2.59260207693088
 20
27.87960409167748
 30
0.0
  0
SPLINE
  5
111
330
1F
100
AcDbEntity
  8
0
  6
Continuous
 62
     7
370
    25
100
AcDbSpline
210
0.0
220
0.0
230
1.0
 70
     8
 71
     3
 72
    13
 73
     9
 74
     0
 42
0.00000001
 43
0.00000001
 40
0.3040880326307266
 40
0.3040880326307266
 40
0.3040880326307266
 40
0.3040880326307266
 40
0.3124999999999999
 40
0.3437499999999998
 40
0.3749999999999998
 40
0.4062499999999999
 40
0.4374999999999998
 40
0.4459119673692731
 40
0.4459119673692731
 40
0.4459119673692731
 40
0.4459119673692731
 10
-2.166713258238637
 20
-6.128225625201754
 30
0.0
 10
-2.27468258807596
 20
-6.090058704962068
 30
0.0
 10
-2.778996870284722
 20
-5.896659232288386
 30
0.0
 10
-3.634485051676283
 20
-5.439391272660306
 30
0.0
 10
-4.625822035484693
 20
-4.625822035484691
 30
0.0
 10
-5.439391272660305
 20
-3.634485051676286
 30
0.0
 10
-5.896659232288388
 20
-2.778996870284725
 30
0.0
 10
-6.09005870496207
 20
-2.274682588075962
 30
0.0
 10
-6.128225625201756
 20
-2.166713258238639
 30
0.0
  0
SPLINE
  5
112
330
1F
100
AcDbEntity
  8
0
  6
Continuous
 62
     7
370
    25
100
AcDbSpline
210
0.0
220
0.0
230
1.0
 70
     8
 71
     3
 72
    13
 73
     9
 74
     0
 42
0.00000001
 43
0.00000001
 40
0.8040880326307264
 40
0.8040880326307264
 40
0.8040880326307264
 40
0.8040880326307264
 40
0.8124999999999998
 40
0.8437499999999997
 40
0.8749999999999998
 40
0.9062499999999999
 40
0.9374999999999998
 40
0.9459119673692731
 40
0.9459119673692731
 40
0.9459119673692731
 40
0.9459119673692731
 10
2.166713258238635
 20
6.128225625201756
 30
0.0
 10
2.274682588075959
 20
6.090058704962069
 30
0.0
 10
2.778996870284721
 20
5.896659232288386
 30
0.0
 10
3.634485051676286
 20
5.439391272660304
 30
0.0
 10
4.625822035484691
 20
4.625822035484692
 30
0.0
 10
5.439391272660304
 20
3.634485051676288
 30
0.0
 10
5.896659232288385
 20
2.778996870284725
 30
0.0
 10
6.090058704962068
 20
2.274682588075966
 30
0.0
 10
6.128225625201753
 20
2.166713258238643
 30
0.0
  0
SPLINE
  5
115
330
1F
100
AcDbEntity
  8
0
  6
Continuous
 62
     7
370
    25
100
AcDbSpline
210
0.0
220
0.0
230
1.0
 70
     8
 71
     3
 72
    13
 73
     9
 74
     0
 42
0.00000001
 43
0.00000001
 40
0.2820473071692301
 40
0.2820473071692301
 40
0.2820473071692301
 40
0.2820473071692301
 40
0.3124999999999999
 40
0.3437499999999999
 40
0.3749999999999999
 40
0.4062499999999999
 40
0.4374999999999999
 40
0.4679526928307699
 40
0.4679526928307699
 40
0.4679526928307699
 40
0.4679526928307699
 10
-2.700015867206964
 20
-13.22724084108702
 30
0.0
 10
-3.543639451215205
 20
-13.05502266680617
 30
0.0
 10
-5.219506306496655
 20
-12.54209484487024
 30
0.0
 10
-7.548545876558432
 20
-11.29719725860218
 30
0.0
 10
-9.607476535237438
 20
-9.607476535237438
 30
0.0
 10
-11.29719725860217
 20
-7.548545876558436
 30
0.0
 10
-12.54209484487025
 20
-5.219506306496648
 30
0.0
 10
-13.05502266680617
 20
-3.543639451215202
 30
0.0
 10
-13.22724084108702
 20
-2.700015867206956
 30
0.0
  0
SPLINE
  5
117
330
1F
100
AcDbEntity
  8
0
  6
Continuous
 62
     7
370
    25
100
AcDbSpline
210
0.0
220
0.0
230
1.0
 70
     8
 71
     3
 72
    13
 73
     9
 74
     0
 42
0.00000001
 43
0.00000001
 40
0.0320473071692301
 40
0.0320473071692301
 40
0.0320473071692301
 40
0.0320473071692301
 40
0.0625
 40
0.09375
 40
0.125
 40
0.1562499999999999
 40
0.1874999999999999
 40
0.2179526928307699
 40
0.2179526928307699
 40
0.2179526928307699
 40
0.2179526928307699
 10
13.22724084108702
 20
-2.700015867206959
 30
0.0
 10
13.05502266680617
 20
-3.543639451215203
 30
0.0
 10
12.54209484487024
 20
-5.219506306496648
 30
0.0
 10
11.29719725860217
 20
-7.548545876558436
 30
0.0
 10
9.60747653523744
 20
-9.607476535237438
 30
0.0
 10
7.548545876558436
 20
-11.29719725860217
 30
0.0
 10
5.219506306496649
 20
-12.54209484487025
 30
0.0
 10
3.543639451215204
 20
-13.05502266680617
 30
0.0
 10
2.700015867206959
 20
-13.22724084108702
 30
0.0
  0
SPLINE
  5
11A
330
1F
100
AcDbEntity
  8
0
  6
Continuous
 62
     7
370
    25
100
AcDbSpline
210
0.0
220
0.0
230
1.0
 70
     8
 71
     3
 72
    15
 73
    11
 74
     0
 42
0.00000001
 43
0.00000001
 40
0.0147578254118337
 40
0.0147578254118337
 40
0.0147578254118337
 40
0.0147578254118337
 40
0.03125
 40
0.0625
 40
0.09375
 40
0.1249999999999999
 40
0.1562499999999999
 40
0.1874999999999999
 40
0.2187499999999999
 40
0.2352421745881662
 40
0.2352421745881662
 40
0.2352421745881662
 40
0.2352421745881662
 10
27.87960409167749
 20
-2.592602076930879
 30
0.0
 10
27.7900435479571
 20
-3.555601208381052
 30
0.0
 10
27.38657451371683
 20
-6.329920186405348
 30
0.0
 10
26.03538109274675
 20
-10.78420795016776
 30
0.0
 10
23.43122394376746
 20
-15.6562432995286
 30
0.0
 10
19.92661799901098
 20
-19.92661799901098
 30
0.0
 10
15.65624329952861
 20
-23.43122394376747
 30
0.0
 10
10.78420795016776
 20
-26.03538109274675
 30
0.0
 10
6.32992018640535
 20
-27.38657451371684
 30
0.0
 10
3.55560120838105
 20
-27.7900435479571
 30
0.0
 10
2.592602076930877
 20
-27.87960409167749
 30
0.0
  0
SPLINE
  5
11C
330
1F
100
AcDbEntity
  8
0
  6
Continuous
 62
     7
370
    25
100
AcDbSpline
210
0.0
220
0.0
230
1.0
 70
     8
 71
     3
 72
    15
 73
    11
 74
     0
 42
0.00000001
 43
0.00000001
 40
0.7679206323063561
 40
0.7679206323063561
 40
0.7679206323063561
 40
0.7679206323063561
 40
0.78125
 40
0.8125
 40
0.8437499999999999
 40
0.8749999999999999
 40
0.9062499999999999
 40
0.9374999999999999
 40
0.96875
 40
0.9820793676936439
 40
0.9820793676936439
 40
0.9820793676936439
 40
0.9820793676936439
 10
2.387661802563993
 20
21.11535442676743
 30
0.0
 10
2.977143775386917
 20
21.04871123514521
 30
0.0
 10
4.939310251525301
 20
20.74339499830078
 30
0.0
 10
8.184443533609459
 20
19.75899457931672
 30
0.0
 10
11.88197036124939
 20
17.78262531446638
 30
0.0
 10
15.12287973139226
 20
15.12287973139227
 30
0.0
 10
17.78262531446639
 20
11.88197036124939
 30
0.0
 10
19.75899457931672
 20
8.184443533609466
 30
0.0
 10
20.74339499830077
 20
4.939310251525314
 30
0.0
 10
21.0487112351452
 20
2.977143775386923
 30
0.0
 10
21.11535442676743
 20
2.387661802563999
 30
0.0
  0
SPLINE
  5
11D
330
1F
100
AcDbEntity
  8
0
  6
Continuous
 62
     7
370
    25
100
AcDbSpline
210
0.0
220
0.0
230
1.0
 70
     8
 71
     3
 72
    15
 73
    11
 74
     0
 42
0.00000001
 43
0.00000001
 40
0.7647578254118337
 40
0.7647578254118337
 40
0.7647578254118337
 40
0.7647578254118337
 40
0.78125
 40
0.8125000000000001
 40
0.84375
 40
0.875
 40
0.90625
 40
0.9375
 40
0.96875
 40
0.9852421745881663
 40
0.9852421745881663
 40
0.9852421745881663
 40
0.9852421745881663
 10
2.59260207693088
 20
27.87960409167749
 30
0.0
 10
3.555601208381054
 20
27.7900435479571
 30
0.0
 10
6.329920186405363
 20
27.38657451371684
 30
0.0
 10
10.78420795016774
 20
26.03538109274675
 30
0.0
 10
15.65624329952861
 20
23.43122394376747
 30
0.0
 10
19.92661799901098
 20
19.92661799901099
 30
0.0
 10
23.43122394376747
 20
15.6562432995286
 30
0.0
 10
26.03538109274675
 20
10.78420795016778
 30
0.0
 10
27.38657451371683
 20
6.329920186405369
 30
0.0
 10
27.7900435479571
 20
3.555601208381062
 30
0.0
 10
27.87960409167749
 20
2.592602076930888
 30
0.0
  0
LINE
  5
11F
330
1F
100
AcDbEntity
  8
0
  6
Continuous
 62
     7
370
    25
100
AcDbLine
 10
-16.3094765792
 20
1.5
 30
0.0
 11
-18.0779026002
 21
1.5
 31
0.0
  0
LINE
  5
120
330
1F
100
AcDbEntity
  8
0
  6
Continuous
 62
     7
370
    25
100
AcDbLine
 10
-1.5
 20
18.0779026002
 30
0.0
 11
-1.5
 21
16.3094765792
 31
0.0
  0
LINE
  5
121
330
1F
100
AcDbEntity
  8
0
  6
Continuous
 62
     7
370
    25
100
AcDbLine
 10
-18.0779026002
 20
-1.5
 30
0.0
 11
-16.3094765792
 21
-1.5
 31
0.0
  0
LINE
  5
122
330
1F
100
AcDbEntity
  8
0
  6
Continuous
 62
     7
370
    25
100
AcDbLine
 10
-1.5
 20
-16.3094765792
 30
0.0
 11
-1.5
 21
-18.0779026002
 31
0.0
  0
LINE
  5
123
330
1F
100
AcDbEntity
  8
0
  6
Continuous
 62
     7
370
    25
100
AcDbLine
 10
18.0779026002
 20
1.5
 30
0.0
 11
16.3094765792
 21
1.5
 31
0.0
  0
LINE
  5
124
330
1F
100
AcDbEntity
  8
0
  6
Continuous
 62
     7
370
    25
100
AcDbLine
 10
1.5
 20
16.3094765792
 30
0.0
 11
1.5
 21
18.0779026002
 31
0.0
  0
LINE
  5
125
330
1F
100
AcDbEntity
  8
0
  6
Continuous
 62
     7
370
    25
100
AcDbLine
 10
1.5
 20
-18.0779026002
 30
0.0
 11
1.5
 21
-16.3094765792
 31
0.0
  0
LINE
  5
126
330
1F
100
AcDbEntity
  8
0
  6
Continuous
 62
     7
370
    25
100
AcDbLine
 10
16.3094765792
 20
-1.5
 30
0.0
 11
18.0779026002
 21
-1.5
 31
0.0
  0
LINE
  5
127
330
1F
100
AcDbEntity
  8
0
  6
Continuous
 62
     7
370
    25
100
AcDbLine
 10
7.0710511381
 20
-1.5
 30
0.0
 11
12.247448183
 21
-1.5
 31
0.0
  0
LINE
  5
128
330
1F
100
AcDbEntity
  8
0
  6
Continuous
 62
     7
370
    25
100
AcDbLine
 10
1.5
 20
-12.247448183
 30
0.0
 11
1.5
 21
-7.0710511381
 31
0.0
  0
LINE
  5
129
330
1F
100
AcDbEntity
  8
0
  6
Continuous
 62
     7
370
    25
100
AcDbLine
 10
62.926990817
 20
43.2928932188
 30
0.0
 11
62.926990817
 21
10.5
 31
0.0
  0
LINE
  5
12A
330
1F
100
AcDbEntity
  8
0
  6
Continuous
 62
     7
370
    25
100
AcDbLine
 10
59.426990817
 20
10.5
 30
0.0
 11
62.926990817
 21
10.5
 31
0.0
  0
LINE
  5
12B
330
1F
100
AcDbEntity
  8
0
  6
Continuous
 62
     7
370
    25
100
AcDbLine
 10
59.426990817
 20
10.0
 30
0.0
 11
59.426990817
 21
10.5
 31
0.0
  0
LINE
  5
12C
330
1F
100
AcDbEntity
  8
0
  6
Continuous
 62
     7
370
    25
100
AcDbLine
 10
70.853981634
 20
10.0
 30
0.0
 11
59.426990817
 21
10.0
 31
0.0
  0
LINE
  5
12D
330
1F
100
AcDbEntity
  8
0
  6
Continuous
 62
     7
370
    25
100
AcDbLine
 10
59.426990817
 20
-10.0
 30
0.0
 11
70.853981634
 21
-10.0
 31
0.0
  0
LINE
  5
12E
330
1F
100
AcDbEntity
  8
0
  6
Continuous
 62
     7
370
    25
100
AcDbLine
 10
59.426990817
 20
-10.5
 30
0.0
 11
59.426990817
 21
-10.0
 31
0.0
  0
LINE
  5
12F
330
1F
100
AcDbEntity
  8
0
  6
Continuous
 62
     7
370
    25
100
AcDbLine
 10
62.926990817
 20
-10.5
 30
0.0
 11
59.426990817
 21
-10.5
 31
0.0
  0
LINE
  5
130
330
1F
100
AcDbEntity
  8
0
  6
Continuous
 62
     7
370
    25
100
AcDbLine
 10
62.926990817
 20
-10.5
 30
0.0
 11
62.926990817
 21
-43.2928932188
 31
0.0
  0
LINE
  5
131
330
1F
100
AcDbEntity
  8
0
  6
Continuous
 62
     7
370
    25
100
AcDbLine
 10
43.2928932188
 20
-43.2928932188
 30
0.0
 11
62.926990817
 21
-43.2928932188
 31
0.0
  0
LINE
  5
132
330
1F
100
AcDbEntity
  8
0
  6
Continuous
 62
     7
370
    25
100
AcDbLine
 10
43.2928932188
 20
-43.2928932188
 30
0.0
 11
43.2928932188
 21
-62.926990817
 31
0.0
  0
LINE
  5
133
330
1F
100
AcDbEntity
  8
0
  6
Continuous
 62
     7
370
    25
100
AcDbLine
 10
43.2928932188
 20
-62.926990817
 30
0.0
 11
10.5
 21
-62.926990817
 31
0.0
  0
LINE
  5
134
330
1F
100
AcDbEntity
  8
0
  6
Continuous
 62
     7
370
    25
100
AcDbLine
 10
10.5
 20
-59.426990817
 30
0.0
 11
10.5
 21
-62.926990817
 31
0.0
  0
LINE
  5
135
330
1F
100
AcDbEntity
  8
0
  6
Continuous
 62
     7
370
    25
100
AcDbLine
 10
10.0
 20
-59.426990817
 30
0.0
 11
10.5
 21
-59.426990817
 31
0.0
  0
LINE
  5
136
330
1F
100
AcDbEntity
  8
0
  6
Continuous
 62
     7
370
    25
100
AcDbLine
 10
10.0
 20
-70.853981634
 30
0.0
 11
10.0
 21
-59.426990817
 31
0.0
  0
LINE
  5
137
330
1F
100
AcDbEntity
  8
0
  6
Continuous
 62
     7
370
    25
100
AcDbLine
 10
-10.0
 20
-59.426990817
 30
0.0
 11
-10.0
 21
-70.853981634
 31
0.0
  0
LINE
  5
138
330
1F
100
AcDbEntity
  8
0
  6
Continuous
 62
     7
370
    25
100
AcDbLine
 10
-10.5
 20
-59.426990817
 30
0.0
 11
-10.0
 21
-59.426990817
 31
0.0
  0
LINE
  5
139
330
1F
100
AcDbEntity
  8
0
  6
Continuous
 62
     7
370
    25
100
AcDbLine
 10
-10.5
 20
-62.926990817
 30
0.0
 11
-10.5
 21
-59.426990817
 31
0.0
  0
LINE
  5
13A
330
1F
100
AcDbEntity
  8
0
  6
Continuous
 62
     7
370
    25
100
AcDbLine
 10
-10.5
 20
-62.926990817
 30
0.0
 11
-43.2928932188
 21
-62.926990817
 31
0.0
  0
LINE
  5
13B
330
1F
100
AcDbEntity
  8
0
  6
Continuous
 62
     7
370
    25
100
AcDbLine
 10
-43.2928932188
 20
-43.2928932188
 30
0.0
 11
-43.2928932188
 21
-62.926990817
 31
0.0
  0
LINE
  5
13C
330
1F
100
AcDbEntity
  8
0
  6
Continuous
 62
     7
370
    25
100
AcDbLine
 10
-43.2928932188
 20
-43.2928932188
 30
0.0
 11
-62.926990817
 21
-43.2928932188
 31
0.0
  0
LINE
  5
13D
330
1F
100
AcDbEntity
  8
0
  6
Continuous
 62
     7
370
    25
100
AcDbLine
 10
-62.926990817
 20
-43.2928932188
 30
0.0
 11
-62.926990817
 21
-10.5
 31
0.0
  0
LINE
  5
13E
330
1F
100
AcDbEntity
  8
0
  6
Continuous
 62
     7
370
    25
100
AcDbLine
 10
-59.426990817
 20
-10.5
 30
0.0
 11
-62.926990817
 21
-10.5
 31
0.0
  0
LINE
  5
13F
330
1F
100
AcDbEntity
  8
0
  6
Continuous
 62
     7
370
    25
100
AcDbLine
 10
-59.426990817
 20
-10.0
 30
0.0
 11
-59.426990817
 21
-10.5
 31
0.0
  0
LINE
  5
140
330
1F
100
AcDbEntity
  8
0
  6
Continuous
 62
     7
370
    25
100
AcDbLine
 10
-70.853981634
 20
-10.0
 30
0.0
 11
-59.426990817
 21
-10.0
 31
0.0
  0
LINE
  5
141
330
1F
100
AcDbEntity
  8
0
  6
Continuous
 62
     7
370
    25
100
AcDbLine
 10
-59.426990817
 20
10.0
 30
0.0
 11
-70.853981634
 21
10.0
 31
0.0
  0
LINE
  5
142
330
1F
100
AcDbEntity
  8
0
  6
Continuous
 62
     7
370
    25
100
AcDbLine
 10
-59.426990817
 20
10.5
 30
0.0
 11
-59.426990817
 21
10.0
 31
0.0
  0
LINE
  5
143
330
1F
100
AcDbEntity
  8
0
  6
Continuous
 62
     7
370
    25
100
AcDbLine
 10
-62.926990817
 20
10.5
 30
0.0
 11
-59.426990817
 21
10.5
 31
0.0
  0
LINE
  5
144
330
1F
100
AcDbEntity
  8
0
  6
Continuous
 62
     7
370
    25
100
AcDbLine
 10
-62.926990817
 20
10.5
 30
0.0
 11
-62.926990817
 21
43.2928932188
 31
0.0
  0
LINE
  5
145
330
1F
100
AcDbEntity
  8
0
  6
Continuous
 62
     7
370
    25
100
AcDbLine
 10
-43.2928932188
 20
43.2928932188
 30
0.0
 11
-62.926990817
 21
43.2928932188
 31
0.0
  0
LINE
  5
146
330
1F
100
AcDbEntity
  8
0
  6
Continuous
 62
     7
370
    25
100
AcDbLine
 10
-43.2928932188
 20
43.2928932188
 30
0.0
 11
-43.2928932188
 21
62.926990817
 31
0.0
  0
LINE
  5
147
330
1F
100
AcDbEntity
  8
0
  6
Continuous
 62
     7
370
    25
100
AcDbLine
 10
-43.2928932188
 20
62.926990817
 30
0.0
 11
-10.5
 21
62.926990817
 31
0.0
  0
LINE
  5
148
330
1F
100
AcDbEntity
  8
0
  6
Continuous
 62
     7
370
    25
100
AcDbLine
 10
-10.5
 20
59.426990817
 30
0.0
 11
-10.5
 21
62.926990817
 31
0.0
  0
LINE
  5
149
330
1F
100
AcDbEntity
  8
0
  6
Continuous
 62
     7
370
    25
100
AcDbLine
 10
-10.0
 20
59.426990817
 30
0.0
 11
-10.5
 21
59.426990817
 31
0.0
  0
LINE
  5
14A
330
1F
100
AcDbEntity
  8
0
  6
Continuous
 62
     7
370
    25
100
AcDbLine
 10
-10.0
 20
70.853981634
 30
0.0
 11
-10.0
 21
59.426990817
 31
0.0
  0
LINE
  5
14B
330
1F
100
AcDbEntity
  8
0
  6
Continuous
 62
     7
370
    25
100
AcDbLine
 10
10.0
 20
59.426990817
 30
0.0
 11
10.0
 21
70.853981634
 31
0.0
  0
LINE
  5
14C
330
1F
100
AcDbEntity
  8
0
  6
Continuous
 62
     7
370
    25
100
AcDbLine
 10
10.5
 20
59.426990817
 30
0.0
 11
10.0
 21
59.426990817
 31
0.0
  0
LINE
  5
14D
330
1F
100
AcDbEntity
  8
0
  6
Continuous
 62
     7
370
    25
100
AcDbLine
 10
10.5
 20
62.926990817
 30
0.0
 11
10.5
 21
59.426990817
 31
0.0
  0
LINE
  5
14E
330
1F
100
AcDbEntity
  8
0
  6
Continuous
 62
     7
370
    25
100
AcDbLine
 10
10.5
 20
62.926990817
 30
0.0
 11
43.2928932188
 21
62.926990817
 31
0.0
  0
LINE
  5
14F
330
1F
100
AcDbEntity
  8
0
  6
Continuous
 62
     7
370
    25
100
AcDbLine
 10
43.2928932188
 20
43.2928932188
 30
0.0
 11
43.2928932188
 21
62.926990817
 31
0.0
  0
LINE
  5
150
330
1F
100
AcDbEntity
  8
0
  6
Continuous
 62
     7
370
    25
100
AcDbLine
 10
43.2928932188
 20
43.2928932188
 30
0.0
 11
62.926990817
 21
43.2928932188
 31
0.0
  0
LINE
  5
151
330
1F
100
AcDbEntity
  8
0
  6
Continuous
 62
     7
370
    25
100
AcDbLine
 10
1.5
 20
-26.8839008953
 30
0.0
 11
1.5
 21
-22.1090244572
 31
0.0
  0
LINE
  5
152
330
1F
100
AcDbEntity
  8
0
  6
Continuous
 62
     7
370
    25
100
AcDbLine
 10
22.1090244572
 20
-1.5
 30
0.0
 11
26.8839008953
 21
-1.5
 31
0.0
  0
LINE
  5
153
330
1F
100
AcDbEntity
  8
0
  6
Continuous
 62
     7
370
    25
100
AcDbLine
 10
26.8839008953
 20
1.5
 30
0.0
 11
22.1090244572
 21
1.5
 31
0.0
  0
LINE
  5
154
330
1F
100
AcDbEntity
  8
0
  6
Continuous
 62
     7
370
    25
100
AcDbLine
 10
1.5
 20
22.1090244572
 30
0.0
 11
1.5
 21
26.8839008953
 31
0.0
  0
LINE
  5
155
330
1F
100
AcDbEntity
  8
0
  6
Continuous
 62
     7
370
    25
100
AcDbLine
 10
-30.8989188038
 20
1.5
 30
0.0
 11
-38.9201189279
 21
1.5
 31
0.0
  0
LINE
  5
156
330
1F
100
AcDbEntity
  8
0
  6
Continuous
 62
     7
370
    25
100
AcDbLine
 10
-1.5
 20
38.9201188383
 30
0.0
 11
-1.5
 21
30.8989188038
 31
0.0
  0
LINE
  5
157
330
1F
100
AcDbEntity
  8
0
  6
Continuous
 62
     7
370
    25
100
AcDbLine
 10
-26.8839008953
 20
-1.5
 30
0.0
 11
-22.1090244572
 21
-1.5
 31
0.0
  0
LINE
  5
158
330
1F
100
AcDbEntity
  8
0
  6
Continuous
 62
     7
370
    25
100
AcDbLine
 10
-1.5
 20
-22.1090244572
 30
0.0
 11
-1.5
 21
-26.8839008953
 31
0.0
  0
LINE
  5
159
330
1F
100
AcDbEntity
  8
0
  6
Continuous
 62
     7
370
    25
100
AcDbLine
 10
30.8989188038
 20
-1.5
 30
0.0
 11
38.9201069151
 21
-1.5
 31
0.0
  0
LINE
  5
15A
330
1F
100
AcDbEntity
  8
0
  6
Continuous
 62
     7
370
    25
100
AcDbLine
 10
1.5
 20
-38.9201188383
 30
0.0
 11
1.5
 21
-30.8989188038
 31
0.0
  0
LINE
  5
15B
330
1F
100
AcDbEntity
  8
0
  6
Continuous
 62
     7
370
    25
100
AcDbLine
 10
1.5
 20
30.8989188038
 30
0.0
 11
1.5
 21
38.9201189279
 31
0.0
  0
LINE
  5
15C
330
1F
100
AcDbEntity
  8
0
  6
Continuous
 62
     7
370
    25
100
AcDbLine
 10
38.920130854
 20
1.5
 30
0.0
 11
30.8989188038
 21
1.5
 31
0.0
  0
LINE
  5
15D
330
1F
100
AcDbEntity
  8
0
  6
Continuous
 62
     7
370
    25
100
AcDbLine
 10
-22.1090244572
 20
1.5
 30
0.0
 11
-26.8839008953
 21
1.5
 31
0.0
  0
LINE
  5
15E
330
1F
100
AcDbEntity
  8
0
  6
Continuous
 62
     7
370
    25
100
AcDbLine
 10
-1.5
 20
26.8839008953
 30
0.0
 11
-1.5
 21
22.1090244572
 31
0.0
  0
LINE
  5
15F
330
1F
100
AcDbEntity
  8
0
  6
Continuous
 62
     7
370
    25
100
AcDbLine
 10
-1.5
 20
-30.8989188038
 30
0.0
 11
-1.5
 21
-38.9201189279
 31
0.0
  0
LINE
  5
160
330
1F
100
AcDbEntity
  8
0
  6
Continuous
 62
     7
370
    25
100
AcDbLine
 10
-38.9201188383
 20
-1.5
 30
0.0
 11
-30.8989188038
 21
-1.5
 31
0.0
  0
LINE
  5
161
330
1F
100
AcDbEntity
  8
0
  6
Continuous
 62
     7
370
    25
100
AcDbLine
 10
1.5
 20
7.0710511381
 30
0.0
 11
1.5
 21
12.247448183
 31
0.0
  0
LINE
  5
162
330
1F
100
AcDbEntity
  8
0
  6
Continuous
 62
     7
370
    25
100
AcDbLine
 10
12.247448183
 20
1.5
 30
0.0
 11
7.0710511381
 21
1.5
 31
0.0
  0
LINE
  5
163
330
1F
100
AcDbEntity
  8
0
  6
Continuous
 62
     7
370
    25
100
AcDbLine
 10
-7.0710511381
 20
1.5
 30
0.0
 11
-12.247448183
 21
1.5
 31
0.0
  0
LINE
  5
164
330
1F
100
AcDbEntity
  8
0
  6
Continuous
 62
     7
370
    25
100
AcDbLine
 10
-1.5
 20
12.247448183
 30
0.0
 11
-1.5
 21
7.0710511381
 31
0.0
  0
LINE
  5
165
330
1F
100
AcDbEntity
  8
0
  6
Continuous
 62
     7
370
    25
100
AcDbLine
 10
-1.5
 20
-7.0710511381
 30
0.0
 11
-1.5
 21
-12.247448183
 31
0.0
  0
LINE
  5
166
330
1F
100
AcDbEntity
  8
0
  6
Continuous
 62
     7
370
    25
100
AcDbLine
 10
-12.247448183
 20
-1.5
 30
0.0
 11
-7.0710511381
 21
-1.5
 31
0.0
  0
ARC
  5
167
330
1F
100
AcDbEntity
  8
0
  6
Continuous
 62
     7
370
    25
100
AcDbCircle
 10
70.853981634
 20
0.0
 30
0.0
 40
10.0
100
AcDbArc
 50
270.0
 51
90.0
  0
ARC
  5
168
330
1F
100
AcDbEntity
  8
0
  6
Continuous
 62
     7
370
    25
100
AcDbCircle
 10
0.0
 20
-70.853981634
 30
0.0
 40
10.0
100
AcDbArc
 50
180.0
 51
0.0
  0
ARC
  5
169
330
1F
100
AcDbEntity
  8
0
  6
Continuous
 62
     7
370
    25
100
AcDbCircle
 10
-70.853981634
 20
0.0
 30
0.0
 40
10.0
100
AcDbArc
 50
90.0
 51
270.0
  0
ARC
  5
16A
330
1F
100
AcDbEntity
  8
0
  6
Continuous
 62
     7
370
    25
100
AcDbCircle
 10
0.0
 20
70.853981634
 30
0.0
 40
10.0
100
AcDbArc
 50
0.0
 51
180.0
  0
ARC
  5
16B
330
1F
100
AcDbEntity
  8
0
  6
Continuous
 62
     7
370
    25
100
AcDbCircle
 10
-38.9201189279
 20
2.5
 30
0.0
 40
1.000000000000081
100
AcDbArc
 50
176.3345046375
 51
270.0
  0
ARC
  5
16C
330
1F
100
AcDbEntity
  8
0
  6
Continuous
 62
     7
370
    25
100
AcDbCircle
 10
-2.5
 20
38.9201188383
 30
0.0
 40
1.00000000000002
100
AcDbArc
 50
0.0
 51
93.6654940576
  0
ARC
  5
16D
330
1F
100
AcDbEntity
  8
0
  6
Continuous
 62
     7
370
    25
100
AcDbCircle
 10
2.5
 20
-38.9201188383
 30
0.0
 40
0.9999999999999472
100
AcDbArc
 50
180.0
 51
273.6654940576
  0
ARC
  5
16E
330
1F
100
AcDbEntity
  8
0
  6
Continuous
 62
     7
370
    25
100
AcDbCircle
 10
38.9201069151
 20
-2.5
 30
0.0
 40
1.000000000000012
100
AcDbArc
 50
356.334334322
 51
90.0
  0
ARC
  5
16F
330
1F
100
AcDbEntity
  8
0
  6
Continuous
 62
     7
370
    25
100
AcDbCircle
 10
38.920130854
 20
2.5
 30
0.0
 40
0.9999999999999626
100
AcDbArc
 50
270.0
 51
3.6653236504
  0
ARC
  5
170
330
1F
100
AcDbEntity
  8
0
  6
Continuous
 62
     7
370
    25
100
AcDbCircle
 10
2.5
 20
38.9201189279
 30
0.0
 40
1.00000000000007
100
AcDbArc
 50
86.3345046375
 51
180.0
  0
ARC
  5
171
330
1F
100
AcDbEntity
  8
0
  6
Continuous
 62
     7
370
    25
100
AcDbCircle
 10
-38.9201188383
 20
-2.5
 30
0.0
 40
1.000000000000016
100
AcDbArc
 50
90.0
 51
183.6654940575
  0
ARC
  5
172
330
1F
100
AcDbEntity
  8
0
  6
Continuous
 62
     7
370
    25
100
AcDbCircle
 10
-2.5
 20
-38.9201189279
 30
0.0
 40
0.9999999999999913
100
AcDbArc
 50
266.3345046375
 51
0.0
  0
ARC
  5
173
330
1F
100
AcDbEntity
  8
0
  6
Continuous
 62
     7
370
    25
100
AcDbCircle
 10
-2.5
 20
30.8989188038
 30
0.0
 40
1.000000000000212
100
AcDbArc
 50
274.6271883157
 51
360.0
  0
ARC
  5
174
330
1F
100
AcDbEntity
  8
0
  6
Continuous
 62
     7
370
    25
100
AcDbCircle
 10
16.3094765792
 20
-2.5
 30
0.0
 40
1.000000000000006
100
AcDbArc
 50
90.0
 51
171.2885300353
  0
ARC
  5
175
330
1F
100
AcDbEntity
  8
0
  6
Continuous
 62
     7
370
    25
100
AcDbCircle
 10
-16.3094765792
 20
-2.5
 30
0.0
 40
1.000000000000002
100
AcDbArc
 50
8.7114699647
 51
90.0
  0
ARC
  5
176
330
1F
100
AcDbEntity
  8
0
  6
Continuous
 62
     7
370
    25
100
AcDbCircle
 10
-2.5
 20
-16.3094765792
 30
0.0
 40
1.000000000000012
100
AcDbArc
 50
0.0
 51
81.2885300353
  0
ARC
  5
177
330
1F
100
AcDbEntity
  8
0
  6
Continuous
 62
     7
370
    25
100
AcDbCircle
 10
-2.5
 20
-30.8989188038
 30
0.0
 40
0.9999999999996101
100
AcDbArc
 50
360.0
 51
85.3728116844
  0
ARC
  5
178
330
1F
100
AcDbEntity
  8
0
  6
Continuous
 62
     7
370
    25
100
AcDbCircle
 10
2.5
 20
30.8989188038
 30
0.0
 40
1.000000000000024
100
AcDbArc
 50
180.0
 51
265.3728116843
  0
ARC
  5
179
330
1F
100
AcDbEntity
  8
0
  6
Continuous
 62
     7
370
    25
100
AcDbCircle
 10
-30.8989188038
 20
-2.5
 30
0.0
 40
0.9999999999999846
100
AcDbArc
 50
4.6271883157
 51
90.0
  0
ARC
  5
17A
330
1F
100
AcDbEntity
  8
0
  6
Continuous
 62
     7
370
    25
100
AcDbCircle
 10
16.3094765792
 20
2.5
 30
0.0
 40
1.000000000000001
100
AcDbArc
 50
188.7114699647
 51
270.0
  0
ARC
  5
17B
330
1F
100
AcDbEntity
  8
0
  6
Continuous
 62
     7
370
    25
100
AcDbCircle
 10
22.1090244572
 20
2.5
 30
0.0
 40
1.0
100
AcDbArc
 50
186.4501200309
 51
270.0
  0
ARC
  5
17C
330
1F
100
AcDbEntity
  8
0
  6
Continuous
 62
     7
370
    25
100
AcDbCircle
 10
-2.5
 20
26.8839008953
 30
0.0
 40
1.000000000000005
100
AcDbArc
 50
0.0
 51
95.3133204626
  0
ARC
  5
17D
330
1F
100
AcDbEntity
  8
0
  6
Continuous
 62
     7
370
    25
100
AcDbCircle
 10
30.8989188038
 20
2.5
 30
0.0
 40
0.9999999999999969
100
AcDbArc
 50
184.6271883157
 51
270.0
  0
ARC
  5
17E
330
1F
100
AcDbEntity
  8
0
  6
Continuous
 62
     7
370
    25
100
AcDbCircle
 10
-2.5
 20
7.0710511381
 30
0.0
 40
1.0
100
AcDbArc
 50
289.4683892262
 51
0.0
  0
ARC
  5
17F
330
1F
100
AcDbEntity
  8
0
  6
Continuous
 62
     7
370
    25
100
AcDbCircle
 10
2.5
 20
-16.3094765792
 30
0.0
 40
1.000000000000005
100
AcDbArc
 50
98.7114699647
 51
180.0
  0
ARC
  5
180
330
1F
100
AcDbEntity
  8
0
  6
Continuous
 62
     7
370
    25
100
AcDbCircle
 10
-16.3094765792
 20
2.5
 30
0.0
 40
1.00000000000001
100
AcDbArc
 50
270.0
 51
351.2885300353
  0
ARC
  5
181
330
1F
100
AcDbEntity
  8
0
  6
Continuous
 62
     7
370
    25
100
AcDbCircle
 10
2.5
 20
7.0710511381
 30
0.0
 40
0.9999999999999873
100
AcDbArc
 50
180.0
 51
250.5316107738
  0
ARC
  5
182
330
1F
100
AcDbEntity
  8
0
  6
Continuous
 62
     7
370
    25
100
AcDbCircle
 10
-2.5
 20
16.3094765792
 30
0.0
 40
1.000000000000006
100
AcDbArc
 50
278.7114699647
 51
0.0
  0
ARC
  5
183
330
1F
100
AcDbEntity
  8
0
  6
Continuous
 62
     7
370
    25
100
AcDbCircle
 10
2.5
 20
-30.8989188038
 30
0.0
 40
1.000000000000003
100
AcDbArc
 50
94.6271883157
 51
180.0
  0
ARC
  5
184
330
1F
100
AcDbEntity
  8
0
  6
Continuous
 62
     7
370
    25
100
AcDbCircle
 10
18.0779026002
 20
2.5
 30
0.0
 40
1.000000000000005
100
AcDbArc
 50
270.0
 51
7.8702822533
  0
ARC
  5
185
330
1F
100
AcDbEntity
  8
0
  6
Continuous
 62
     7
370
    25
100
AcDbCircle
 10
-2.5
 20
-18.0779026002
 30
0.0
 40
1.0
100
AcDbArc
 50
262.1297177467
 51
0.0
  0
ARC
  5
186
330
1F
100
AcDbEntity
  8
0
  6
Continuous
 62
     7
370
    25
100
AcDbCircle
 10
-2.5
 20
-22.1090244572
 30
0.0
 40
1.000000000000019
100
AcDbArc
 50
0.0
 51
83.5498799691
  0
ARC
  5
187
330
1F
100
AcDbEntity
  8
0
  6
Continuous
 62
     7
370
    25
100
AcDbCircle
 10
-26.8839008953
 20
-2.5
 30
0.0
 40
1.000000000000007
100
AcDbArc
 50
90.0
 51
185.3133204626
  0
ARC
  5
188
330
1F
100
AcDbEntity
  8
0
  6
Continuous
 62
     7
370
    25
100
AcDbCircle
 10
-2.5
 20
18.0779026002
 30
0.0
 40
0.9999999999999996
100
AcDbArc
 50
0.0
 51
97.8702822533
  0
ARC
  5
189
330
1F
100
AcDbEntity
  8
0
  6
Continuous
 62
     7
370
    25
100
AcDbCircle
 10
2.5
 20
16.3094765792
 30
0.0
 40
1.00000000000001
100
AcDbArc
 50
180.0
 51
261.2885300353
  0
ARC
  5
18A
330
1F
100
AcDbEntity
  8
0
  6
Continuous
 62
     7
370
    25
100
AcDbCircle
 10
2.5
 20
18.0779026002
 30
0.0
 40
1.000000000000001
100
AcDbArc
 50
82.1297177467
 51
180.0
  0
ARC
  5
18B
330
1F
100
AcDbEntity
  8
0
  6
Continuous
 62
     7
370
    25
100
AcDbCircle
 10
12.247448183
 20
2.5
 30
0.0
 40
1.000000000000004
100
AcDbArc
 50
270.0
 51
11.5378869051
  0
ARC
  5
18C
330
1F
100
AcDbEntity
  8
0
  6
Continuous
 62
     7
370
    25
100
AcDbCircle
 10
12.247448183
 20
-2.5
 30
0.0
 40
0.9999999999999982
100
AcDbArc
 50
348.4621130949
 51
90.0
  0
ARC
  5
18D
330
1F
100
AcDbEntity
  8
0
  6
Continuous
 62
     7
370
    25
100
AcDbCircle
 10
-30.8989188038
 20
2.5
 30
0.0
 40
1.00000000000001
100
AcDbArc
 50
270.0
 51
355.3728116843
  0
ARC
  5
18E
330
1F
100
AcDbEntity
  8
0
  6
Continuous
 62
     7
370
    25
100
AcDbCircle
 10
22.1090244572
 20
-2.5
 30
0.0
 40
1.000000000000018
100
AcDbArc
 50
90.0
 51
173.5498799691
  0
ARC
  5
18F
330
1F
100
AcDbEntity
  8
0
  6
Continuous
 62
     7
370
    25
100
AcDbCircle
 10
-7.0710511381
 20
2.5
 30
0.0
 40
1.000000000000002
100
AcDbArc
 50
270.0
 51
340.5316107738
  0
ARC
  5
190
330
1F
100
AcDbEntity
  8
0
  6
Continuous
 62
     7
370
    25
100
AcDbCircle
 10
-2.5
 20
-7.0710511381
 30
0.0
 40
1.000000000000008
100
AcDbArc
 50
0.0
 51
70.5316107738
  0
ARC
  5
191
330
1F
100
AcDbEntity
  8
0
  6
Continuous
 62
     7
370
    25
100
AcDbCircle
 10
18.0779026002
 20
-2.5
 30
0.0
 40
1.000000000000003
100
AcDbArc
 50
352.1297177467
 51
90.0
  0
ARC
  5
192
330
1F
100
AcDbEntity
  8
0
  6
Continuous
 62
     7
370
    25
100
AcDbCircle
 10
-18.0779026002
 20
-2.5
 30
0.0
 40
0.9999999999999805
100
AcDbArc
 50
90.0
 51
187.8702822533
  0
ARC
  5
193
330
1F
100
AcDbEntity
  8
0
  6
Continuous
 62
     7
370
    25
100
AcDbCircle
 10
2.5
 20
12.247448183
 30
0.0
 40
0.9999999999999973
100
AcDbArc
 50
78.4621130949
 51
180.0
  0
ARC
  5
194
330
1F
100
AcDbEntity
  8
0
  6
Continuous
 62
     7
370
    25
100
AcDbCircle
 10
-2.5
 20
-12.247448183
 30
0.0
 40
1.000000000000003
100
AcDbArc
 50
258.4621130949
 51
0.0
  0
ARC
  5
195
330
1F
100
AcDbEntity
  8
0
  6
Continuous
 62
     7
370
    25
100
AcDbCircle
 10
30.8989188038
 20
-2.5
 30
0.0
 40
0.999999999999625
100
AcDbArc
 50
90.0
 51
175.3728116844
  0
ARC
  5
196
330
1F
100
AcDbEntity
  8
0
  6
Continuous
 62
     7
370
    25
100
AcDbCircle
 10
-2.5
 20
12.247448183
 30
0.0
 40
1.0
100
AcDbArc
 50
0.0
 51
101.5378869051
  0
ARC
  5
197
330
1F
100
AcDbEntity
  8
0
  6
Continuous
 62
     7
370
    25
100
AcDbCircle
 10
-22.1090244572
 20
2.5
 30
0.0
 40
1.000000000000021
100
AcDbArc
 50
270.0
 51
353.5498799691
  0
ARC
  5
198
330
1F
100
AcDbEntity
  8
0
  6
Continuous
 62
     7
370
    25
100
AcDbCircle
 10
-22.1090244572
 20
-2.5
 30
0.0
 40
1.000000000000004
100
AcDbArc
 50
6.4501200309
 51
90.0
  0
ARC
  5
199
330
1F
100
AcDbEntity
  8
0
  6
Continuous
 62
     7
370
    25
100
AcDbCircle
 10
2.5
 20
-22.1090244572
 30
0.0
 40
1.000000000000004
100
AcDbArc
 50
96.4501200309
 51
180.0
  0
ARC
  5
19A
330
1F
100
AcDbEntity
  8
0
  6
Continuous
 62
     7
370
    25
100
AcDbCircle
 10
-2.5
 20
-26.8839008953
 30
0.0
 40
1.000000000000007
100
AcDbArc
 50
264.6866795374
 51
0.0
  0
ARC
  5
19B
330
1F
100
AcDbEntity
  8
0
  6
Continuous
 62
     7
370
    25
100
AcDbCircle
 10
2.5
 20
-7.0710511381
 30
0.0
 40
0.9999999999999862
100
AcDbArc
 50
109.4683892262
 51
180.0
  0
ARC
  5
19C
330
1F
100
AcDbEntity
  8
0
  6
Continuous
 62
     7
370
    25
100
AcDbCircle
 10
-18.0779026002
 20
2.5
 30
0.0
 40
1.000000000000001
100
AcDbArc
 50
172.1297177467
 51
270.0
  0
ARC
  5
19D
330
1F
100
AcDbEntity
  8
0
  6
Continuous
 62
     7
370
    25
100
AcDbCircle
 10
2.5
 20
-18.0779026002
 30
0.0
 40
0.9999999999999887
100
AcDbArc
 50
180.0
 51
277.8702822533
  0
ARC
  5
19E
330
1F
100
AcDbEntity
  8
0
  6
Continuous
 62
     7
370
    25
100
AcDbCircle
 10
-2.5
 20
22.1090244572
 30
0.0
 40
1.0
100
AcDbArc
 50
276.4501200309
 51
0.0
  0
ARC
  5
19F
330
1F
100
AcDbEntity
  8
0
  6
Continuous
 62
     7
370
    25
100
AcDbCircle
 10
2.5
 20
26.8839008953
 30
0.0
 40
1.0
100
AcDbArc
 50
84.6866795374
 51
180.0
  0
ARC
  5
1A0
330
1F
100
AcDbEntity
  8
0
  6
Continuous
 62
     7
370
    25
100
AcDbCircle
 10
7.0710511381
 20
-2.5
 30
0.0
 40
1.0
100
AcDbArc
 50
90.0
 51
160.5316107738
  0
ARC
  5
1A1
330
1F
100
AcDbEntity
  8
0
  6
Continuous
 62
     7
370
    25
100
AcDbCircle
 10
-12.247448183
 20
2.5
 30
0.0
 40
1.000000000000004
100
AcDbArc
 50
168.4621130949
 51
270.0
  0
ARC
  5
1A2
330
1F
100
AcDbEntity
  8
0
  6
Continuous
 62
     7
370
    25
100
AcDbCircle
 10
-26.8839008953
 20
2.5
 30
0.0
 40
0.9999999999999956
100
AcDbArc
 50
174.6866795374
 51
270.0
  0
ARC
  5
1A3
330
1F
100
AcDbEntity
  8
0
  6
Continuous
 62
     7
370
    25
100
AcDbCircle
 10
-7.0710511381
 20
-2.5
 30
0.0
 40
1.000000000000005
100
AcDbArc
 50
19.4683892262
 51
90.0
  0
ARC
  5
1A4
330
1F
100
AcDbEntity
  8
0
  6
Continuous
 62
     7
370
    25
100
AcDbCircle
 10
7.0710511381
 20
2.5
 30
0.0
 40
0.9999999999999907
100
AcDbArc
 50
199.4683892262
 51
270.0
  0
ARC
  5
1A5
330
1F
100
AcDbEntity
  8
0
  6
Continuous
 62
     7
370
    25
100
AcDbCircle
 10
-12.247448183
 20
-2.5
 30
0.0
 40
0.9999999999999976
100
AcDbArc
 50
90.0
 51
191.5378869051
  0
ARC
  5
1A6
330
1F
100
AcDbEntity
  8
0
  6
Continuous
 62
     7
370
    25
100
AcDbCircle
 10
2.5
 20
-12.247448183
 30
0.0
 40
1.000000000000001
100
AcDbArc
 50
180.0
 51
281.5378869051
  0
ARC
  5
1A7
330
1F
100
AcDbEntity
  8
0
  6
Continuous
 62
     7
370
    25
100
AcDbCircle
 10
2.5
 20
-26.8839008953
 30
0.0
 40
0.9999999999999964
100
AcDbArc
 50
180.0
 51
275.3133204626
  0
ARC
  5
1A8
330
1F
100
AcDbEntity
  8
0
  6
Continuous
 62
     7
370
    25
100
AcDbCircle
 10
26.8839008953
 20
-2.5
 30
0.0
 40
1.000000000000015
100
AcDbArc
 50
354.6866795374
 51
90.0
  0
ARC
  5
1A9
330
1F
100
AcDbEntity
  8
0
  6
Continuous
 62
     7
370
    25
100
AcDbCircle
 10
2.5
 20
22.1090244572
 30
0.0
 40
1.000000000000017
100
AcDbArc
 50
180.0
 51
263.5498799691
  0
ARC
  5
1AA
330
1F
100
AcDbEntity
  8
0
  6
Continuous
 62
     7
370
    25
100
AcDbCircle
 10
26.8839008953
 20
2.5
 30
0.0
 40
1.000000000000019
100
AcDbArc
 50
270.0
 51
5.3133204626
  0
ENDSEC
  0
SECTION
  2
OBJECTS
  0
DICTIONARY
  5
C
330
0
100
AcDbDictionary
281
     1
  3
ACAD_GROUP
350
D
  3
ACAD_LAYOUT
350
1A
  3
ACAD_MLINESTYLE
350
17
  3
ACAD_PLOTSETTINGS
350
19
  3
ACAD_PLOTSTYLENAME
350
E
  3
ACAD_SCALELIST
350
47
  3
DWGPROPS
350
1AB
  0
DICTIONARY
  5
D
102
{ACAD_REACTORS
330
C
102
}
330
C
100
AcDbDictionary
281
     1
  0
DICTIONARY
  5
1A
102
{ACAD_REACTORS
330
C
102
}
330
C
100
AcDbDictionary
281
     1
  3
Layout1
350
1E
  3
Layout2
350
26
  3
Model
350
22
  0
DICTIONARY
  5
17
102
{ACAD_REACTORS
330
C
102
}
330
C
100
AcDbDictionary
281
     1
  3
Standard
350
18
  0
DICTIONARY
  5
19
102
{ACAD_REACTORS
330
C
102
}
330
C
100
AcDbDictionary
281
     1
  0
ACDBDICTIONARYWDFLT
  5
E
102
{ACAD_REACTORS
330
C
102
}
330
C
100
AcDbDictionary
281
     1
  3
Normal
350
F
100
AcDbDictionaryWithDefault
340
F
  0
DICTIONARY
  5
47
102
{ACAD_REACTORS
330
C
102
}
330
C
100
AcDbDictionary
281
     1
  3
A0
350
48
  3
A1
350
49
  3
A2
350
4A
  3
A3
350
4B
  3
A4
350
4C
  3
A5
350
4D
  3
A6
350
4E
  3
A7
350
4F
  3
A8
350
50
  3
A9
350
51
  3
B0
350
52
  3
B1
350
53
  3
B2
350
54
  3
B3
350
55
  3
B4
350
56
  3
B5
350
57
  3
B6
350
58
  0
XRECORD
  5
1AB
102
{ACAD_REACTORS
330
C
102
}
330
C
100
AcDbXrecord
280
     1
  1
DWGPROPS COOKIE
  2

  3

  4

  6

  7

  8
AlohAmir
  9

300
=
301
=
302
=
303
=
304
=
305
=
306
=
307
=
308
=
309
=
 40
0.0
 41
2460821.892608449
 42
2460821.892662894
  1

 90
        0
  0
LAYOUT
  5
1E
102
{ACAD_REACTORS
330
1A
102
}
330
1A
100
AcDbPlotSettings
  1

  2
none_device
  4

  6

 40
0.0
 41
0.0
 42
0.0
 43
0.0
 44
0.0
 45
0.0
 46
0.0
 47
0.0
 48
0.0
 49
0.0
140
0.0
141
0.0
142
1.0
143
1.0
 70
   688
 72
     1
 73
     0
 74
     5
  7

 75
    16
147
1.0
148
0.0
149
0.0
100
AcDbLayout
  1
Layout1
 70
     1
 71
     1
 10
0.0
 20
0.0
 11
420.0
 21
297.0
 12
0.0
 22
0.0
 32
0.0
 14
1.0000000000E+20
 24
1.0000000000E+20
 34
1.0000000000E+20
 15
-1.0000000000E+20
 25
-1.0000000000E+20
 35
-1.0000000000E+20
146
0.0
 13
0.0
 23
0.0
 33
0.0
 16
1.0
 26
0.0
 36
0.0
 17
0.0
 27
1.0
 37
0.0
 76
     0
330
1B
  0
LAYOUT
  5
26
102
{ACAD_REACTORS
330
1A
102
}
330
1A
100
AcDbPlotSettings
  1

  2
none_device
  4

  6

 40
0.0
 41
0.0
 42
0.0
 43
0.0
 44
0.0
 45
0.0
 46
0.0
 47
0.0
 48
0.0
 49
0.0
140
0.0
141
0.0
142
1.0
143
1.0
 70
   688
 72
     1
 73
     0
 74
     5
  7

 75
    16
147
1.0
148
0.0
149
0.0
100
AcDbLayout
  1
Layout2
 70
     1
 71
     2
 10
0.0
 20
0.0
 11
0.0
 21
0.0
 12
0.0
 22
0.0
 32
0.0
 14
0.0
 24
0.0
 34
0.0
 15
0.0
 25
0.0
 35
0.0
146
0.0
 13
0.0
 23
0.0
 33
0.0
 16
1.0
 26
0.0
 36
0.0
 17
0.0
 27
1.0
 37
0.0
 76
     0
330
23
  0
LAYOUT
  5
22
102
{ACAD_REACTORS
330
1A
102
}
330
1A
100
AcDbPlotSettings
  1

  2
none_device
  4
ANSI_A_(11.00_x_8.50_Inches)
  6

 40
6.35
 41
19.05
 42
6.35000508
 43
19.05000254
 44
279.4
 45
215.9
 46
133.34999746
 47
88.89999873
 48
0.0
 49
0.0
140
0.0
141
0.0
142
0.0426481316
143
1.0
 70
  1696
 72
     0
 73
     0
 74
     0
  7

 75
     0
147
0.0179189148
148
-1300.4909072572
149
0.0
100
AcDbLayout
  1
Model
 70
     1
 71
     0
 10
0.0
 20
0.0
 11
420.0
 21
297.0
 12
0.0
 22
0.0
 32
0.0
 14
-98.6561389148
 24
-98.6561389148
 34
0.0
 15
98.6561389148
 25
98.6561389148
 35
0.0
146
0.0
 13
0.0
 23
0.0
 33
0.0
 16
1.0
 26
0.0
 36
0.0
 17
0.0
 27
1.0
 37
0.0
 76
     0
330
1F
331
29
  0
MLINESTYLE
  5
18
102
{ACAD_REACTORS
330
17
102
}
330
17
100
AcDbMlineStyle
  2
Standard
 70
     0
  3

 62
   256
 51
90.0
 52
90.0
 71
     2
 49
0.5
 62
   256
  6
BYLAYER
 49
-0.5
 62
   256
  6
BYLAYER
  0
ACDBPLACEHOLDER
  5
F
102
{ACAD_REACTORS
330
E
102
}
330
E
  0
SCALE
  5
48
102
{ACAD_REACTORS
330
47
102
}
330
47
100
AcDbScale
 70
     0
300
1:1
140
1.0
141
1.0
290
     1
  0
SCALE
  5
49
102
{ACAD_REACTORS
330
47
102
}
330
47
100
AcDbScale
 70
     0
300
1:2
140
1.0
141
2.0
290
     0
  0
SCALE
  5
4A
102
{ACAD_REACTORS
330
47
102
}
330
47
100
AcDbScale
 70
     0
300
1:4
140
1.0
141
4.0
290
     0
  0
SCALE
  5
4B
102
{ACAD_REACTORS
330
47
102
}
330
47
100
AcDbScale
 70
     0
300
1:5
140
1.0
141
5.0
290
     0
  0
SCALE
  5
4C
102
{ACAD_REACTORS
330
47
102
}
330
47
100
AcDbScale
 70
     0
300
1:8
140
1.0
141
8.0
290
     0
  0
SCALE
  5
4D
102
{ACAD_REACTORS
330
47
102
}
330
47
100
AcDbScale
 70
     0
300
1:10
140
1.0
141
10.0
290
     0
  0
SCALE
  5
4E
102
{ACAD_REACTORS
330
47
102
}
330
47
100
AcDbScale
 70
     0
300
1:16
140
1.0
141
16.0
290
     0
  0
SCALE
  5
4F
102
{ACAD_REACTORS
330
47
102
}
330
47
100
AcDbScale
 70
     0
300
1:20
140
1.0
141
20.0
290
     0
  0
SCALE
  5
50
102
{ACAD_REACTORS
330
47
102
}
330
47
100
AcDbScale
 70
     0
300
1:30
140
1.0
141
30.0
290
     0
  0
SCALE
  5
51
102
{ACAD_REACTORS
330
47
102
}
330
47
100
AcDbScale
 70
     0
300
1:40
140
1.0
141
40.0
290
     0
  0
SCALE
  5
52
102
{ACAD_REACTORS
330
47
102
}
330
47
100
AcDbScale
 70
     0
300
1:50
140
1.0
141
50.0
290
     0
  0
SCALE
  5
53
102
{ACAD_REACTORS
330
47
102
}
330
47
100
AcDbScale
 70
     0
300
1:100
140
1.0
141
100.0
290
     0
  0
SCALE
  5
54
102
{ACAD_REACTORS
330
47
102
}
330
47
100
AcDbScale
 70
     0
300
2:1
140
2.0
141
1.0
290
     0
  0
SCALE
  5
55
102
{ACAD_REACTORS
330
47
102
}
330
47
100
AcDbScale
 70
     0
300
4:1
140
4.0
141
1.0
290
     0
  0
SCALE
  5
56
102
{ACAD_REACTORS
330
47
102
}
330
47
100
AcDbScale
 70
     0
300
8:1
140
8.0
141
1.0
290
     0
  0
SCALE
  5
57
102
{ACAD_REACTORS
330
47
102
}
330
47
100
AcDbScale
 70
     0
300
10:1
140
10.0
141
1.0
290
     0
  0
SCALE
  5
58
102
{ACAD_REACTORS
330
47
102
}
330
47
100
AcDbScale
 70
     0
300
100:1
140
100.0
141
1.0
290
     0
  0
ENDSEC
  0
EOF
